<?xml version="1.0" standalone="no"?>
<!DOCTYPE svg PUBLIC "-//W3C//DTD SVG 1.1//EN" "http://www.w3.org/Graphics/SVG/1.1/DTD/svg11.dtd" >
<svg>
<metadata>
Created by FontForge 20090622 at Thu Jul 23 07:40:50 2015
 By deploy user
Copyright &#194;&#169; 2015 Monotype Imaging Inc.  All rights reserved.
</metadata>
<defs>
<font id="NeueHaasUnicaW1G-Thin" horiz-adv-x="712" >
  <font-face 
    font-family="Neue Haas Unica W1G Thin"
    font-weight="300"
    font-stretch="normal"
    units-per-em="1000"
    panose-1="2 11 3 4 3 2 6 2 2 3"
    ascent="764"
    descent="-236"
    x-height="508"
    cap-height="712"
    bbox="-500 -275 1059 1061"
    underline-thickness="50"
    underline-position="-75"
    unicode-range="U+0020-U+FEFF"
  />
<missing-glyph horiz-adv-x="596" 
d="M150 777h295q58 0 91 -33t33 -91v-594q0 -58 -33 -91t-91 -33h-295q-57 0 -90 33t-33 91v594q0 58 33 91t90 33zM445 749h-295q-44 0 -70 -26t-26 -70v-594q0 -44 26 -70t70 -26h295q44 0 70 26t26 70v594q0 44 -26 70t-70 26zM294 644q71 0 115.5 -39.5t44.5 -101.5
q0 -43 -17 -72.5t-70 -74.5q-48 -41 -61 -71t-13 -101h-33v21q0 64 15.5 97.5t65.5 76.5q46 40 60 64.5t14 59.5q0 48 -33.5 77t-87.5 29q-58 0 -91.5 -31.5t-37.5 -90.5h-37q5 76 48 116.5t118 40.5zM298 65h-45v68h45v-68z" />
    <glyph glyph-name="f_f" unicode="ff" horiz-adv-x="501" 
d="M457 683q-78 0 -78 -98v-77h105v-32h-105v-476h-36v476h-198v-476h-36v476h-94v32h94v80q0 127 110 127q19 0 33 -3v-33q-14 4 -29 4q-78 0 -78 -98v-77h198v80q0 127 110 127q19 0 33 -3v-33q-14 4 -29 4z" />
    <glyph glyph-name="f_f_i" unicode="ffi" 
d="M343 508v80q0 127 110 127q19 0 33 -3v-33q-14 4 -29 4q-78 0 -78 -98v-77h105v-32h-105v-476h-36v476h-198v-476h-36v476h-94v32h94v80q0 127 110 127q19 0 33 -3v-33q-14 4 -29 4q-78 0 -78 -98v-77h198zM625 712v-81h-36v81h36zM589 508h36v-508h-36v508z" />
    <glyph glyph-name="f_f_l" unicode="ffl" 
d="M343 508v80q0 127 110 127q19 0 33 -3v-33q-14 4 -29 4q-78 0 -78 -98v-77h105v-32h-105v-476h-36v476h-198v-476h-36v476h-94v32h94v80q0 127 110 127q19 0 33 -3v-33q-14 4 -29 4q-78 0 -78 -98v-77h198zM625 712v-712h-36v712h36z" />
    <glyph glyph-name="f_i" unicode="fi" horiz-adv-x="478" 
d="M109 508v80q0 127 110 127q19 0 33 -3v-33q-14 4 -29 4q-78 0 -78 -98v-77h106v-32h-106v-476h-36v476h-94v32h94zM391 712v-81h-36v81h36zM355 508h36v-508h-36v508z" />
    <glyph glyph-name="f_l" unicode="fl" horiz-adv-x="478" 
d="M109 508v80q0 127 110 127q19 0 33 -3v-33q-14 4 -29 4q-78 0 -78 -98v-77h106v-32h-106v-476h-36v476h-94v32h94zM391 712v-712h-36v712h36z" />
    <glyph glyph-name=".notdef" horiz-adv-x="596" 
d="M150 777h295q58 0 91 -33t33 -91v-594q0 -58 -33 -91t-91 -33h-295q-57 0 -90 33t-33 91v594q0 58 33 91t90 33zM445 749h-295q-44 0 -70 -26t-26 -70v-594q0 -44 26 -70t70 -26h295q44 0 70 26t26 70v594q0 44 -26 70t-70 26zM294 644q71 0 115.5 -39.5t44.5 -101.5
q0 -43 -17 -72.5t-70 -74.5q-48 -41 -61 -71t-13 -101h-33v21q0 64 15.5 97.5t65.5 76.5q46 40 60 64.5t14 59.5q0 48 -33.5 77t-87.5 29q-58 0 -91.5 -31.5t-37.5 -90.5h-37q5 76 48 116.5t118 40.5zM298 65h-45v68h45v-68z" />
    <glyph glyph-name=".null" horiz-adv-x="0" 
 />
    <glyph glyph-name="nonmarkingreturn" horiz-adv-x="333" 
 />
    <glyph glyph-name="space" unicode=" " horiz-adv-x="230" 
 />
    <glyph glyph-name="exclam" unicode="!" horiz-adv-x="223" 
d="M126 149h-29l-9 563h47zM134 0h-45v80h45v-80z" />
    <glyph glyph-name="quotedbl" unicode="&#x22;" horiz-adv-x="305" 
d="M109 462h-27l-6 250h39zM223 462h-26l-6 250h38z" />
    <glyph glyph-name="numbersign" unicode="#" horiz-adv-x="627" 
d="M452 438l-32 -199h136l-6 -30h-135l-33 -209h-33l33 209h-178l-33 -209h-32l33 209h-137l5 30h137l32 199h-138l5 30h137l33 206h32l-33 -206h178l33 206h33l-33 -206h136l-6 -30h-134zM419 438h-178l-32 -199h178z" />
    <glyph glyph-name="dollar" unicode="$" horiz-adv-x="520" 
d="M472 170q0 -81 -52 -129.5t-144 -51.5v-88h-34v89q-193 12 -195 230h39q0 -185 156 -195v309q-36 10 -57.5 17.5t-48 22.5t-41 32.5t-25 45.5t-10.5 65q0 77 47 120.5t135 47.5v79h34v-79q189 -11 189 -219h-39q0 91 -37 135t-113 48v-284q39 -11 62 -18.5t52 -23
t44.5 -34t26.5 -49t11 -70.5zM99 517q0 -65 33 -92.5t110 -49.5v275q-143 -6 -143 -133zM276 324v-300q75 3 116 41t41 105q0 72 -37 101.5t-120 52.5z" />
    <glyph glyph-name="percent" unicode="%" horiz-adv-x="792" 
d="M226 -30h-38l378 734h38zM181 685q65 0 100.5 -47.5t35.5 -135.5q0 -87 -35.5 -134t-100.5 -47t-100.5 47t-35.5 134q0 88 35.5 135.5t100.5 47.5zM181 652q-47 0 -72.5 -38.5t-25.5 -111.5q0 -72 25.5 -110t72.5 -38t72 38t25 110q0 73 -25 111.5t-72 38.5zM611 353
q65 0 100.5 -47.5t35.5 -135.5q0 -87 -35.5 -134t-100.5 -47t-100.5 47t-35.5 134q0 88 35.5 135.5t100.5 47.5zM611 320q-47 0 -72 -38.5t-25 -111.5q0 -72 25 -110t72 -38t72 38t25 110q0 73 -25 111.5t-72 38.5z" />
    <glyph glyph-name="ampersand" unicode="&#x26;" 
d="M648 0l-111 109q-98 -121 -242 -121q-104 0 -166 55t-62 142q0 71 42 121.5t133 94.5q-58 58 -77.5 94.5t-19.5 84.5q0 62 41.5 102.5t105.5 40.5q67 0 107.5 -41t40.5 -104q0 -61 -32 -103t-109 -81l234 -229q56 93 56 231h38q0 -151 -68 -257l142 -139h-53zM180 580
q0 -40 19 -73.5t76 -89.5q74 36 102 73t28 88q0 49 -31 80t-82 31q-50 0 -81 -30t-31 -79zM295 23q131 0 217 111l-246 244q-88 -43 -124 -86t-36 -107q0 -72 51.5 -117t137.5 -45z" />
    <glyph glyph-name="quotesingle" unicode="'" horiz-adv-x="191" 
d="M109 462h-27l-6 250h39z" />
    <glyph glyph-name="parenleft" unicode="(" horiz-adv-x="250" 
d="M184 741h36q-65 -106 -95 -210t-30 -234t30 -234t95 -210h-36q-65 100 -96.5 205.5t-31.5 238.5t31.5 238.5t96.5 205.5z" />
    <glyph glyph-name="parenright" unicode=")" horiz-adv-x="250" 
d="M30 741h36q65 -100 96.5 -205.5t31.5 -238.5t-31.5 -238.5t-96.5 -205.5h-36q65 106 95 210t30 234t-30 234t-95 210z" />
    <glyph glyph-name="asterisk" unicode="*" horiz-adv-x="383" 
d="M203 572l129 52l14 -41l-135 -31l88 -106l-34 -26l-74 119l-73 -119l-34 26l88 106l-135 31l14 41l129 -52l-9 140h41z" />
    <glyph glyph-name="plus" unicode="+" horiz-adv-x="566" 
d="M300 334h191v-34h-191v-191h-34v191h-191v34h191v191h34v-191z" />
    <glyph glyph-name="comma" unicode="," horiz-adv-x="171" 
d="M114 0l-37 -127h-27l30 127h-13v79h47v-79z" />
    <glyph glyph-name="hyphen" unicode="-" horiz-adv-x="281" 
d="M251 274h-221v36h221v-36z" />
    <glyph glyph-name="period" unicode="." horiz-adv-x="171" 
d="M110 0h-49v79h49v-79z" />
    <glyph glyph-name="slash" unicode="/" horiz-adv-x="416" 
d="M68 -89h-38l297 834h38z" />
    <glyph glyph-name="zero" unicode="0" horiz-adv-x="530" 
d="M265 685q109 0 165.5 -88.5t56.5 -259.5q0 -172 -56 -260t-166 -88t-166 88t-56 260q0 171 56.5 259.5t165.5 88.5zM265 649q-184 0 -184 -312q0 -313 184 -313q183 0 183 313q0 312 -183 312z" />
    <glyph glyph-name="one" unicode="1" horiz-adv-x="530" 
d="M297 0h-38v577h-1q-39 -48 -144 -48v33q73 0 107.5 25.5t43.5 86.5h32v-674z" />
    <glyph glyph-name="two" unicode="2" horiz-adv-x="530" 
d="M265 685q87 0 141.5 -50.5t54.5 -130.5q0 -34 -9.5 -61.5t-23 -48t-41.5 -43t-52.5 -38t-67.5 -40.5q-110 -63 -145.5 -114t-35.5 -124h390v-35h-426q-1 8 -1 17q0 95 39 155.5t160 131.5q53 30 78 46.5t51.5 41t35.5 50.5t9 62q0 64 -43 104.5t-114 40.5
q-77 0 -119.5 -42t-48.5 -118h-38q5 91 60 143.5t146 52.5z" />
    <glyph glyph-name="three" unicode="3" horiz-adv-x="530" 
d="M253 685q94 0 151 -49t57 -128q0 -125 -125 -163v-1q138 -38 138 -171q0 -80 -61.5 -132t-156.5 -52q-98 0 -153 53.5t-55 143.5h38q0 -76 44.5 -119t125.5 -43q78 0 128.5 42t50.5 108q0 73 -49.5 112.5t-137.5 39.5h-39v35h39q82 0 128 39t46 106q0 65 -46.5 104.5
t-123.5 39.5q-76 0 -119 -41.5t-43 -118.5h-38q0 92 54.5 143.5t146.5 51.5z" />
    <glyph glyph-name="four" unicode="4" horiz-adv-x="530" 
d="M504 197h-130v-197h-37v197h-316v40l301 437h52v-442h130v-35zM59 232h278v105v296h-2l-184 -268z" />
    <glyph glyph-name="five" unicode="5" horiz-adv-x="530" 
d="M441 639h-308l-27 -283h1q48 79 155 79q96 0 152.5 -59t56.5 -160q0 -103 -59 -165t-158 -62q-89 0 -141.5 49.5t-52.5 135.5h38q1 -70 43 -109.5t113 -39.5q82 0 130 51.5t48 138.5q0 85 -46 135t-125 50q-126 0 -162 -121l-37 2l38 393h341v-35z" />
    <glyph glyph-name="six" unicode="6" horiz-adv-x="530" 
d="M281 685q80 0 129 -45t60 -126h-39q-24 135 -150 135q-92 0 -143 -85.5t-50 -258.5h2q20 59 68 95.5t115 36.5q93 0 150.5 -61t57.5 -160q0 -102 -58 -164.5t-152 -62.5q-219 0 -219 317q0 186 60 282.5t169 96.5zM270 401q-74 0 -122 -51t-48 -129q0 -88 45 -142
t126 -54q77 0 124 52t47 139q0 83 -47 134t-125 51z" />
    <glyph glyph-name="seven" unicode="7" horiz-adv-x="530" 
d="M477 674v-36q-192 -283 -269 -638h-41q85 364 269 639h-394v35h435z" />
    <glyph glyph-name="eight" unicode="8" horiz-adv-x="530" 
d="M265 685q88 0 145 -50t57 -129q0 -58 -34 -98.5t-92 -58.5v-1q65 -19 102.5 -61.5t37.5 -105.5q0 -85 -60.5 -138.5t-155.5 -53.5t-155.5 53.5t-60.5 138.5q0 63 37.5 105.5t101.5 61.5v1q-57 18 -91 58.5t-34 98.5q0 79 56.5 129t145.5 50zM265 649q-72 0 -117.5 -39.5
t-45.5 -103.5q0 -63 44.5 -102t118.5 -39t118.5 39t44.5 102q0 64 -45.5 103.5t-117.5 39.5zM265 330q-77 0 -127.5 -42t-50.5 -106q0 -70 50 -113.5t128 -43.5t127.5 43.5t49.5 113.5q0 64 -50 106t-127 42z" />
    <glyph glyph-name="nine" unicode="9" horiz-adv-x="530" 
d="M248 -11q-79 0 -128 45t-60 126h38q25 -135 150 -135q92 0 143 85.5t51 258.5h-2q-20 -59 -68.5 -95.5t-114.5 -36.5q-93 0 -150.5 61t-57.5 160q0 102 57.5 164.5t151.5 62.5q108 0 164 -79.5t56 -237.5q0 -186 -60 -282.5t-170 -96.5zM260 273q74 0 122 51t48 129
q0 88 -45.5 142t-126.5 54q-77 0 -124 -52t-47 -139q0 -83 47.5 -134t125.5 -51z" />
    <glyph glyph-name="colon" unicode=":" horiz-adv-x="171" 
d="M110 429h-49v79h49v-79zM110 0h-49v79h49v-79z" />
    <glyph glyph-name="semicolon" unicode=";" horiz-adv-x="172" 
d="M115 429h-48v79h48v-79zM114 0l-37 -127h-27l30 127h-13v79h47v-79z" />
    <glyph glyph-name="less" unicode="&#x3c;" horiz-adv-x="566" 
d="M491 486l-381 -168v-2l381 -168v-38l-416 184v46l416 184v-38z" />
    <glyph glyph-name="equal" unicode="=" horiz-adv-x="566" 
d="M491 368h-416v34h416v-34zM491 231h-416v34h416v-34z" />
    <glyph glyph-name="greater" unicode="&#x3e;" horiz-adv-x="566" 
d="M491 340v-46l-416 -184v38l381 168v2l-381 168v38z" />
    <glyph glyph-name="question" unicode="?" horiz-adv-x="483" 
d="M242 723q88 0 144.5 -49t56.5 -125q0 -54 -22 -91t-90 -93q-61 -52 -78.5 -91t-17.5 -129h-33v25q0 80 20 122t83 96q61 52 80 83.5t19 77.5q0 62 -45 100.5t-117 38.5q-75 0 -119.5 -41t-50.5 -118h-36q6 94 60 144t146 50zM241 0h-45v80h45v-80z" />
    <glyph glyph-name="at" unicode="@" horiz-adv-x="851" 
d="M434 679q162 0 259.5 -96.5t97.5 -257.5q0 -118 -48 -180.5t-120 -62.5q-91 0 -97 107h-1q-43 -107 -145 -107q-67 0 -104 48.5t-37 139.5q0 110 51 179t131 69q52 0 84 -28.5t41 -77.5h1l18 96h35q-43 -204 -43 -300q0 -93 70 -93q54 0 91.5 53.5t37.5 156.5
q0 146 -88 233.5t-234 87.5q-158 0 -248.5 -105.5t-90.5 -266.5q0 -156 87.5 -244.5t236.5 -88.5q131 0 224 59l16 -28q-102 -64 -240 -64q-165 0 -262 97.5t-97 268.5q0 174 100.5 289.5t273.5 115.5zM425 485q-66 0 -108 -59.5t-42 -155.5q0 -76 29.5 -115.5t82.5 -39.5
q61 0 102.5 59t41.5 178q0 63 -28 98t-78 35z" />
    <glyph glyph-name="A" unicode="A" horiz-adv-x="648" 
d="M499 250h-351l-102 -250h-40l292 712h51l292 -712h-40zM485 285l-36 88l-125 306h-1l-125 -306l-36 -88h323z" />
    <glyph glyph-name="B" unicode="B" horiz-adv-x="600" 
d="M104 712h207q109 0 165 -47.5t56 -129.5q0 -65 -35 -109t-98 -60v-1q67 -11 108 -57.5t41 -115.5q0 -89 -57.5 -140.5t-160.5 -51.5h-226v712zM141 678v-297h166q96 0 141.5 41.5t45.5 108.5q0 147 -186 147h-167zM141 347v-313h185q88 0 135.5 41.5t47.5 116.5
q0 71 -49.5 113t-152.5 42h-166z" />
    <glyph glyph-name="C" unicode="C" horiz-adv-x="671" 
d="M347 723q119 0 190 -69.5t77 -175.5h-39q-7 93 -67.5 151t-160.5 58q-121 0 -191.5 -89t-70.5 -242t69.5 -242t188.5 -89q98 0 161.5 58.5t74.5 153.5h39q-11 -112 -84.5 -180t-190.5 -68q-137 0 -216.5 98.5t-79.5 268.5q0 169 81 268t219 99z" />
    <glyph glyph-name="D" unicode="D" 
d="M104 712h200q174 0 268 -92.5t94 -263.5t-94 -263.5t-268 -92.5h-200v712zM141 677v-642h163q156 0 239.5 83t83.5 238t-83.5 238t-239.5 83h-163z" />
    <glyph glyph-name="E" unicode="E" horiz-adv-x="597" 
d="M527 677h-386v-294h368v-35h-368v-313h399v-35h-436v712h423v-35z" />
    <glyph glyph-name="F" unicode="F" horiz-adv-x="552" 
d="M517 677h-376v-296h356v-35h-356v-346h-37v712h413v-35z" />
    <glyph glyph-name="G" unicode="G" horiz-adv-x="710" 
d="M356 723q115 0 185.5 -59.5t79.5 -158.5h-39q-11 84 -70 133t-156 49q-126 0 -198.5 -89t-72.5 -245q0 -154 69 -241t190 -87q50 0 92 16t77 49.5t54.5 94t19.5 142.5h-225v35h261v-362h-36v159h-1q-23 -78 -88.5 -124t-156.5 -46q-137 0 -215.5 97.5t-78.5 266.5
q0 172 82.5 271t226.5 99z" />
    <glyph glyph-name="H" unicode="H" horiz-adv-x="717" 
d="M614 0h-38v352h-435v-352h-37v712h37v-325h435v325h38v-712z" />
    <glyph glyph-name="I" unicode="I" horiz-adv-x="245" 
d="M141 0h-37v712h37v-712z" />
    <glyph glyph-name="J" unicode="J" horiz-adv-x="318" 
d="M220 712v-531q0 -91 -43 -138t-122 -47q-23 0 -40 5v36q23 -5 40 -5q127 0 127 149v531h38z" />
    <glyph glyph-name="K" unicode="K" horiz-adv-x="567" 
d="M184 373l378 -373h-54l-366 363h-1v-363h-37v712h37v-329h1l335 329h53z" />
    <glyph glyph-name="L" unicode="L" horiz-adv-x="538" 
d="M141 35h390v-35h-427v712h37v-677z" />
    <glyph glyph-name="M" unicode="M" horiz-adv-x="876" 
d="M772 0h-37v377v293h-2l-121 -299l-152 -371h-45l-151 371l-122 299h-1v-293v-377h-37v712h61l158 -389l114 -282h2l114 282l158 389h61v-712z" />
    <glyph glyph-name="N" unicode="N" horiz-adv-x="730" 
d="M627 0h-59l-205 326l-221 349h-1v-373v-302h-37v712h58l205 -326l221 -349h1v373v302h38v-712z" />
    <glyph glyph-name="O" unicode="O" 
d="M356 723q142 0 225.5 -99.5t83.5 -267.5t-83.5 -267.5t-225.5 -99.5t-225.5 99.5t-83.5 267.5t83.5 267.5t225.5 99.5zM356 687q-124 0 -197.5 -90t-73.5 -241t73.5 -241t197.5 -90t197 89.5t73 241.5t-73 241.5t-197 89.5z" />
    <glyph glyph-name="P" unicode="P" horiz-adv-x="589" 
d="M104 712h228q110 0 168.5 -53.5t58.5 -143.5t-58.5 -143.5t-168.5 -53.5h-191v-318h-37v712zM141 677v-324h191q92 0 140 43.5t48 118.5t-48 118.5t-140 43.5h-191z" />
    <glyph glyph-name="Q" unicode="Q" horiz-adv-x="711" 
d="M665 356q0 -181 -95 -281l80 -87l-26 -25l-80 88q-76 -62 -185 -62q-143 0 -227.5 99.5t-84.5 267.5t84.5 267.5t227.5 99.5q140 0 223 -99.5t83 -267.5zM359 25q93 0 159 54l-92 100l26 26l92 -101q82 90 82 252q0 152 -72.5 241.5t-194.5 89.5q-125 0 -199.5 -90
t-74.5 -241t74.5 -241t199.5 -90z" />
    <glyph glyph-name="R" unicode="R" horiz-adv-x="607" 
d="M104 712h195q118 0 177 -48t59 -136q0 -73 -40 -121t-107 -60v-2q40 -10 63.5 -38t47.5 -95l77 -212h-41l-73 205q-25 71 -57 98t-96 27h-168v-330h-37v712zM141 677v-312h168q94 0 141 45t47 118q0 72 -50 110.5t-148 38.5h-158z" />
    <glyph glyph-name="S" unicode="S" horiz-adv-x="586" 
d="M276 723q237 0 237 -235h-38q0 200 -199 200q-82 0 -129 -39.5t-47 -108.5q0 -68 43.5 -99.5t148.5 -56.5q62 -15 98 -28t70.5 -35t49.5 -56t15 -84q0 -89 -62 -140.5t-169 -51.5q-119 0 -182 62.5t-63 186.5h38q0 -214 207 -214q92 0 142.5 41.5t50.5 115.5
q0 39 -11.5 65.5t-41.5 44.5t-61 29t-89 25q-118 29 -170 69t-52 126q0 82 58 132.5t156 50.5z" />
    <glyph glyph-name="T" unicode="T" horiz-adv-x="579" 
d="M571 677h-263v-677h-37v677h-264v35h564v-35z" />
    <glyph glyph-name="U" unicode="U" horiz-adv-x="684" 
d="M586 712v-450q0 -134 -62.5 -203.5t-181.5 -69.5t-181.5 69.5t-62.5 203.5v450h37v-450q0 -118 53.5 -177.5t153.5 -59.5t153.5 59.5t53.5 177.5v450h37z" />
    <glyph glyph-name="V" unicode="V" horiz-adv-x="610" 
d="M331 0h-51l-272 712h39l130 -341l127 -334h2l127 334l130 341h40z" />
    <glyph glyph-name="W" unicode="W" horiz-adv-x="876" 
d="M675 0h-58l-88 334l-90 342h-2l-90 -342l-88 -334h-58l-189 712h37l88 -326l93 -350h1l92 352l86 324h58l86 -324l92 -352h1l93 350l88 326h38z" />
    <glyph glyph-name="X" unicode="X" horiz-adv-x="604" 
d="M326 366l267 -366h-46l-244 335h-2l-244 -335h-46l268 366l-253 346h46l229 -314h2l229 314h46z" />
    <glyph glyph-name="Y" unicode="Y" horiz-adv-x="585" 
d="M311 312v-312h-37v312l-268 400h45l108 -163l132 -199h2l134 201l107 161h45z" />
    <glyph glyph-name="Z" unicode="Z" horiz-adv-x="551" 
d="M513 670l-455 -633v-2h476v-35h-517v42l455 633v2h-449v35h490v-42z" />
    <glyph glyph-name="bracketleft" unicode="[" horiz-adv-x="258" 
d="M238 710h-122v-827h122v-31h-158v889h158v-31z" />
    <glyph glyph-name="backslash" unicode="\" horiz-adv-x="416" 
d="M89 745l297 -834h-38l-297 834h38z" />
    <glyph glyph-name="bracketright" unicode="]" horiz-adv-x="258" 
d="M178 741v-889h-158v31h122v827h-122v31h158z" />
    <glyph glyph-name="asciicircum" unicode="^" horiz-adv-x="402" 
d="M388 371h-36l-150 310h-2l-150 -310h-36l166 341h42z" />
    <glyph glyph-name="underscore" unicode="_" horiz-adv-x="500" 
d="M500 -76h-500v26h500v-26z" />
    <glyph glyph-name="grave" unicode="`" horiz-adv-x="241" 
d="M99 712l92 -139h-36l-105 139h49z" />
    <glyph glyph-name="a" unicode="a" horiz-adv-x="508" 
d="M249 519q82 0 130 -47t48 -142v-211q0 -72 10 -119h-34q-8 42 -8 96h-1q-54 -106 -186 -106q-76 0 -122 39.5t-46 103.5q0 62 42 99t141 52q96 14 169 20v29q0 78 -38.5 116t-104.5 38q-70 0 -108.5 -36t-42.5 -96h-37q5 75 54 119.5t134 44.5zM392 219v53
q-81 -7 -165 -20q-82 -12 -116 -40.5t-34 -77.5q0 -51 37 -81.5t100 -30.5q82 0 129 52q28 30 38.5 60t10.5 85z" />
    <glyph glyph-name="b" unicode="b" horiz-adv-x="554" 
d="M124 400h1q20 56 64.5 87.5t104.5 31.5q98 0 155.5 -71t57.5 -194q0 -122 -57.5 -193t-155.5 -71q-60 0 -104.5 31.5t-64.5 87.5h-1v-109h-36v712h36v-312zM290 487q-77 0 -122.5 -62.5t-45.5 -170.5q0 -107 45.5 -169.5t122.5 -62.5q83 0 131.5 62.5t48.5 169.5
q0 108 -48.5 170.5t-131.5 62.5z" />
    <glyph glyph-name="c" unicode="c" horiz-adv-x="505" 
d="M266 519q82 0 136 -49.5t61 -129.5h-38q-5 65 -49 105.5t-110 40.5q-85 0 -133.5 -61.5t-48.5 -170.5t48.5 -170.5t133.5 -61.5q66 0 109.5 42.5t49.5 108.5h38q-7 -82 -61 -133t-136 -51q-102 0 -160.5 70.5t-58.5 194.5t58.5 194.5t160.5 70.5z" />
    <glyph glyph-name="d" unicode="d" horiz-adv-x="554" 
d="M466 0h-36v109h-1q-20 -56 -64.5 -87.5t-104.5 -31.5q-98 0 -155.5 71t-57.5 193q0 123 57.5 194t155.5 71q60 0 104.5 -31.5t64.5 -87.5h1v312h36v-712zM263 487q-83 0 -131 -62.5t-48 -170.5q0 -107 48 -169.5t131 -62.5q78 0 123.5 62.5t45.5 169.5q0 108 -45.5 170.5
t-123.5 62.5z" />
    <glyph glyph-name="e" unicode="e" horiz-adv-x="526" 
d="M270 21q67 0 111.5 35t54.5 94h38q-12 -71 -66 -116t-138 -45q-103 0 -163 74.5t-60 200.5q0 115 58.5 185t158.5 70q83 0 138.5 -49t70.5 -134q6 -30 6 -85h-396q1 -108 52 -169t135 -61zM264 487q-81 0 -129 -55.5t-52 -148.5h361q-3 96 -52 150t-128 54z" />
    <glyph glyph-name="f" unicode="f" horiz-adv-x="267" 
d="M223 683q-78 0 -78 -98v-77h106v-32h-106v-476h-36v476h-94v32h94v80q0 127 110 127q19 0 33 -3v-33q-14 4 -29 4z" />
    <glyph glyph-name="g" unicode="g" horiz-adv-x="554" 
d="M261 519q120 0 168 -118h1v107h36v-477q0 -221 -205 -221q-90 0 -142 42t-52 116h36q1 -60 43.5 -93t114.5 -33q169 0 169 190v92h-1q-48 -118 -168 -118q-99 0 -156.5 69t-57.5 187q0 119 57.5 188t156.5 69zM261 487q-82 0 -129.5 -60.5t-47.5 -164.5
q0 -103 47.5 -163.5t129.5 -60.5q80 0 125.5 60t45.5 164q0 105 -45.5 165t-125.5 60z" />
    <glyph glyph-name="h" unicode="h" horiz-adv-x="549" 
d="M124 417h1q24 48 68.5 74.5t97.5 26.5q85 0 131 -52.5t46 -156.5v-309h-36v308q0 178 -145 178q-68 0 -115.5 -48t-47.5 -127v-311h-36v712h36v-295z" />
    <glyph glyph-name="i" unicode="i" horiz-adv-x="211" 
d="M124 631h-36v81h36v-81zM124 0h-36v508h36v-508z" />
    <glyph glyph-name="j" unicode="j" horiz-adv-x="220" 
d="M133 631h-36v81h36v-81zM133 508v-552q0 -77 -31 -110.5t-89 -33.5q-15 0 -25 3v33q14 -2 23 -2q43 0 64.5 24.5t21.5 85.5v552h36z" />
    <glyph glyph-name="k" unicode="k" horiz-adv-x="457" 
d="M462 0h-52l-285 268h-1v-268h-36v712h36v-424h1l256 220h52l-269 -229z" />
    <glyph glyph-name="l" unicode="l" horiz-adv-x="211" 
d="M124 0h-36v712h36v-712z" />
    <glyph glyph-name="m" unicode="m" horiz-adv-x="826" 
d="M586 518q76 0 117.5 -50.5t41.5 -150.5v-317h-36v316q0 170 -127 170q-66 0 -107 -47t-41 -122v-317h-36v334q0 71 -33.5 111.5t-91.5 40.5q-66 0 -107.5 -50t-41.5 -133v-303h-36v508h36v-87h1q49 97 151 97q55 0 94 -30t54 -83q21 53 62.5 83t99.5 30z" />
    <glyph glyph-name="n" unicode="n" horiz-adv-x="549" 
d="M291 518q85 0 131 -52.5t46 -156.5v-309h-36v308q0 178 -145 178q-68 0 -115.5 -48t-47.5 -127v-311h-36v508h36v-91h1q22 47 66.5 74t99.5 27z" />
    <glyph glyph-name="o" unicode="o" horiz-adv-x="539" 
d="M269 519q104 0 163.5 -70.5t59.5 -194.5t-59.5 -194.5t-163.5 -70.5t-163 70.5t-59 194.5t59 194.5t163 70.5zM269 486q-87 0 -136 -61.5t-49 -170.5t49 -170.5t136 -61.5q88 0 137 61.5t49 170.5t-49 170.5t-137 61.5z" />
    <glyph glyph-name="p" unicode="p" horiz-adv-x="554" 
d="M294 519q98 0 155.5 -71t57.5 -194q0 -122 -57.5 -193t-155.5 -71q-60 0 -104.5 31.5t-64.5 87.5h-1v-294h-36v693h36v-108h1q20 56 64.5 87.5t104.5 31.5zM290 487q-77 0 -122.5 -62.5t-45.5 -170.5q0 -107 45.5 -169.5t122.5 -62.5q83 0 131.5 62.5t48.5 169.5
q0 108 -48.5 170.5t-131.5 62.5z" />
    <glyph glyph-name="q" unicode="q" horiz-adv-x="554" 
d="M260 519q60 0 104.5 -31.5t64.5 -87.5h1v108h36v-693h-36v294h-1q-20 -56 -64.5 -87.5t-104.5 -31.5q-98 0 -155.5 71t-57.5 193q0 123 57.5 194t155.5 71zM263 487q-83 0 -131 -62.5t-48 -170.5q0 -107 48 -169.5t131 -62.5q78 0 123.5 62.5t45.5 169.5
q0 108 -45.5 170.5t-123.5 62.5z" />
    <glyph glyph-name="r" unicode="r" horiz-adv-x="331" 
d="M288 511q16 0 30 -3v-35q-16 2 -29 2q-77 0 -121 -49.5t-44 -143.5v-282h-36v508h36v-99h1q47 102 163 102z" />
    <glyph glyph-name="s" unicode="s" horiz-adv-x="461" 
d="M221 519q85 0 132.5 -46t48.5 -128h-37q0 67 -38 104t-106 37q-58 0 -94.5 -27.5t-36.5 -74.5t29.5 -66t108.5 -37q50 -11 78.5 -20t57 -25.5t41 -42t12.5 -62.5q0 -63 -49.5 -102.5t-128.5 -39.5q-93 0 -144 48.5t-52 135.5h36q0 -72 42 -111.5t118 -39.5q62 0 102 29.5
t40 77.5q0 53 -34 75t-129 43q-34 8 -54 13.5t-43.5 16t-36.5 23.5t-21.5 34t-8.5 48q0 62 47 99.5t120 37.5z" />
    <glyph glyph-name="t" unicode="t" horiz-adv-x="284" 
d="M218 31q19 0 35 4v-33q-20 -4 -39 -4q-56 0 -81 29t-25 96v353h-95v32h95v117h36v-117h104v-32h-104v-353q0 -50 17 -71t57 -21z" />
    <glyph glyph-name="u" unicode="u" horiz-adv-x="549" 
d="M258 -10q-85 0 -130.5 52.5t-45.5 156.5v309h36v-308q0 -178 144 -178q68 0 116 48t48 127v311h36v-508h-36v91h-2q-23 -47 -67 -74t-99 -27z" />
    <glyph glyph-name="v" unicode="v" horiz-adv-x="438" 
d="M243 0h-48l-196 508h39l88 -230l92 -242h2l93 242l88 230h39z" />
    <glyph glyph-name="w" unicode="w" horiz-adv-x="744" 
d="M575 0h-52l-79 248l-71 226h-2l-71 -226l-79 -248h-52l-160 508h37l74 -235l74 -238h2l75 237l73 236h56l73 -236l75 -237h2l74 238l74 235h37z" />
    <glyph glyph-name="x" unicode="x" horiz-adv-x="452" 
d="M248 265l202 -265h-45l-178 237h-2l-178 -237h-45l203 265l-185 243h44l161 -216h2l160 216h45z" />
    <glyph glyph-name="y" unicode="y" horiz-adv-x="442" 
d="M443 508l-211 -523q-42 -104 -80 -139t-103 -35q-21 0 -38 6v33q17 -6 38 -6q53 0 83 30t68 125l-201 509h39l180 -461h1l185 461h39z" />
    <glyph glyph-name="z" unicode="z" horiz-adv-x="450" 
d="M418 469l-353 -434v-2h363v-33h-406v39l353 434v2h-343v33h386v-39z" />
    <glyph glyph-name="braceleft" unicode="{" horiz-adv-x="279" 
d="M258 741v-29q-61 0 -87.5 -28t-26.5 -92v-174q0 -51 -16.5 -78t-58.5 -42v-2q42 -15 58.5 -42t16.5 -78v-175q0 -64 26.5 -92t87.5 -28v-29h-12q-70 0 -103.5 36.5t-33.5 114.5v172q0 47 -15.5 70t-53.5 35v33q39 13 54 35.5t15 69.5v172q0 78 33.5 114.5t103.5 36.5h12z
" />
    <glyph glyph-name="bar" unicode="|" horiz-adv-x="248" 
d="M141 -205h-34v937h34v-937z" />
    <glyph glyph-name="braceright" unicode="}" horiz-adv-x="279" 
d="M21 741h12q70 0 103.5 -36.5t33.5 -114.5v-172q0 -47 15 -69.5t54 -35.5v-33q-38 -12 -53.5 -35t-15.5 -70v-172q0 -78 -33.5 -114.5t-103.5 -36.5h-12v29q61 0 87.5 28t26.5 92v175q0 51 16.5 78t58.5 42v2q-42 15 -58.5 42t-16.5 78v174q0 64 -26.5 92t-87.5 28v29z
" />
    <glyph glyph-name="asciitilde" unicode="~" horiz-adv-x="571" 
d="M155 399q39 0 76 -20.5t60.5 -44.5t57.5 -44.5t68 -20.5q45 0 72 32.5t27 85.5h30q0 -68 -36 -110.5t-94 -42.5q-40 0 -76.5 20.5t-60 45t-57 45t-67.5 20.5q-45 0 -72 -32t-27 -86h-31q0 68 36 110t94 42z" />
    <glyph glyph-name="nbspace" unicode="&#xa0;" horiz-adv-x="230" 
 />
    <glyph glyph-name="exclamdown" unicode="&#xa1;" horiz-adv-x="223" 
d="M89 508h45v-80h-45v80zM97 359h29l9 -563h-47z" />
    <glyph glyph-name="cent" unicode="&#xa2;" horiz-adv-x="520" 
d="M290 565v-463q59 6 97.5 48t43.5 103h37q-7 -77 -55 -127.5t-123 -56.5v-89h-34v88q-95 6 -149.5 76.5t-54.5 188.5q0 119 54.5 189.5t149.5 76.5v86h34v-87q75 -5 123.5 -54t54.5 -124h-37q-5 60 -43.5 100t-97.5 45zM90 333q0 -103 44 -164.5t122 -66.5v463
q-78 -5 -122 -66.5t-44 -165.5z" />
    <glyph glyph-name="sterling" unicode="&#xa3;" horiz-adv-x="520" 
d="M108 34h368v-34h-452v34q106 0 106 139v137h-106v33h106v145q0 96 45.5 146.5t128.5 50.5q80 0 126.5 -52.5t46.5 -143.5h-36q0 77 -36.5 119t-100.5 42q-66 0 -102 -42t-36 -120v-145h132v-33h-132v-137q0 -102 -58 -138v-1z" />
    <glyph glyph-name="currency" unicode="&#xa4;" horiz-adv-x="520" 
d="M462 291q0 -87 -47 -143l79 -83l-27 -25l-77 83q-54 -43 -130 -43q-78 0 -130 43l-78 -83l-27 25l79 83q-47 58 -47 143t47 143l-79 83l27 25l78 -83q52 43 130 43q76 0 130 -43l77 83l27 -25l-79 -83q47 -56 47 -143zM260 115q75 0 120.5 48t45.5 128t-45.5 128
t-120.5 48q-76 0 -121 -48t-45 -128t45 -128t121 -48z" />
    <glyph glyph-name="yen" unicode="&#xa5;" horiz-adv-x="520" 
d="M301 356h163v-34h-186v-78h186v-34h-186v-210h-37v210h-185v34h185v78h-185v34h162l-212 318h44l77 -115l132 -199h1l135 201l74 113h45z" />
    <glyph glyph-name="brokenbar" unicode="&#xa6;" horiz-adv-x="248" 
d="M141 382h-34v350h34v-350zM141 -205h-34v350h34v-350z" />
    <glyph glyph-name="section" unicode="&#xa7;" horiz-adv-x="513" 
d="M246 723q77 0 118 -40.5t42 -118.5h-36q-3 126 -124 126q-53 0 -84 -28t-31 -75q0 -48 25.5 -70t119.5 -68q108 -53 140.5 -87.5t32.5 -93.5q0 -88 -85 -143v-1q53 -42 53 -119q0 -69 -43.5 -108.5t-119.5 -39.5q-169 0 -169 171h36q0 -138 133 -138q60 0 93 30.5
t33 84.5q0 56 -29 82.5t-126 74.5q-96 48 -128.5 82t-32.5 94q0 85 82 141v1q-52 40 -52 107q0 61 42 98.5t110 37.5zM173 462q-74 -54 -74 -121q0 -46 29 -76t115 -72q58 -27 95 -51q76 50 76 123q0 47 -28 76.5t-120 72.5q-61 29 -93 48z" />
    <glyph glyph-name="dieresis" unicode="&#xa8;" horiz-adv-x="319" 
d="M86 631h-36v81h36v-81zM269 631h-36v81h36v-81z" />
    <glyph glyph-name="copyright" unicode="&#xa9;" horiz-adv-x="819" 
d="M409 722q160 0 258.5 -101t98.5 -265t-98.5 -265t-258.5 -101t-258 101t-98 265t98 265t258 101zM409 694q-148 0 -238 -93t-90 -245t90 -245t238 -93t238.5 93t90.5 245t-90.5 245t-238.5 93zM410 609q82 0 130.5 -47.5t53.5 -120.5h-38q-5 58 -44 95t-102 37
q-78 0 -123 -58.5t-45 -159.5q0 -100 44.5 -158t120.5 -58q63 0 104 37.5t48 97.5h38q-8 -77 -59 -124t-131 -47q-94 0 -149 68t-55 184q0 118 56 186t151 68z" />
    <glyph glyph-name="ordfeminine" unicode="&#xaa;" horiz-adv-x="369" 
d="M181 694q61 0 96 -33.5t35 -100.5v-146q0 -52 8 -84h-30q-6 36 -6 64h-1q-39 -71 -133 -71q-55 0 -88.5 28t-33.5 73q0 44 31 70t104 37q65 10 118 14v18q0 52 -27 77.5t-73 25.5q-48 0 -74.5 -24t-29.5 -63h-33q3 52 39 83.5t98 31.5zM281 483v34q-56 -5 -114 -14
q-57 -9 -80.5 -27t-23.5 -51q0 -34 25 -54t68 -20q58 0 90 34q20 21 27.5 41t7.5 57z" />
    <glyph glyph-name="guillemetleft" unicode="&#xab;" horiz-adv-x="391" 
d="M91 254l114 -200h-38l-114 200l114 200h38zM225 254l113 -200h-38l-114 200l114 200h38z" />
    <glyph glyph-name="logicalnot" unicode="&#xac;" horiz-adv-x="566" 
d="M491 152h-34v256h-382v34h416v-290z" />
    <glyph glyph-name="softhyphen" unicode="&#xad;" horiz-adv-x="281" 
d="M251 274h-221v36h221v-36z" />
    <glyph glyph-name="registered" unicode="&#xae;" horiz-adv-x="580" 
d="M290 723q110 0 177.5 -69.5t67.5 -181.5q0 -113 -67.5 -182.5t-177.5 -69.5t-177.5 69.5t-67.5 182.5t67.5 182t177.5 69zM290 700q-100 0 -160.5 -63t-60.5 -165q0 -103 60.5 -166t160.5 -63t160.5 63t60.5 166q0 102 -60.5 165t-160.5 63zM188 635h100q52 0 78.5 -23
t26.5 -65q0 -30 -16.5 -51.5t-44.5 -26.5v-2q16 -4 26 -15.5t20 -38.5l34 -98h-33l-30 89q-9 28 -23.5 39.5t-41.5 11.5h-66v-140h-30v320zM218 607v-124h66q39 0 58.5 17.5t19.5 46.5q0 60 -78 60h-66z" />
    <glyph glyph-name="macron" unicode="&#xaf;" horiz-adv-x="342" 
d="M292 637h-242v32h242v-32z" />
    <glyph glyph-name="degree" unicode="&#xb0;" horiz-adv-x="298" 
d="M149 722q44 0 75 -31t31 -75q0 -43 -31 -74t-75 -31q-43 0 -74 30.5t-31 74.5t30.5 75t74.5 31zM149 693q-31 0 -53.5 -22.5t-22.5 -54.5q0 -31 22.5 -53.5t53.5 -22.5t54 22.5t23 53.5q0 32 -23 54.5t-54 22.5z" />
    <glyph glyph-name="plusminus" unicode="&#xb1;" horiz-adv-x="566" 
d="M300 338h191v-34h-191v-190h-34v190h-191v34h191v192h34v-192zM491 0h-416v34h416v-34z" />
    <glyph glyph-name="twosuperior" unicode="&#xb2;" horiz-adv-x="389" 
d="M198 810q64 0 103.5 -36t39.5 -92q0 -55 -32.5 -88.5t-107.5 -74.5q-76 -43 -101.5 -77t-25.5 -81h277v-31h-309q-2 5 -2 13q0 68 28.5 111t115.5 92q70 39 96 64.5t26 71.5q0 43 -30 69.5t-79 26.5q-53 0 -82 -28t-33 -79h-35q4 64 44.5 101.5t106.5 37.5z" />
    <glyph glyph-name="threesuperior" unicode="&#xb3;" horiz-adv-x="385" 
d="M184 810q69 0 110 -34.5t41 -90.5q0 -85 -87 -113v-1q96 -29 96 -119q0 -57 -44.5 -93.5t-113.5 -36.5q-72 0 -112.5 37.5t-40.5 103.5h35q0 -53 30.5 -81.5t87.5 -28.5q54 0 88.5 28t34.5 71q0 50 -34 76.5t-97 26.5h-25v31h25q58 0 90.5 26t32.5 71q0 43 -32.5 69
t-85.5 26t-82.5 -27t-29.5 -80h-35q0 65 40 102t108 37z" />
    <glyph glyph-name="acute" unicode="&#xb4;" horiz-adv-x="241" 
d="M86 573h-36l93 139h48z" />
    <glyph glyph-name="micro" unicode="&#xb5;" horiz-adv-x="556" 
d="M464 508v-388q0 -54 10.5 -72.5t38.5 -18.5q13 0 24 4v-32q-18 -5 -34 -5q-37 0 -54.5 21.5t-19.5 75.5h-1q-20 -47 -64.5 -74.5t-99.5 -27.5q-104 0 -140 83v-259h-36v693h36v-306q0 -178 142 -178q68 0 115 47.5t47 129.5v307h36z" />
    <glyph glyph-name="paragraph" unicode="&#xb6;" horiz-adv-x="521" 
d="M500 683h-80v-803h-30v803h-91v-803h-30v445h-46q-84 0 -133.5 52.5t-49.5 141.5t49.5 141t133.5 52h277v-29z" />
    <glyph glyph-name="periodcentered" unicode="&#xb7;" horiz-adv-x="171" 
d="M110 266h-49v79h49v-79z" />
    <glyph glyph-name="cedilla" unicode="&#xb8;" horiz-adv-x="289" 
d="M182 0l-44 -66q10 2 21 2q36 0 58 -18.5t22 -50.5q0 -34 -25.5 -56t-71.5 -22q-49 0 -92 25l11 22q36 -20 78 -20q32 0 49.5 13.5t17.5 36.5q0 48 -61 48q-17 0 -32 -5l-13 14l52 77h30z" />
    <glyph glyph-name="onesuperior" unicode="&#xb9;" horiz-adv-x="229" 
d="M148 330h-33v402h-2q-23 -37 -103 -37v28q54 0 79 18t31 61h28v-472z" />
    <glyph glyph-name="ordmasculine" unicode="&#xba;" horiz-adv-x="392" 
d="M196 694q76 0 119.5 -50t43.5 -136q0 -87 -43.5 -136.5t-119.5 -49.5q-75 0 -119 49.5t-44 136.5q0 86 44 136t119 50zM196 665q-60 0 -94.5 -42t-34.5 -115t34.5 -115t94.5 -42q61 0 95.5 41.5t34.5 115.5t-34.5 115.5t-95.5 41.5z" />
    <glyph glyph-name="guillemetright" unicode="&#xbb;" horiz-adv-x="391" 
d="M91 454l114 -200l-114 -200h-38l113 200l-113 200h38zM224 454l114 -200l-114 -200h-38l114 200l-114 200h38z" />
    <glyph glyph-name="onequarter" unicode="&#xbc;" horiz-adv-x="628" 
d="M99 602h-1q-27 -24 -89 -24v29q46 0 68 15t27 52h29v-404h-34v332zM481 674l-394 -674h-40l394 674h40zM619 113h-76v-113h-33v113h-195v35l182 256h46v-260h76v-31zM351 144h159v59v162h-2l-106 -148z" />
    <glyph glyph-name="onehalf" unicode="&#xbd;" horiz-adv-x="663" 
d="M133 270h-34v332h-1q-27 -24 -89 -24v29q46 0 68 15t27 52h29v-404zM87 0h-40l394 674h40zM498 412q55 0 89.5 -31t34.5 -79t-29 -78t-91 -64q-64 -36 -85.5 -63.5t-21.5 -64.5h236v-32h-270v11q0 60 24 97t100 79q40 23 57.5 35t31 32.5t13.5 47.5q0 34 -24.5 55.5
t-64.5 21.5q-87 0 -95 -88h-34q3 56 38 88.5t91 32.5z" />
    <glyph glyph-name="threequarters" unicode="&#xbe;" horiz-adv-x="761" 
d="M299 375q0 -50 -38 -81.5t-98 -31.5q-63 0 -98.5 33t-35.5 90h34q0 -90 100 -90q45 0 73.5 22t28.5 58q0 41 -29 63t-83 22h-20v31h20q48 0 76 22t28 59q0 35 -26 56t-70 21q-45 0 -70 -22.5t-25 -65.5h-35q0 57 35.5 89t95.5 32q59 0 94 -29.5t35 -78.5q0 -70 -72 -97
v-1q80 -24 80 -101zM614 674l-394 -674h-40l394 674h40zM752 113h-76v-113h-33v113h-195v35l182 256h46v-260h76v-31zM484 144h159v59v162h-2l-106 -148z" />
    <glyph glyph-name="questiondown" unicode="&#xbf;" horiz-adv-x="447" 
d="M242 508h45v-80h-45v80zM240 -215q-88 0 -144 49t-56 125q0 54 22 91t90 93q61 52 78.5 91t17.5 129h33v-25q0 -80 -20.5 -122t-83.5 -96q-61 -52 -79.5 -83.5t-18.5 -77.5q0 -62 45 -100.5t116 -38.5q76 0 120.5 41t49.5 118h37q-6 -94 -60 -144t-147 -50z" />
    <glyph glyph-name="Agrave" unicode="&#xc0;" horiz-adv-x="648" 
d="M342 760l-111 130h49l100 -130h-38zM499 250h-351l-102 -250h-40l292 712h51l292 -712h-40zM485 285l-36 88l-125 306h-1l-125 -306l-36 -88h323z" />
    <glyph glyph-name="Aacute" unicode="&#xc1;" horiz-adv-x="648" 
d="M305 760h-37l99 130h50zM499 250h-351l-102 -250h-40l292 712h51l292 -712h-40zM485 285l-36 88l-125 306h-1l-125 -306l-36 -88h323z" />
    <glyph glyph-name="Acircumflex" unicode="&#xc2;" horiz-adv-x="648" 
d="M230 760h-43l117 130h40l118 -130h-43l-95 104zM499 250h-351l-102 -250h-40l292 712h51l292 -712h-40zM485 285l-36 88l-125 306h-1l-125 -306l-36 -88h323z" />
    <glyph glyph-name="Atilde" unicode="&#xc3;" horiz-adv-x="648" 
d="M251 848q-44 0 -49 -60h-31q3 44 24.5 68t55.5 24q31 0 77 -30t69 -30q45 0 50 60h31q-3 -44 -24.5 -68t-55.5 -24q-31 0 -77 30t-70 30zM499 250h-351l-102 -250h-40l292 712h51l292 -712h-40zM485 285l-36 88l-125 306h-1l-125 -306l-36 -88h323z" />
    <glyph glyph-name="Adieresis" unicode="&#xc4;" horiz-adv-x="648" 
d="M250 779h-36v81h36v-81zM433 779h-36v81h36v-81zM499 250h-351l-102 -250h-40l292 712h51l292 -712h-40zM485 285l-36 88l-125 306h-1l-125 -306l-36 -88h323z" />
    <glyph glyph-name="Aring" unicode="&#xc5;" horiz-adv-x="648" 
d="M324 760q-38 0 -64 26t-26 64q0 37 26.5 63.5t63.5 26.5t63.5 -26.5t26.5 -63.5t-26.5 -63.5t-63.5 -26.5zM324 914q-27 0 -45.5 -18.5t-18.5 -45.5t18.5 -45.5t45.5 -18.5t45.5 18.5t18.5 45.5t-18.5 45.5t-45.5 18.5zM499 250h-351l-102 -250h-40l292 712h51l292 -712
h-40zM485 285l-36 88l-125 306h-1l-125 -306l-36 -88h323z" />
    <glyph glyph-name="AE" unicode="&#xc6;" horiz-adv-x="913" 
d="M855 35v-35h-341l-42 268h-296l-140 -268h-42l371 712h477v-35h-396l46 -294h332v-35h-327l49 -313h309zM467 303l-58 374h-19l-196 -374h273z" />
    <glyph glyph-name="Ccedilla" unicode="&#xc7;" horiz-adv-x="671" 
d="M579 237h39q-11 -105 -76 -171.5t-170 -75.5l-37 -56q10 2 21 2q36 0 58 -18.5t22 -50.5q0 -34 -25.5 -56t-71.5 -22q-49 0 -92 25l11 22q36 -20 78 -20q32 0 49.5 13.5t17.5 36.5q0 48 -61 48q-17 0 -32 -5l-13 14l45 66q-137 1 -216 99.5t-79 267.5t81 268t219 99
q119 0 190 -69.5t77 -175.5h-39q-7 93 -67.5 151t-160.5 58q-121 0 -191.5 -89t-70.5 -242t69.5 -242t188.5 -89q98 0 161.5 58.5t74.5 153.5z" />
    <glyph glyph-name="Egrave" unicode="&#xc8;" horiz-adv-x="597" 
d="M272 890l100 -130h-38l-111 130h49zM527 677h-386v-294h368v-35h-368v-313h399v-35h-436v712h423v-35z" />
    <glyph glyph-name="Eacute" unicode="&#xc9;" horiz-adv-x="597" 
d="M296 760h-37l99 130h50zM527 677h-386v-294h368v-35h-368v-313h399v-35h-436v712h423v-35z" />
    <glyph glyph-name="Ecircumflex" unicode="&#xca;" horiz-adv-x="597" 
d="M295 890h40l118 -130h-43l-95 104l-94 -104h-43zM527 677h-386v-294h368v-35h-368v-313h399v-35h-436v712h423v-35z" />
    <glyph glyph-name="Edieresis" unicode="&#xcb;" horiz-adv-x="597" 
d="M242 779h-36v81h36v-81zM425 779h-36v81h36v-81zM527 677h-386v-294h368v-35h-368v-313h399v-35h-436v712h423v-35z" />
    <glyph glyph-name="Igrave" unicode="&#xcc;" horiz-adv-x="245" 
d="M79 890l100 -130h-38l-111 130h49zM141 0h-37v712h37v-712z" />
    <glyph glyph-name="Iacute" unicode="&#xcd;" horiz-adv-x="245" 
d="M103 760h-37l99 130h50zM141 0h-37v712h37v-712z" />
    <glyph glyph-name="Icircumflex" unicode="&#xce;" horiz-adv-x="245" 
d="M102 890h40l118 -130h-43l-95 104l-94 -104h-43zM141 0h-37v712h37v-712z" />
    <glyph glyph-name="Idieresis" unicode="&#xcf;" horiz-adv-x="245" 
d="M49 779h-36v81h36v-81zM232 779h-36v81h36v-81zM141 0h-37v712h37v-712z" />
    <glyph glyph-name="Eth" unicode="&#xd0;" 
d="M104 712h200q174 0 268 -92.5t94 -263.5t-94 -263.5t-268 -92.5h-200v344h-63v33h63v335zM141 35h163q156 0 239.5 83t83.5 238t-83.5 238t-239.5 83h-163v-300h240v-33h-240v-309z" />
    <glyph glyph-name="Ntilde" unicode="&#xd1;" horiz-adv-x="730" 
d="M488 880h31q-3 -44 -24.5 -68t-55.5 -24q-31 0 -77 30t-70 30q-44 0 -49 -60h-31q3 44 24.5 68t55.5 24q31 0 77 -30t69 -30q45 0 50 60zM627 0h-59l-205 326l-221 349h-1v-373v-302h-37v712h58l205 -326l221 -349h1v373v302h38v-712z" />
    <glyph glyph-name="Ograve" unicode="&#xd2;" 
d="M312 890l100 -130h-38l-111 130h49zM356 723q142 0 225.5 -99.5t83.5 -267.5t-83.5 -267.5t-225.5 -99.5t-225.5 99.5t-83.5 267.5t83.5 267.5t225.5 99.5zM356 687q-124 0 -197.5 -90t-73.5 -241t73.5 -241t197.5 -90t197 89.5t73 241.5t-73 241.5t-197 89.5z" />
    <glyph glyph-name="Oacute" unicode="&#xd3;" 
d="M337 760h-37l99 130h50zM356 723q142 0 225.5 -99.5t83.5 -267.5t-83.5 -267.5t-225.5 -99.5t-225.5 99.5t-83.5 267.5t83.5 267.5t225.5 99.5zM356 687q-124 0 -197.5 -90t-73.5 -241t73.5 -241t197.5 -90t197 89.5t73 241.5t-73 241.5t-197 89.5z" />
    <glyph glyph-name="Ocircumflex" unicode="&#xd4;" 
d="M336 890h40l118 -130h-43l-95 104l-94 -104h-43zM356 723q142 0 225.5 -99.5t83.5 -267.5t-83.5 -267.5t-225.5 -99.5t-225.5 99.5t-83.5 267.5t83.5 267.5t225.5 99.5zM356 687q-124 0 -197.5 -90t-73.5 -241t73.5 -241t197.5 -90t197 89.5t73 241.5t-73 241.5
t-197 89.5z" />
    <glyph glyph-name="Otilde" unicode="&#xd5;" 
d="M479 880h31q-3 -44 -24.5 -68t-55.5 -24q-31 0 -77 30t-70 30q-44 0 -49 -60h-31q3 44 24.5 68t55.5 24q31 0 77 -30t69 -30q45 0 50 60zM356 723q142 0 225.5 -99.5t83.5 -267.5t-83.5 -267.5t-225.5 -99.5t-225.5 99.5t-83.5 267.5t83.5 267.5t225.5 99.5zM356 687
q-124 0 -197.5 -90t-73.5 -241t73.5 -241t197.5 -90t197 89.5t73 241.5t-73 241.5t-197 89.5z" />
    <glyph glyph-name="Odieresis" unicode="&#xd6;" 
d="M282 779h-36v81h36v-81zM465 779h-36v81h36v-81zM356 723q142 0 225.5 -99.5t83.5 -267.5t-83.5 -267.5t-225.5 -99.5t-225.5 99.5t-83.5 267.5t83.5 267.5t225.5 99.5zM356 687q-124 0 -197.5 -90t-73.5 -241t73.5 -241t197.5 -90t197 89.5t73 241.5t-73 241.5
t-197 89.5z" />
    <glyph glyph-name="multiply" unicode="&#xd7;" horiz-adv-x="566" 
d="M510 510l-204 -204l204 -204l-23 -23l-204 204l-203 -203l-23 23l203 203l-203 203l23 23l203 -203l204 204z" />
    <glyph glyph-name="Oslash" unicode="&#xd8;" 
d="M647 710l-66 -86q84 -100 84 -268t-83.5 -267.5t-225.5 -99.5q-122 0 -201 74l-62 -81l-27 21l65 85q-84 100 -84 268t83.5 267.5t225.5 99.5q122 0 201 -74l62 81zM85 356q0 -147 70 -236l379 498q-72 69 -178 69q-124 0 -197.5 -90t-73.5 -241zM356 25q124 0 197 89.5
t73 241.5q0 147 -69 236l-379 -498q71 -69 178 -69z" />
    <glyph glyph-name="Ugrave" unicode="&#xd9;" horiz-adv-x="684" 
d="M298 890l100 -130h-38l-111 130h49zM586 712v-450q0 -134 -62.5 -203.5t-181.5 -69.5t-181.5 69.5t-62.5 203.5v450h37v-450q0 -118 53.5 -177.5t153.5 -59.5t153.5 59.5t53.5 177.5v450h37z" />
    <glyph glyph-name="Uacute" unicode="&#xda;" horiz-adv-x="684" 
d="M323 760h-37l99 130h50zM586 712v-450q0 -134 -62.5 -203.5t-181.5 -69.5t-181.5 69.5t-62.5 203.5v450h37v-450q0 -118 53.5 -177.5t153.5 -59.5t153.5 59.5t53.5 177.5v450h37z" />
    <glyph glyph-name="Ucircumflex" unicode="&#xdb;" horiz-adv-x="684" 
d="M322 890h40l118 -130h-43l-95 104l-94 -104h-43zM586 712v-450q0 -134 -62.5 -203.5t-181.5 -69.5t-181.5 69.5t-62.5 203.5v450h37v-450q0 -118 53.5 -177.5t153.5 -59.5t153.5 59.5t53.5 177.5v450h37z" />
    <glyph glyph-name="Udieresis" unicode="&#xdc;" horiz-adv-x="684" 
d="M268 779h-36v81h36v-81zM451 779h-36v81h36v-81zM586 712v-450q0 -134 -62.5 -203.5t-181.5 -69.5t-181.5 69.5t-62.5 203.5v450h37v-450q0 -118 53.5 -177.5t153.5 -59.5t153.5 59.5t53.5 177.5v450h37z" />
    <glyph glyph-name="Yacute" unicode="&#xdd;" horiz-adv-x="585" 
d="M273 760h-37l99 130h50zM311 312v-312h-37v312l-268 400h45l108 -163l132 -199h2l134 201l107 161h45z" />
    <glyph glyph-name="Thorn" unicode="&#xde;" horiz-adv-x="589" 
d="M141 566h191q110 0 168.5 -53.5t58.5 -143.5t-58.5 -143.5t-168.5 -53.5h-191v-172h-37v712h37v-146zM141 531v-324h191q92 0 140 43.5t48 118.5t-48 118.5t-140 43.5h-191z" />
    <glyph glyph-name="germandbls" unicode="&#xdf;" horiz-adv-x="537" 
d="M275 723q83 0 133 -46t50 -121q0 -122 -119 -153v-1q69 -11 111.5 -61t42.5 -135q0 -100 -61 -156t-172 -56q-31 0 -55 7v34q22 -7 55 -7q93 0 144.5 47t51.5 131q0 83 -48.5 130.5t-131.5 47.5h-16v35q81 0 121 36t40 99q0 62 -39.5 99t-106.5 37q-73 0 -112 -47
t-39 -135v-508h-36v509q0 102 48.5 158t138.5 56z" />
    <glyph glyph-name="agrave" unicode="&#xe0;" horiz-adv-x="508" 
d="M202 712l92 -139h-36l-105 139h49zM249 519q82 0 130 -47t48 -142v-211q0 -72 10 -119h-34q-8 42 -8 96h-1q-54 -106 -186 -106q-76 0 -122 39.5t-46 103.5q0 62 42 99t141 52q96 14 169 20v29q0 78 -38.5 116t-104.5 38q-70 0 -108.5 -36t-42.5 -96h-37q5 75 54 119.5
t134 44.5zM392 219v53q-81 -7 -165 -20q-82 -12 -116 -40.5t-34 -77.5q0 -51 37 -81.5t100 -30.5q82 0 129 52q28 30 38.5 60t10.5 85z" />
    <glyph glyph-name="aacute" unicode="&#xe1;" horiz-adv-x="508" 
d="M226 573h-36l93 139h48zM249 519q82 0 130 -47t48 -142v-211q0 -72 10 -119h-34q-8 42 -8 96h-1q-54 -106 -186 -106q-76 0 -122 39.5t-46 103.5q0 62 42 99t141 52q96 14 169 20v29q0 78 -38.5 116t-104.5 38q-70 0 -108.5 -36t-42.5 -96h-37q5 75 54 119.5t134 44.5z
M392 219v53q-81 -7 -165 -20q-82 -12 -116 -40.5t-34 -77.5q0 -51 37 -81.5t100 -30.5q82 0 129 52q28 30 38.5 60t10.5 85z" />
    <glyph glyph-name="acircumflex" unicode="&#xe2;" horiz-adv-x="508" 
d="M336 573l-94 113l-95 -113h-42l117 139h40l117 -139h-43zM249 519q82 0 130 -47t48 -142v-211q0 -72 10 -119h-34q-8 42 -8 96h-1q-54 -106 -186 -106q-76 0 -122 39.5t-46 103.5q0 62 42 99t141 52q96 14 169 20v29q0 78 -38.5 116t-104.5 38q-70 0 -108.5 -36
t-42.5 -96h-37q5 75 54 119.5t134 44.5zM392 219v53q-81 -7 -165 -20q-82 -12 -116 -40.5t-34 -77.5q0 -51 37 -81.5t100 -30.5q82 0 129 52q28 30 38.5 60t10.5 85z" />
    <glyph glyph-name="atilde" unicode="&#xe3;" horiz-adv-x="508" 
d="M365 702h31q-3 -44 -24.5 -68t-55.5 -24q-31 0 -77 30t-70 30q-44 0 -49 -60h-31q3 44 24.5 68t55.5 24q31 0 77 -30t69 -30q45 0 50 60zM249 519q82 0 130 -47t48 -142v-211q0 -72 10 -119h-34q-8 42 -8 96h-1q-54 -106 -186 -106q-76 0 -122 39.5t-46 103.5q0 62 42 99
t141 52q96 14 169 20v29q0 78 -38.5 116t-104.5 38q-70 0 -108.5 -36t-42.5 -96h-37q5 75 54 119.5t134 44.5zM392 219v53q-81 -7 -165 -20q-82 -12 -116 -40.5t-34 -77.5q0 -51 37 -81.5t100 -30.5q82 0 129 52q28 30 38.5 60t10.5 85z" />
    <glyph glyph-name="adieresis" unicode="&#xe4;" horiz-adv-x="508" 
d="M168 631h-36v81h36v-81zM351 631h-36v81h36v-81zM249 519q82 0 130 -47t48 -142v-211q0 -72 10 -119h-34q-8 42 -8 96h-1q-54 -106 -186 -106q-76 0 -122 39.5t-46 103.5q0 62 42 99t141 52q96 14 169 20v29q0 78 -38.5 116t-104.5 38q-70 0 -108.5 -36t-42.5 -96h-37
q5 75 54 119.5t134 44.5zM392 219v53q-81 -7 -165 -20q-82 -12 -116 -40.5t-34 -77.5q0 -51 37 -81.5t100 -30.5q82 0 129 52q28 30 38.5 60t10.5 85z" />
    <glyph glyph-name="aring" unicode="&#xe5;" horiz-adv-x="508" 
d="M242 762q37 0 63.5 -26.5t26.5 -63.5t-26.5 -63.5t-63.5 -26.5q-38 0 -64 26t-26 64t26 64t64 26zM242 736q-27 0 -45.5 -18.5t-18.5 -45.5t18.5 -45.5t45.5 -18.5t45.5 18.5t18.5 45.5t-18.5 45.5t-45.5 18.5zM249 519q82 0 130 -47t48 -142v-211q0 -72 10 -119h-34
q-8 42 -8 96h-1q-54 -106 -186 -106q-76 0 -122 39.5t-46 103.5q0 62 42 99t141 52q96 14 169 20v29q0 78 -38.5 116t-104.5 38q-70 0 -108.5 -36t-42.5 -96h-37q5 75 54 119.5t134 44.5zM392 219v53q-81 -7 -165 -20q-82 -12 -116 -40.5t-34 -77.5q0 -51 37 -81.5
t100 -30.5q82 0 129 52q28 30 38.5 60t10.5 85z" />
    <glyph glyph-name="ae" unicode="&#xe6;" horiz-adv-x="833" 
d="M592 21q61 0 101.5 35t49.5 94h38q-10 -71 -60 -116t-129 -45q-67 0 -114.5 38.5t-70.5 108.5q-18 -69 -72.5 -108t-128.5 -39t-120 39.5t-46 104.5q0 150 217 150h130v50q0 78 -37 116t-103 38t-105.5 -36.5t-43.5 -95.5h-37q5 74 55 119t131 45q136 0 165 -124
q23 59 67.5 91.5t106.5 32.5q76 0 128.5 -49.5t66.5 -133.5q6 -37 6 -85h-367q1 -108 48 -169t124 -61zM586 487q-74 0 -118.5 -55.5t-47.5 -148.5h331q-2 96 -47.5 150t-117.5 54zM387 251h-127q-97 0 -140 -29t-43 -88q0 -52 36.5 -82.5t98.5 -30.5q82 0 130 54
q26 29 35.5 59t9.5 85v32z" />
    <glyph glyph-name="ccedilla" unicode="&#xe7;" horiz-adv-x="505" 
d="M266 22q66 0 109.5 42.5t49.5 108.5h38q-6 -73 -50.5 -122.5t-114.5 -59.5l-38 -57q10 2 21 2q36 0 58 -18.5t22 -50.5q0 -34 -25.5 -56t-71.5 -22q-49 0 -92 25l11 22q36 -20 78 -20q32 0 49.5 13.5t17.5 36.5q0 48 -61 48q-17 0 -32 -5l-13 14l44 66
q-102 0 -160.5 70.5t-58.5 194.5t58.5 194.5t160.5 70.5q82 0 136 -49.5t61 -129.5h-38q-5 65 -49 105.5t-110 40.5q-85 0 -133.5 -61.5t-48.5 -170.5t48.5 -170.5t133.5 -61.5z" />
    <glyph glyph-name="egrave" unicode="&#xe8;" horiz-adv-x="526" 
d="M278 573l-105 139h49l92 -139h-36zM270 21q67 0 111.5 35t54.5 94h38q-12 -71 -66 -116t-138 -45q-103 0 -163 74.5t-60 200.5q0 115 58.5 185t158.5 70q83 0 138.5 -49t70.5 -134q6 -30 6 -85h-396q1 -108 52 -169t135 -61zM264 487q-81 0 -129 -55.5t-52 -148.5h361
q-3 96 -52 150t-128 54z" />
    <glyph glyph-name="eacute" unicode="&#xe9;" horiz-adv-x="526" 
d="M246 573h-36l93 139h48zM270 21q67 0 111.5 35t54.5 94h38q-12 -71 -66 -116t-138 -45q-103 0 -163 74.5t-60 200.5q0 115 58.5 185t158.5 70q83 0 138.5 -49t70.5 -134q6 -30 6 -85h-396q1 -108 52 -169t135 -61zM264 487q-81 0 -129 -55.5t-52 -148.5h361
q-3 96 -52 150t-128 54z" />
    <glyph glyph-name="ecircumflex" unicode="&#xea;" horiz-adv-x="526" 
d="M168 573h-42l117 139h40l117 -139h-43l-94 113zM270 21q67 0 111.5 35t54.5 94h38q-12 -71 -66 -116t-138 -45q-103 0 -163 74.5t-60 200.5q0 115 58.5 185t158.5 70q83 0 138.5 -49t70.5 -134q6 -30 6 -85h-396q1 -108 52 -169t135 -61zM264 487q-81 0 -129 -55.5
t-52 -148.5h361q-3 96 -52 150t-128 54z" />
    <glyph glyph-name="edieresis" unicode="&#xeb;" horiz-adv-x="526" 
d="M189 631h-36v81h36v-81zM372 631h-36v81h36v-81zM270 21q67 0 111.5 35t54.5 94h38q-12 -71 -66 -116t-138 -45q-103 0 -163 74.5t-60 200.5q0 115 58.5 185t158.5 70q83 0 138.5 -49t70.5 -134q6 -30 6 -85h-396q1 -108 52 -169t135 -61zM264 487q-81 0 -129 -55.5
t-52 -148.5h361q-3 96 -52 150t-128 54z" />
    <glyph glyph-name="igrave" unicode="&#xec;" horiz-adv-x="211" 
d="M66 712l92 -139h-36l-105 139h49zM124 0h-36v508h36v-508z" />
    <glyph glyph-name="iacute" unicode="&#xed;" horiz-adv-x="211" 
d="M90 573h-36l93 139h48zM124 0h-36v508h36v-508z" />
    <glyph glyph-name="icircumflex" unicode="&#xee;" horiz-adv-x="211" 
d="M224 574h-41l-77 112l-77 -112h-42l97 138h43zM124 0h-36v508h36v-508z" />
    <glyph glyph-name="idieresis" unicode="&#xef;" horiz-adv-x="211" 
d="M52 635h-36v77h36v-77zM195 635h-36v77h36v-77zM124 0h-36v508h36v-508z" />
    <glyph glyph-name="eth" unicode="&#xf0;" horiz-adv-x="539" 
d="M382 542q111 -138 111 -288q0 -124 -60 -194.5t-164 -70.5q-103 0 -162.5 70.5t-59.5 193.5t58.5 193t160.5 70q80 0 135 -55v2q-51 78 -143 159l-131 -67l-13 27l119 61q-25 21 -77 59l23 21q42 -28 85 -65l120 62l13 -28l-109 -55q60 -53 94 -95zM269 22
q88 0 137.5 61.5t49.5 169.5t-49.5 169.5t-137.5 61.5q-86 0 -135.5 -61.5t-49.5 -169.5t49.5 -169.5t135.5 -61.5z" />
    <glyph glyph-name="ntilde" unicode="&#xf1;" horiz-adv-x="549" 
d="M399 702h31q-3 -44 -24.5 -68t-55.5 -24q-31 0 -77 30t-70 30q-44 0 -49 -60h-31q3 44 24.5 68t55.5 24q31 0 77 -30t69 -30q45 0 50 60zM291 518q85 0 131 -52.5t46 -156.5v-309h-36v308q0 178 -145 178q-68 0 -115.5 -48t-47.5 -127v-311h-36v508h36v-91h1
q22 47 66.5 74t99.5 27z" />
    <glyph glyph-name="ograve" unicode="&#xf2;" horiz-adv-x="539" 
d="M229 712l92 -139h-36l-105 139h49zM269 519q104 0 163.5 -70.5t59.5 -194.5t-59.5 -194.5t-163.5 -70.5t-163 70.5t-59 194.5t59 194.5t163 70.5zM269 486q-87 0 -136 -61.5t-49 -170.5t49 -170.5t136 -61.5q88 0 137 61.5t49 170.5t-49 170.5t-137 61.5z" />
    <glyph glyph-name="oacute" unicode="&#xf3;" horiz-adv-x="539" 
d="M253 573h-36l93 139h48zM269 519q104 0 163.5 -70.5t59.5 -194.5t-59.5 -194.5t-163.5 -70.5t-163 70.5t-59 194.5t59 194.5t163 70.5zM269 486q-87 0 -136 -61.5t-49 -170.5t49 -170.5t136 -61.5q88 0 137 61.5t49 170.5t-49 170.5t-137 61.5z" />
    <glyph glyph-name="ocircumflex" unicode="&#xf4;" horiz-adv-x="539" 
d="M364 573l-94 113l-95 -113h-42l117 139h40l117 -139h-43zM269 519q104 0 163.5 -70.5t59.5 -194.5t-59.5 -194.5t-163.5 -70.5t-163 70.5t-59 194.5t59 194.5t163 70.5zM269 486q-87 0 -136 -61.5t-49 -170.5t49 -170.5t136 -61.5q88 0 137 61.5t49 170.5t-49 170.5
t-137 61.5z" />
    <glyph glyph-name="otilde" unicode="&#xf5;" horiz-adv-x="539" 
d="M392 702h31q-3 -44 -24.5 -68t-55.5 -24q-31 0 -77 30t-70 30q-44 0 -49 -60h-31q3 44 24.5 68t55.5 24q31 0 77 -30t69 -30q45 0 50 60zM269 519q104 0 163.5 -70.5t59.5 -194.5t-59.5 -194.5t-163.5 -70.5t-163 70.5t-59 194.5t59 194.5t163 70.5zM269 486
q-87 0 -136 -61.5t-49 -170.5t49 -170.5t136 -61.5q88 0 137 61.5t49 170.5t-49 170.5t-137 61.5z" />
    <glyph glyph-name="odieresis" unicode="&#xf6;" horiz-adv-x="539" 
d="M196 631h-36v81h36v-81zM379 631h-36v81h36v-81zM269 519q104 0 163.5 -70.5t59.5 -194.5t-59.5 -194.5t-163.5 -70.5t-163 70.5t-59 194.5t59 194.5t163 70.5zM269 486q-87 0 -136 -61.5t-49 -170.5t49 -170.5t136 -61.5q88 0 137 61.5t49 170.5t-49 170.5t-137 61.5z
" />
    <glyph glyph-name="divide" unicode="&#xf7;" horiz-adv-x="566" 
d="M302 438h-38v65h38v-65zM491 300h-416v34h416v-34zM302 131h-38v65h38v-65z" />
    <glyph glyph-name="oslash" unicode="&#xf8;" horiz-adv-x="539" 
d="M490 518l-55 -72q58 -70 58 -192q0 -124 -60 -194.5t-164 -70.5q-87 0 -144 51l-51 -68l-25 19l54 72q-56 72 -56 191q0 124 59 194.5t163 70.5q86 0 144 -50l52 68zM269 486q-86 0 -135.5 -61.5t-49.5 -170.5q0 -99 42 -161l266 347q-48 46 -123 46zM269 22
q88 0 137.5 61.5t49.5 170.5q0 100 -44 163l-265 -349q48 -46 122 -46z" />
    <glyph glyph-name="ugrave" unicode="&#xf9;" horiz-adv-x="549" 
d="M235 712l92 -139h-36l-105 139h49zM258 -10q-85 0 -130.5 52.5t-45.5 156.5v309h36v-308q0 -178 144 -178q68 0 116 48t48 127v311h36v-508h-36v91h-2q-23 -47 -67 -74t-99 -27z" />
    <glyph glyph-name="uacute" unicode="&#xfa;" horiz-adv-x="549" 
d="M259 573h-36l93 139h48zM258 -10q-85 0 -130.5 52.5t-45.5 156.5v309h36v-308q0 -178 144 -178q68 0 116 48t48 127v311h36v-508h-36v91h-2q-23 -47 -67 -74t-99 -27z" />
    <glyph glyph-name="ucircumflex" unicode="&#xfb;" horiz-adv-x="549" 
d="M369 573l-94 113l-95 -113h-42l117 139h40l117 -139h-43zM258 -10q-85 0 -130.5 52.5t-45.5 156.5v309h36v-308q0 -178 144 -178q68 0 116 48t48 127v311h36v-508h-36v91h-2q-23 -47 -67 -74t-99 -27z" />
    <glyph glyph-name="udieresis" unicode="&#xfc;" horiz-adv-x="549" 
d="M201 631h-36v81h36v-81zM384 631h-36v81h36v-81zM258 -10q-85 0 -130.5 52.5t-45.5 156.5v309h36v-308q0 -178 144 -178q68 0 116 48t48 127v311h36v-508h-36v91h-2q-23 -47 -67 -74t-99 -27z" />
    <glyph glyph-name="yacute" unicode="&#xfd;" horiz-adv-x="442" 
d="M205 573h-36l93 139h48zM443 508l-211 -523q-42 -104 -80 -139t-103 -35q-21 0 -38 6v33q17 -6 38 -6q53 0 83 30t68 125l-201 509h39l180 -461h1l185 461h39z" />
    <glyph glyph-name="thorn" unicode="&#xfe;" horiz-adv-x="554" 
d="M124 400h1q20 56 64.5 87.5t104.5 31.5q98 0 155.5 -71t57.5 -194q0 -122 -57.5 -193t-155.5 -71q-60 0 -104.5 31.5t-64.5 87.5h-1v-294h-36v897h36v-312zM290 487q-77 0 -122.5 -62.5t-45.5 -170.5q0 -107 45.5 -169.5t122.5 -62.5q83 0 131.5 62.5t48.5 169.5
q0 108 -48.5 170.5t-131.5 62.5z" />
    <glyph glyph-name="ydieresis" unicode="&#xff;" horiz-adv-x="442" 
d="M148 631h-36v81h36v-81zM331 631h-36v81h36v-81zM443 508l-211 -523q-42 -104 -80 -139t-103 -35q-21 0 -38 6v33q17 -6 38 -6q53 0 83 30t68 125l-201 509h39l180 -461h1l185 461h39z" />
    <glyph glyph-name="Amacron" unicode="&#x100;" horiz-adv-x="648" 
d="M445 798h-242v32h242v-32zM499 250h-351l-102 -250h-40l292 712h51l292 -712h-40zM485 285l-36 88l-125 306h-1l-125 -306l-36 -88h323z" />
    <glyph glyph-name="amacron" unicode="&#x101;" horiz-adv-x="508" 
d="M363 637h-242v32h242v-32zM249 519q82 0 130 -47t48 -142v-211q0 -72 10 -119h-34q-8 42 -8 96h-1q-54 -106 -186 -106q-76 0 -122 39.5t-46 103.5q0 62 42 99t141 52q96 14 169 20v29q0 78 -38.5 116t-104.5 38q-70 0 -108.5 -36t-42.5 -96h-37q5 75 54 119.5t134 44.5z
M392 219v53q-81 -7 -165 -20q-82 -12 -116 -40.5t-34 -77.5q0 -51 37 -81.5t100 -30.5q82 0 129 52q28 30 38.5 60t10.5 85z" />
    <glyph glyph-name="Abreve" unicode="&#x102;" horiz-adv-x="648" 
d="M324 758q-64 0 -101 34.5t-43 97.5h32q12 -101 112 -101t112 101h32q-6 -63 -43 -97.5t-101 -34.5zM499 250h-351l-102 -250h-40l292 712h51l292 -712h-40zM485 285l-36 88l-125 306h-1l-125 -306l-36 -88h323z" />
    <glyph glyph-name="abreve" unicode="&#x103;" horiz-adv-x="508" 
d="M354 712h32q-6 -63 -43.5 -97.5t-100.5 -34.5t-100.5 34.5t-43.5 97.5h32q12 -101 112 -101t112 101zM249 519q82 0 130 -47t48 -142v-211q0 -72 10 -119h-34q-8 42 -8 96h-1q-54 -106 -186 -106q-76 0 -122 39.5t-46 103.5q0 62 42 99t141 52q96 14 169 20v29
q0 78 -38.5 116t-104.5 38q-70 0 -108.5 -36t-42.5 -96h-37q5 75 54 119.5t134 44.5zM392 219v53q-81 -7 -165 -20q-82 -12 -116 -40.5t-34 -77.5q0 -51 37 -81.5t100 -30.5q82 0 129 52q28 30 38.5 60t10.5 85z" />
    <glyph glyph-name="Aogonek" unicode="&#x104;" horiz-adv-x="648" 
d="M608 -161q21 0 36 6v-29q-15 -6 -39 -6q-81 0 -81 70q0 32 18 59t59 61l-102 250h-351l-102 -250h-40l292 712h51l292 -712q-46 -37 -64 -63t-18 -54q0 -44 49 -44zM485 285l-36 88l-125 306h-1l-125 -306l-36 -88h323z" />
    <glyph glyph-name="aogonek" unicode="&#x105;" horiz-adv-x="508" 
d="M404 -161q21 0 36 6v-29q-15 -6 -39 -6q-81 0 -81 70q0 33 19 60.5t63 63.5q-7 46 -7 92h-1q-54 -106 -186 -106q-76 0 -122 39.5t-46 103.5q0 62 42 99t141 52q96 14 169 20v29q0 78 -38.5 116t-104.5 38q-70 0 -108.5 -36t-42.5 -96h-37q5 75 54 119.5t134 44.5
q82 0 130 -47t48 -142v-211q0 -72 10 -119q-46 -37 -64 -63t-18 -54q0 -44 49 -44zM392 219v53q-81 -7 -165 -20q-82 -12 -116 -40.5t-34 -77.5q0 -51 37 -81.5t100 -30.5q82 0 129 52q28 30 38.5 60t10.5 85z" />
    <glyph glyph-name="Cacute" unicode="&#x106;" horiz-adv-x="671" 
d="M328 760h-37l99 130h50zM347 723q119 0 190 -69.5t77 -175.5h-39q-7 93 -67.5 151t-160.5 58q-121 0 -191.5 -89t-70.5 -242t69.5 -242t188.5 -89q98 0 161.5 58.5t74.5 153.5h39q-11 -112 -84.5 -180t-190.5 -68q-137 0 -216.5 98.5t-79.5 268.5q0 169 81 268t219 99z
" />
    <glyph glyph-name="cacute" unicode="&#x107;" horiz-adv-x="505" 
d="M250 573h-36l93 139h48zM266 519q82 0 136 -49.5t61 -129.5h-38q-5 65 -49 105.5t-110 40.5q-85 0 -133.5 -61.5t-48.5 -170.5t48.5 -170.5t133.5 -61.5q66 0 109.5 42.5t49.5 108.5h38q-7 -82 -61 -133t-136 -51q-102 0 -160.5 70.5t-58.5 194.5t58.5 194.5t160.5 70.5z
" />
    <glyph glyph-name="Ccircumflex" unicode="&#x108;" horiz-adv-x="671" 
d="M327 890h40l118 -130h-43l-95 104l-94 -104h-43zM347 723q119 0 190 -69.5t77 -175.5h-39q-7 93 -67.5 151t-160.5 58q-121 0 -191.5 -89t-70.5 -242t69.5 -242t188.5 -89q98 0 161.5 58.5t74.5 153.5h39q-11 -112 -84.5 -180t-190.5 -68q-137 0 -216.5 98.5t-79.5 268.5
q0 169 81 268t219 99z" />
    <glyph glyph-name="ccircumflex" unicode="&#x109;" horiz-adv-x="505" 
d="M361 573l-94 113l-95 -113h-42l117 139h40l117 -139h-43zM266 519q82 0 136 -49.5t61 -129.5h-38q-5 65 -49 105.5t-110 40.5q-85 0 -133.5 -61.5t-48.5 -170.5t48.5 -170.5t133.5 -61.5q66 0 109.5 42.5t49.5 108.5h38q-7 -82 -61 -133t-136 -51q-102 0 -160.5 70.5
t-58.5 194.5t58.5 194.5t160.5 70.5z" />
    <glyph glyph-name="Cdotaccent" unicode="&#x10a;" horiz-adv-x="671" 
d="M365 769h-36v81h36v-81zM347 723q119 0 190 -69.5t77 -175.5h-39q-7 93 -67.5 151t-160.5 58q-121 0 -191.5 -89t-70.5 -242t69.5 -242t188.5 -89q98 0 161.5 58.5t74.5 153.5h39q-11 -112 -84.5 -180t-190.5 -68q-137 0 -216.5 98.5t-79.5 268.5q0 169 81 268t219 99z
" />
    <glyph glyph-name="cdotaccent" unicode="&#x10b;" horiz-adv-x="505" 
d="M284 631h-36v81h36v-81zM266 519q82 0 136 -49.5t61 -129.5h-38q-5 65 -49 105.5t-110 40.5q-85 0 -133.5 -61.5t-48.5 -170.5t48.5 -170.5t133.5 -61.5q66 0 109.5 42.5t49.5 108.5h38q-7 -82 -61 -133t-136 -51q-102 0 -160.5 70.5t-58.5 194.5t58.5 194.5t160.5 70.5z
" />
    <glyph glyph-name="Ccaron" unicode="&#x10c;" horiz-adv-x="671" 
d="M367 760h-40l-117 130h43l94 -104l95 104h43zM347 723q119 0 190 -69.5t77 -175.5h-39q-7 93 -67.5 151t-160.5 58q-121 0 -191.5 -89t-70.5 -242t69.5 -242t188.5 -89q98 0 161.5 58.5t74.5 153.5h39q-11 -112 -84.5 -180t-190.5 -68q-137 0 -216.5 98.5t-79.5 268.5
q0 169 81 268t219 99z" />
    <glyph glyph-name="ccaron" unicode="&#x10d;" horiz-adv-x="505" 
d="M287 573h-40l-117 139h42l95 -113l94 113h43zM266 519q82 0 136 -49.5t61 -129.5h-38q-5 65 -49 105.5t-110 40.5q-85 0 -133.5 -61.5t-48.5 -170.5t48.5 -170.5t133.5 -61.5q66 0 109.5 42.5t49.5 108.5h38q-7 -82 -61 -133t-136 -51q-102 0 -160.5 70.5t-58.5 194.5
t58.5 194.5t160.5 70.5z" />
    <glyph glyph-name="Dcaron" unicode="&#x10e;" 
d="M343 760h-40l-117 130h43l94 -104l95 104h43zM104 712h200q174 0 268 -92.5t94 -263.5t-94 -263.5t-268 -92.5h-200v712zM141 677v-642h163q156 0 239.5 83t83.5 238t-83.5 238t-239.5 83h-163z" />
    <glyph glyph-name="dcaron" unicode="&#x10f;" horiz-adv-x="554" 
d="M466 0h-36v109h-1q-20 -56 -64.5 -87.5t-104.5 -31.5q-98 0 -155.5 71t-57.5 193q0 123 57.5 194t155.5 71q60 0 104.5 -31.5t64.5 -87.5h1v312h36v-712zM541 537h-26l36 175h39zM263 487q-83 0 -131 -62.5t-48 -170.5q0 -107 48 -169.5t131 -62.5q78 0 123.5 62.5
t45.5 169.5q0 108 -45.5 170.5t-123.5 62.5z" />
    <glyph glyph-name="Dcroat" unicode="&#x110;" 
d="M104 712h200q174 0 268 -92.5t94 -263.5t-94 -263.5t-268 -92.5h-200v344h-63v33h63v335zM141 35h163q156 0 239.5 83t83.5 238t-83.5 238t-239.5 83h-163v-300h240v-33h-240v-309z" />
    <glyph glyph-name="dcroat" unicode="&#x111;" horiz-adv-x="551" 
d="M526 590h-60v-590h-36v109h-1q-20 -56 -64.5 -87.5t-104.5 -31.5q-98 0 -155.5 71t-57.5 193q0 123 57.5 194t155.5 71q60 0 104.5 -31.5t64.5 -87.5h1v190h-147v30h147v92h36v-92h60v-30zM263 22q78 0 123.5 62.5t45.5 169.5q0 108 -45.5 170.5t-123.5 62.5
q-83 0 -131 -62.5t-48 -170.5q0 -107 48 -169.5t131 -62.5z" />
    <glyph glyph-name="Emacron" unicode="&#x112;" horiz-adv-x="597" 
d="M436 798h-242v32h242v-32zM527 677h-386v-294h368v-35h-368v-313h399v-35h-436v712h423v-35z" />
    <glyph glyph-name="emacron" unicode="&#x113;" horiz-adv-x="526" 
d="M383 637h-242v32h242v-32zM270 21q67 0 111.5 35t54.5 94h38q-12 -71 -66 -116t-138 -45q-103 0 -163 74.5t-60 200.5q0 115 58.5 185t158.5 70q83 0 138.5 -49t70.5 -134q6 -30 6 -85h-396q1 -108 52 -169t135 -61zM264 487q-81 0 -129 -55.5t-52 -148.5h361
q-3 96 -52 150t-128 54z" />
    <glyph glyph-name="Ebreve" unicode="&#x114;" horiz-adv-x="597" 
d="M427 890h32q-6 -63 -43.5 -97.5t-100.5 -34.5t-100.5 34.5t-43.5 97.5h32q12 -101 112 -101t112 101zM527 677h-386v-294h368v-35h-368v-313h399v-35h-436v712h423v-35z" />
    <glyph glyph-name="ebreve" unicode="&#x115;" horiz-adv-x="526" 
d="M262 580q-63 0 -100.5 34.5t-43.5 97.5h32q12 -101 112 -101t112 101h32q-6 -63 -43.5 -97.5t-100.5 -34.5zM270 21q67 0 111.5 35t54.5 94h38q-12 -71 -66 -116t-138 -45q-103 0 -163 74.5t-60 200.5q0 115 58.5 185t158.5 70q83 0 138.5 -49t70.5 -134q6 -30 6 -85
h-396q1 -108 52 -169t135 -61zM264 487q-81 0 -129 -55.5t-52 -148.5h361q-3 96 -52 150t-128 54z" />
    <glyph glyph-name="Edotaccent" unicode="&#x116;" horiz-adv-x="597" 
d="M333 769h-36v81h36v-81zM527 677h-386v-294h368v-35h-368v-313h399v-35h-436v712h423v-35z" />
    <glyph glyph-name="edotaccent" unicode="&#x117;" horiz-adv-x="526" 
d="M280 631h-36v81h36v-81zM270 21q67 0 111.5 35t54.5 94h38q-12 -71 -66 -116t-138 -45q-103 0 -163 74.5t-60 200.5q0 115 58.5 185t158.5 70q83 0 138.5 -49t70.5 -134q6 -30 6 -85h-396q1 -108 52 -169t135 -61zM264 487q-81 0 -129 -55.5t-52 -148.5h361
q-3 96 -52 150t-128 54z" />
    <glyph glyph-name="Eogonek" unicode="&#x118;" horiz-adv-x="597" 
d="M507 -161q21 0 36 6v-29q-15 -6 -39 -6q-81 0 -81 70q0 32 18 59t59 61h-396v712h423v-35h-386v-294h368v-35h-368v-313h399v-35q-46 -37 -64 -63t-18 -54q0 -44 49 -44z" />
    <glyph glyph-name="eogonek" unicode="&#x119;" horiz-adv-x="526" 
d="M270 21q67 0 111.5 35t54.5 94h38q-12 -72 -75 -126q-50 -44 -70 -75t-20 -64q0 -46 50 -46q19 0 36 6v-29q-15 -6 -40 -6q-80 0 -80 70q0 60 60 117v2q-29 -10 -65 -10q-103 0 -163 74.5t-60 200.5q0 115 58.5 185t158.5 70q83 0 138.5 -49t70.5 -134q6 -30 6 -85h-396
q1 -108 52 -169t135 -61zM264 487q-81 0 -129 -55.5t-52 -148.5h361q-3 96 -52 150t-128 54z" />
    <glyph glyph-name="Ecaron" unicode="&#x11a;" horiz-adv-x="597" 
d="M335 760h-40l-117 130h43l94 -104l95 104h43zM527 677h-386v-294h368v-35h-368v-313h399v-35h-436v712h423v-35z" />
    <glyph glyph-name="ecaron" unicode="&#x11b;" horiz-adv-x="526" 
d="M243 573l-117 139h42l95 -113l94 113h43l-117 -139h-40zM270 21q67 0 111.5 35t54.5 94h38q-12 -71 -66 -116t-138 -45q-103 0 -163 74.5t-60 200.5q0 115 58.5 185t158.5 70q83 0 138.5 -49t70.5 -134q6 -30 6 -85h-396q1 -108 52 -169t135 -61zM264 487
q-81 0 -129 -55.5t-52 -148.5h361q-3 96 -52 150t-128 54z" />
    <glyph glyph-name="Gcircumflex" unicode="&#x11c;" horiz-adv-x="710" 
d="M329 890h40l118 -130h-43l-95 104l-94 -104h-43zM356 723q115 0 185.5 -59.5t79.5 -158.5h-39q-11 84 -70 133t-156 49q-126 0 -198.5 -89t-72.5 -245q0 -154 69 -241t190 -87q50 0 92 16t77 49.5t54.5 94t19.5 142.5h-225v35h261v-362h-36v159h-1q-23 -78 -88.5 -124
t-156.5 -46q-137 0 -215.5 97.5t-78.5 266.5q0 172 82.5 271t226.5 99z" />
    <glyph glyph-name="gcircumflex" unicode="&#x11d;" horiz-adv-x="554" 
d="M361 573l-94 113l-95 -113h-42l117 139h40l117 -139h-43zM261 519q120 0 168 -118h1v107h36v-477q0 -221 -205 -221q-90 0 -142 42t-52 116h36q1 -60 43.5 -93t114.5 -33q169 0 169 190v92h-1q-48 -118 -168 -118q-99 0 -156.5 69t-57.5 187q0 119 57.5 188t156.5 69z
M261 487q-82 0 -129.5 -60.5t-47.5 -164.5q0 -103 47.5 -163.5t129.5 -60.5q80 0 125.5 60t45.5 164q0 105 -45.5 165t-125.5 60z" />
    <glyph glyph-name="Gbreve" unicode="&#x11e;" horiz-adv-x="710" 
d="M461 890h32q-6 -63 -43.5 -97.5t-100.5 -34.5t-100.5 34.5t-43.5 97.5h32q12 -101 112 -101t112 101zM356 723q115 0 185.5 -59.5t79.5 -158.5h-39q-11 84 -70 133t-156 49q-126 0 -198.5 -89t-72.5 -245q0 -154 69 -241t190 -87q50 0 92 16t77 49.5t54.5 94t19.5 142.5
h-225v35h261v-362h-36v159h-1q-23 -78 -88.5 -124t-156.5 -46q-137 0 -215.5 97.5t-78.5 266.5q0 172 82.5 271t226.5 99z" />
    <glyph glyph-name="gbreve" unicode="&#x11f;" horiz-adv-x="554" 
d="M379 712h32q-6 -63 -43.5 -97.5t-100.5 -34.5t-100.5 34.5t-43.5 97.5h32q12 -101 112 -101t112 101zM261 519q120 0 168 -118h1v107h36v-477q0 -221 -205 -221q-90 0 -142 42t-52 116h36q1 -60 43.5 -93t114.5 -33q169 0 169 190v92h-1q-48 -118 -168 -118
q-99 0 -156.5 69t-57.5 187q0 119 57.5 188t156.5 69zM261 487q-82 0 -129.5 -60.5t-47.5 -164.5q0 -103 47.5 -163.5t129.5 -60.5q80 0 125.5 60t45.5 164q0 105 -45.5 165t-125.5 60z" />
    <glyph glyph-name="Gdotaccent" unicode="&#x120;" horiz-adv-x="710" 
d="M367 769h-36v81h36v-81zM356 723q115 0 185.5 -59.5t79.5 -158.5h-39q-11 84 -70 133t-156 49q-126 0 -198.5 -89t-72.5 -245q0 -154 69 -241t190 -87q50 0 92 16t77 49.5t54.5 94t19.5 142.5h-225v35h261v-362h-36v159h-1q-23 -78 -88.5 -124t-156.5 -46
q-137 0 -215.5 97.5t-78.5 266.5q0 172 82.5 271t226.5 99z" />
    <glyph glyph-name="gdotaccent" unicode="&#x121;" horiz-adv-x="554" 
d="M285 631h-36v81h36v-81zM261 519q120 0 168 -118h1v107h36v-477q0 -221 -205 -221q-90 0 -142 42t-52 116h36q1 -60 43.5 -93t114.5 -33q169 0 169 190v92h-1q-48 -118 -168 -118q-99 0 -156.5 69t-57.5 187q0 119 57.5 188t156.5 69zM261 487q-82 0 -129.5 -60.5
t-47.5 -164.5q0 -103 47.5 -163.5t129.5 -60.5q80 0 125.5 60t45.5 164q0 105 -45.5 165t-125.5 60z" />
    <glyph glyph-name="Gcommaaccent" unicode="&#x122;" horiz-adv-x="710" 
d="M356 723q115 0 185.5 -59.5t79.5 -158.5h-39q-11 84 -70 133t-156 49q-126 0 -198.5 -89t-72.5 -245q0 -154 69 -241t190 -87q50 0 92 16t77 49.5t54.5 94t19.5 142.5h-225v35h261v-362h-36v159h-1q-23 -78 -88.5 -124t-156.5 -46q-137 0 -215.5 97.5t-78.5 266.5
q0 172 82.5 271t226.5 99zM369 -146l-39 -98h-20l31 98h-13v72h41v-72z" />
    <glyph glyph-name="gcommaaccent" unicode="&#x123;" horiz-adv-x="554" 
d="M265 659h13v-72h-41v72l39 98h20zM261 519q120 0 168 -118h1v107h36v-477q0 -221 -205 -221q-90 0 -142 42t-52 116h36q1 -60 43.5 -93t114.5 -33q169 0 169 190v92h-1q-48 -118 -168 -118q-99 0 -156.5 69t-57.5 187q0 119 57.5 188t156.5 69zM261 487
q-82 0 -129.5 -60.5t-47.5 -164.5q0 -103 47.5 -163.5t129.5 -60.5q80 0 125.5 60t45.5 164q0 105 -45.5 165t-125.5 60z" />
    <glyph glyph-name="Hcircumflex" unicode="&#x124;" horiz-adv-x="717" 
d="M339 890h40l118 -130h-43l-95 104l-94 -104h-43zM614 0h-38v352h-435v-352h-37v712h37v-325h435v325h38v-712z" />
    <glyph glyph-name="hcircumflex" unicode="&#x125;" horiz-adv-x="549" 
d="M255 890h40l118 -130h-43l-95 104l-94 -104h-43zM124 417h1q24 48 68.5 74.5t97.5 26.5q85 0 131 -52.5t46 -156.5v-309h-36v308q0 178 -145 178q-68 0 -115.5 -48t-47.5 -127v-311h-36v712h36v-295z" />
    <glyph glyph-name="Hbar" unicode="&#x126;" horiz-adv-x="717" 
d="M674 587h-60v-587h-38v352h-435v-352h-37v587h-60v33h60v92h37v-92h435v92h38v-92h60v-33zM576 587h-435v-200h435v200z" />
    <glyph glyph-name="hbar" unicode="&#x127;" horiz-adv-x="549" 
d="M291 518q85 0 131 -52.5t46 -156.5v-309h-36v308q0 178 -145 178q-68 0 -115.5 -48t-47.5 -127v-311h-36v590h-63v30h63v92h36v-92h143v-30h-143v-173h1q24 48 68.5 74.5t97.5 26.5z" />
    <glyph glyph-name="Itilde" unicode="&#x128;" horiz-adv-x="245" 
d="M245 880h31q-3 -44 -24.5 -68t-55.5 -24q-31 0 -77 30t-70 30q-44 0 -49 -60h-31q3 44 24.5 68t55.5 24q31 0 77 -30t69 -30q45 0 50 60zM141 0h-37v712h37v-712z" />
    <glyph glyph-name="itilde" unicode="&#x129;" horiz-adv-x="211" 
d="M210 702h29q-2 -44 -22 -68t-52 -24q-27 0 -64 30t-56 30q-39 0 -44 -60h-29q2 44 21.5 68t51.5 24q27 0 64 -30t56 -30q41 0 45 60zM124 0h-36v508h36v-508z" />
    <glyph glyph-name="Imacron" unicode="&#x12a;" horiz-adv-x="245" 
d="M243 798h-242v32h242v-32zM141 0h-37v712h37v-712z" />
    <glyph glyph-name="imacron" unicode="&#x12b;" horiz-adv-x="211" 
d="M212 637h-212v32h212v-32zM124 0h-36v508h36v-508z" />
    <glyph glyph-name="Ibreve" unicode="&#x12c;" horiz-adv-x="245" 
d="M234 890h32q-6 -63 -43 -97.5t-101 -34.5t-101 34.5t-43 97.5h32q12 -101 112 -101t112 101zM141 0h-37v712h37v-712z" />
    <glyph glyph-name="ibreve" unicode="&#x12d;" horiz-adv-x="211" 
d="M196 712h32q-4 -63 -35.5 -97.5t-87.5 -34.5q-55 0 -86.5 34.5t-35.5 97.5h32q8 -101 90 -101q83 0 91 101zM124 0h-36v508h36v-508z" />
    <glyph glyph-name="Iogonek" unicode="&#x12e;" horiz-adv-x="245" 
d="M108 -161q21 0 36 6v-29q-15 -6 -39 -6q-81 0 -81 70q0 32 18.5 60t61.5 63v709h37v-712q-46 -37 -64 -63t-18 -54q0 -44 49 -44z" />
    <glyph glyph-name="iogonek" unicode="&#x12f;" horiz-adv-x="211" 
d="M124 631h-36v81h36v-81zM91 -161q21 0 36 6v-29q-15 -6 -39 -6q-81 0 -81 70q0 32 18.5 60t62.5 63v505h36v-508q-46 -37 -64 -63t-18 -54q0 -44 49 -44z" />
    <glyph glyph-name="Idotaccent" unicode="&#x130;" horiz-adv-x="245" 
d="M140 769h-36v81h36v-81zM141 0h-37v712h37v-712z" />
    <glyph glyph-name="dotlessi" unicode="&#x131;" horiz-adv-x="211" 
d="M124 0h-36v508h36v-508z" />
    <glyph glyph-name="IJ" unicode="&#x132;" horiz-adv-x="563" 
d="M141 0h-37v712h37v-712zM465 712v-531q0 -91 -43 -138t-122 -47q-23 0 -40 5v36q23 -5 40 -5q127 0 127 149v531h38z" />
    <glyph glyph-name="ij" unicode="&#x133;" horiz-adv-x="431" 
d="M124 631h-36v81h36v-81zM344 631h-36v81h36v-81zM124 0h-36v508h36v-508zM344 508v-552q0 -77 -31 -110.5t-89 -33.5q-14 0 -25 3v33q14 -2 23 -2q43 0 64.5 24.5t21.5 85.5v552h36z" />
    <glyph glyph-name="Jcircumflex" unicode="&#x134;" horiz-adv-x="318" 
d="M181 890h40l118 -130h-43l-95 104l-94 -104h-43zM220 712v-531q0 -91 -43 -138t-122 -47q-23 0 -40 5v36q23 -5 40 -5q127 0 127 149v531h38z" />
    <glyph glyph-name="jcircumflex" unicode="&#x135;" horiz-adv-x="220" 
d="M233 574h-41l-77 112l-77 -112h-42l97 138h43zM133 508v-552q0 -77 -31 -110.5t-89 -33.5q-15 0 -25 3v33q14 -2 23 -2q43 0 64.5 24.5t21.5 85.5v552h36z" />
    <glyph glyph-name="Kcommaaccent" unicode="&#x136;" horiz-adv-x="567" 
d="M184 373l378 -373h-54l-366 363h-1v-363h-37v712h37v-329h1l335 329h53zM337 -146l-39 -98h-20l31 98h-13v72h41v-72z" />
    <glyph glyph-name="kcommaaccent" unicode="&#x137;" horiz-adv-x="457" 
d="M462 0h-52l-285 268h-1v-268h-36v712h36v-424h1l256 220h52l-269 -229zM235 -74h41v-72l-39 -98h-20l31 98h-13v72z" />
    <glyph glyph-name="kgreenlandic" unicode="&#x138;" horiz-adv-x="472" 
d="M462 0h-52l-285 268h-1v-268h-36v508h36v-220h1l256 220h52l-269 -229z" />
    <glyph glyph-name="Lacute" unicode="&#x139;" horiz-adv-x="538" 
d="M140 760h-37l99 130h50zM141 35h390v-35h-427v712h37v-677z" />
    <glyph glyph-name="lacute" unicode="&#x13a;" horiz-adv-x="211" 
d="M120 777h-36l93 139h48zM124 0h-36v712h36v-712z" />
    <glyph glyph-name="Lcommaaccent" unicode="&#x13b;" horiz-adv-x="538" 
d="M141 35h390v-35h-427v712h37v-677zM338 -146l-39 -98h-20l31 98h-13v72h41v-72z" />
    <glyph glyph-name="lcommaaccent" unicode="&#x13c;" horiz-adv-x="211" 
d="M124 0h-36v712h36v-712zM126 -146l-39 -98h-20l31 98h-13v72h41v-72z" />
    <glyph glyph-name="Lcaron" unicode="&#x13d;" horiz-adv-x="538" 
d="M141 35h390v-35h-427v712h37v-677zM242 498h-26l36 214h39z" />
    <glyph glyph-name="lcaron" unicode="&#x13e;" horiz-adv-x="211" 
d="M124 0h-36v712h36v-712zM200 537h-26l36 175h39z" />
    <glyph glyph-name="Ldot" unicode="&#x13f;" horiz-adv-x="618" 
d="M141 35h390v-35h-427v712h37v-677zM457 356h-49v79h49v-79z" />
    <glyph glyph-name="ldot" unicode="&#x140;" horiz-adv-x="325" 
d="M124 0h-36v712h36v-712zM293 315h-49v79h49v-79z" />
    <glyph glyph-name="Lslash" unicode="&#x141;" horiz-adv-x="538" 
d="M531 35v-35h-427v319l-83 -49v38l83 49v355h37v-337l159 95v-38l-159 -95v-302h390z" />
    <glyph glyph-name="lslash" unicode="&#x142;" horiz-adv-x="246" 
d="M236 459l-95 -57v-402h-36v384l-95 -57v36l95 57v292h36v-274l95 57v-36z" />
    <glyph glyph-name="Nacute" unicode="&#x143;" horiz-adv-x="730" 
d="M346 760h-37l99 130h50zM627 0h-59l-205 326l-221 349h-1v-373v-302h-37v712h58l205 -326l221 -349h1v373v302h38v-712z" />
    <glyph glyph-name="nacute" unicode="&#x144;" horiz-adv-x="549" 
d="M260 573h-36l93 139h48zM291 518q85 0 131 -52.5t46 -156.5v-309h-36v308q0 178 -145 178q-68 0 -115.5 -48t-47.5 -127v-311h-36v508h36v-91h1q22 47 66.5 74t99.5 27z" />
    <glyph glyph-name="Ncommaaccent" unicode="&#x145;" horiz-adv-x="730" 
d="M627 0h-59l-205 326l-221 349h-1v-373v-302h-37v712h58l205 -326l221 -349h1v373v302h38v-712zM386 -146l-39 -98h-20l31 98h-13v72h41v-72z" />
    <glyph glyph-name="ncommaaccent" unicode="&#x146;" horiz-adv-x="549" 
d="M291 518q85 0 131 -52.5t46 -156.5v-309h-36v308q0 178 -145 178q-68 0 -115.5 -48t-47.5 -127v-311h-36v508h36v-91h1q22 47 66.5 74t99.5 27zM296 -146l-39 -98h-20l31 98h-13v72h41v-72z" />
    <glyph glyph-name="Ncaron" unicode="&#x147;" horiz-adv-x="730" 
d="M385 760h-40l-117 130h43l94 -104l95 104h43zM627 0h-59l-205 326l-221 349h-1v-373v-302h-37v712h58l205 -326l221 -349h1v373v302h38v-712z" />
    <glyph glyph-name="ncaron" unicode="&#x148;" horiz-adv-x="549" 
d="M296 573h-40l-117 139h42l95 -113l94 113h43zM291 518q85 0 131 -52.5t46 -156.5v-309h-36v308q0 178 -145 178q-68 0 -115.5 -48t-47.5 -127v-311h-36v508h36v-91h1q22 47 66.5 74t99.5 27z" />
    <glyph glyph-name="napostrophe" unicode="&#x149;" horiz-adv-x="618" 
d="M124 633l-37 -127h-27l30 127h-13v79h47v-79zM361 518q85 0 130.5 -52.5t45.5 -156.5v-309h-36v308q0 178 -145 178q-68 0 -115.5 -48t-47.5 -127v-311h-36v508h36v-91h1q22 47 66.5 74t100.5 27z" />
    <glyph glyph-name="Eng" unicode="&#x14a;" horiz-adv-x="730" 
d="M627 712v-760q0 -140 -121 -140q-14 0 -26 3v33q16 -2 24 -2q43 0 64 23.5t21 82.5v48l-228 345l-219 330h-1v-360v-315h-37v712h58l207 -314l219 -329h1v359v284h38z" />
    <glyph glyph-name="eng" unicode="&#x14b;" horiz-adv-x="549" 
d="M291 518q81 0 130 -52q47 -52 47 -166v-348q0 -75 -31 -107.5t-89 -32.5q-13 0 -25 3v33q14 -2 23 -2q43 0 64.5 23.5t21.5 82.5v347q0 101 -38 143q-39 44 -107 44t-115.5 -48t-47.5 -127v-311h-36v508h36v-91h1q24 48 68.5 74.5t97.5 26.5z" />
    <glyph glyph-name="Omacron" unicode="&#x14c;" 
d="M477 798h-242v32h242v-32zM356 723q142 0 225.5 -99.5t83.5 -267.5t-83.5 -267.5t-225.5 -99.5t-225.5 99.5t-83.5 267.5t83.5 267.5t225.5 99.5zM356 687q-124 0 -197.5 -90t-73.5 -241t73.5 -241t197.5 -90t197 89.5t73 241.5t-73 241.5t-197 89.5z" />
    <glyph glyph-name="omacron" unicode="&#x14d;" horiz-adv-x="539" 
d="M390 637h-242v32h242v-32zM269 519q104 0 163.5 -70.5t59.5 -194.5t-59.5 -194.5t-163.5 -70.5t-163 70.5t-59 194.5t59 194.5t163 70.5zM269 486q-87 0 -136 -61.5t-49 -170.5t49 -170.5t136 -61.5q88 0 137 61.5t49 170.5t-49 170.5t-137 61.5z" />
    <glyph glyph-name="Obreve" unicode="&#x14e;" 
d="M468 890h32q-6 -63 -43 -97.5t-101 -34.5t-101 34.5t-43 97.5h32q12 -101 112 -101t112 101zM356 723q142 0 225.5 -99.5t83.5 -267.5t-83.5 -267.5t-225.5 -99.5t-225.5 99.5t-83.5 267.5t83.5 267.5t225.5 99.5zM356 687q-124 0 -197.5 -90t-73.5 -241t73.5 -241
t197.5 -90t197 89.5t73 241.5t-73 241.5t-197 89.5z" />
    <glyph glyph-name="obreve" unicode="&#x14f;" horiz-adv-x="539" 
d="M381 712h32q-6 -63 -43.5 -97.5t-100.5 -34.5t-100.5 34.5t-43.5 97.5h32q12 -101 112 -101t112 101zM269 519q104 0 163.5 -70.5t59.5 -194.5t-59.5 -194.5t-163.5 -70.5t-163 70.5t-59 194.5t59 194.5t163 70.5zM269 486q-87 0 -136 -61.5t-49 -170.5t49 -170.5
t136 -61.5q88 0 137 61.5t49 170.5t-49 170.5t-137 61.5z" />
    <glyph glyph-name="Ohungarumlaut" unicode="&#x150;" 
d="M291 757h-36l117 133h49zM411 757h-36l117 133h48zM356 723q142 0 225.5 -99.5t83.5 -267.5t-83.5 -267.5t-225.5 -99.5t-225.5 99.5t-83.5 267.5t83.5 267.5t225.5 99.5zM356 687q-124 0 -197.5 -90t-73.5 -241t73.5 -241t197.5 -90t197 89.5t73 241.5t-73 241.5
t-197 89.5z" />
    <glyph glyph-name="ohungarumlaut" unicode="&#x151;" horiz-adv-x="539" 
d="M204 573h-36l117 139h49zM324 573h-36l117 139h48zM269 519q104 0 163.5 -70.5t59.5 -194.5t-59.5 -194.5t-163.5 -70.5t-163 70.5t-59 194.5t59 194.5t163 70.5zM269 486q-87 0 -136 -61.5t-49 -170.5t49 -170.5t136 -61.5q88 0 137 61.5t49 170.5t-49 170.5t-137 61.5z
" />
    <glyph glyph-name="OE" unicode="&#x152;" horiz-adv-x="974" 
d="M904 677h-386v-294h368v-35h-368v-313h399v-35h-520q-168 0 -259 92.5t-91 263.5t91 263.5t259 92.5h507v-35zM481 677h-84q-150 0 -231 -83.5t-81 -237.5t81 -237.5t231 -83.5h84v642z" />
    <glyph glyph-name="oe" unicode="&#x153;" horiz-adv-x="865" 
d="M624 21q62 0 102 35t50 94h37q-10 -71 -60 -116t-129 -45q-68 0 -116.5 40.5t-70.5 113.5q-20 -74 -68.5 -114t-117.5 -40q-95 0 -149.5 70.5t-54.5 194.5t54.5 194.5t149.5 70.5q68 0 115.5 -38.5t68.5 -109.5q21 70 68.5 109t114.5 39q76 0 128.5 -49.5t66.5 -133.5
q6 -37 6 -85h-367q1 -108 48 -169t124 -61zM618 487q-74 0 -118.5 -55.5t-47.5 -148.5h332q-3 96 -48.5 150t-117.5 54zM251 22q78 0 123.5 62t45.5 170t-45.5 170t-123.5 62t-122.5 -62t-44.5 -170t44.5 -170t122.5 -62z" />
    <glyph glyph-name="Racute" unicode="&#x154;" horiz-adv-x="607" 
d="M282 760h-37l99 130h50zM104 712h195q118 0 177 -48t59 -136q0 -73 -40 -121t-107 -60v-2q40 -10 63.5 -38t47.5 -95l77 -212h-41l-73 205q-25 71 -57 98t-96 27h-168v-330h-37v712zM141 677v-312h168q94 0 141 45t47 118q0 72 -50 110.5t-148 38.5h-158z" />
    <glyph glyph-name="racute" unicode="&#x155;" horiz-adv-x="331" 
d="M182 573h-36l93 139h48zM288 511q16 0 30 -3v-35q-16 2 -29 2q-77 0 -121 -49.5t-44 -143.5v-282h-36v508h36v-99h1q47 102 163 102z" />
    <glyph glyph-name="Rcommaaccent" unicode="&#x156;" horiz-adv-x="607" 
d="M104 712h195q118 0 177 -48t59 -136q0 -73 -40 -121t-107 -60v-2q40 -10 63.5 -38t47.5 -95l77 -212h-41l-73 205q-25 71 -57 98t-96 27h-168v-330h-37v712zM141 677v-312h168q94 0 141 45t47 118q0 72 -50 110.5t-148 38.5h-158zM349 -146l-39 -98h-20l31 98h-13v72h41
v-72z" />
    <glyph glyph-name="rcommaaccent" unicode="&#x157;" horiz-adv-x="331" 
d="M288 511q16 0 30 -3v-35q-16 2 -29 2q-77 0 -121 -49.5t-44 -143.5v-282h-36v508h36v-99h1q47 102 163 102zM126 -146l-39 -98h-20l31 98h-13v72h41v-72z" />
    <glyph glyph-name="Rcaron" unicode="&#x158;" horiz-adv-x="607" 
d="M321 760h-40l-117 130h43l94 -104l95 104h43zM104 712h195q118 0 177 -48t59 -136q0 -73 -40 -121t-107 -60v-2q40 -10 63.5 -38t47.5 -95l77 -212h-41l-73 205q-25 71 -57 98t-96 27h-168v-330h-37v712zM141 677v-312h168q94 0 141 45t47 118q0 72 -50 110.5t-148 38.5
h-158z" />
    <glyph glyph-name="rcaron" unicode="&#x159;" horiz-adv-x="331" 
d="M219 573h-40l-117 139h42l95 -113l94 113h43zM288 511q16 0 30 -3v-35q-16 2 -29 2q-77 0 -121 -49.5t-44 -143.5v-282h-36v508h36v-99h1q47 102 163 102z" />
    <glyph glyph-name="Sacute" unicode="&#x15a;" horiz-adv-x="586" 
d="M257 760h-37l99 130h50zM276 723q237 0 237 -235h-38q0 200 -199 200q-82 0 -129 -39.5t-47 -108.5q0 -68 43.5 -99.5t148.5 -56.5q62 -15 98 -28t70.5 -35t49.5 -56t15 -84q0 -89 -62 -140.5t-169 -51.5q-119 0 -182 62.5t-63 186.5h38q0 -214 207 -214q92 0 142.5 41.5
t50.5 115.5q0 39 -11.5 65.5t-41.5 44.5t-61 29t-89 25q-118 29 -170 69t-52 126q0 82 58 132.5t156 50.5z" />
    <glyph glyph-name="sacute" unicode="&#x15b;" horiz-adv-x="461" 
d="M205 573h-36l93 139h48zM221 519q85 0 132.5 -46t48.5 -128h-37q0 67 -38 104t-106 37q-58 0 -94.5 -27.5t-36.5 -74.5t29.5 -66t108.5 -37q50 -11 78.5 -20t57 -25.5t41 -42t12.5 -62.5q0 -63 -49.5 -102.5t-128.5 -39.5q-93 0 -144 48.5t-52 135.5h36q0 -72 42 -111.5
t118 -39.5q62 0 102 29.5t40 77.5q0 53 -34 75t-129 43q-34 8 -54 13.5t-43.5 16t-36.5 23.5t-21.5 34t-8.5 48q0 62 47 99.5t120 37.5z" />
    <glyph glyph-name="Scircumflex" unicode="&#x15c;" horiz-adv-x="586" 
d="M256 890h40l118 -130h-43l-95 104l-94 -104h-43zM276 723q237 0 237 -235h-38q0 200 -199 200q-82 0 -129 -39.5t-47 -108.5q0 -68 43.5 -99.5t148.5 -56.5q62 -15 98 -28t70.5 -35t49.5 -56t15 -84q0 -89 -62 -140.5t-169 -51.5q-119 0 -182 62.5t-63 186.5h38
q0 -214 207 -214q92 0 142.5 41.5t50.5 115.5q0 39 -11.5 65.5t-41.5 44.5t-61 29t-89 25q-118 29 -170 69t-52 126q0 82 58 132.5t156 50.5z" />
    <glyph glyph-name="scircumflex" unicode="&#x15d;" horiz-adv-x="461" 
d="M316 573l-94 113l-95 -113h-42l117 139h40l117 -139h-43zM221 519q85 0 132.5 -46t48.5 -128h-37q0 67 -38 104t-106 37q-58 0 -94.5 -27.5t-36.5 -74.5t29.5 -66t108.5 -37q50 -11 78.5 -20t57 -25.5t41 -42t12.5 -62.5q0 -63 -49.5 -102.5t-128.5 -39.5
q-93 0 -144 48.5t-52 135.5h36q0 -72 42 -111.5t118 -39.5q62 0 102 29.5t40 77.5q0 53 -34 75t-129 43q-34 8 -54 13.5t-43.5 16t-36.5 23.5t-21.5 34t-8.5 48q0 62 47 99.5t120 37.5z" />
    <glyph glyph-name="Scedilla" unicode="&#x15e;" horiz-adv-x="586" 
d="M525 181q0 -83 -54.5 -133.5t-149.5 -57.5l-37 -56q10 2 21 2q36 0 58 -18.5t22 -50.5q0 -34 -25.5 -56t-71.5 -22q-49 0 -92 25l11 22q36 -20 78 -20q32 0 49.5 13.5t17.5 36.5q0 48 -61 48q-17 0 -32 -5l-13 14l45 66q-118 1 -180 63.5t-62 185.5h38q0 -214 207 -214
q92 0 142.5 41.5t50.5 115.5q0 39 -11.5 65.5t-41.5 44.5t-61 29t-89 25q-118 29 -170 69t-52 126q0 82 58 132.5t156 50.5q237 0 237 -235h-38q0 200 -199 200q-82 0 -129 -39.5t-47 -108.5q0 -68 43.5 -99.5t148.5 -56.5q62 -15 98 -28t70.5 -35t49.5 -56t15 -84z" />
    <glyph glyph-name="scedilla" unicode="&#x15f;" horiz-adv-x="461" 
d="M417 131q0 -58 -42 -96t-111 -45l-37 -56q10 2 21 2q36 0 58 -18.5t22 -50.5q0 -34 -25.5 -56t-71.5 -22q-49 0 -92 25l11 22q36 -20 78 -20q32 0 49.5 13.5t17.5 36.5q0 48 -61 48q-17 0 -32 -5l-13 14l45 66q-90 1 -140 49.5t-51 134.5h36q0 -72 42 -111.5t118 -39.5
q62 0 102 29.5t40 77.5q0 53 -34 75t-129 43q-34 8 -54 13.5t-43.5 16t-36.5 23.5t-21.5 34t-8.5 48q0 62 47 99.5t120 37.5q85 0 132.5 -46t48.5 -128h-37q0 67 -38 104t-106 37q-58 0 -94.5 -27.5t-36.5 -74.5t29.5 -66t108.5 -37q50 -11 78.5 -20t57 -25.5t41 -42
t12.5 -62.5z" />
    <glyph glyph-name="Scaron" unicode="&#x160;" horiz-adv-x="586" 
d="M296 760h-40l-117 130h43l94 -104l95 104h43zM276 723q237 0 237 -235h-38q0 200 -199 200q-82 0 -129 -39.5t-47 -108.5q0 -68 43.5 -99.5t148.5 -56.5q62 -15 98 -28t70.5 -35t49.5 -56t15 -84q0 -89 -62 -140.5t-169 -51.5q-119 0 -182 62.5t-63 186.5h38
q0 -214 207 -214q92 0 142.5 41.5t50.5 115.5q0 39 -11.5 65.5t-41.5 44.5t-61 29t-89 25q-118 29 -170 69t-52 126q0 82 58 132.5t156 50.5z" />
    <glyph glyph-name="scaron" unicode="&#x161;" horiz-adv-x="461" 
d="M242 573h-40l-117 139h42l95 -113l94 113h43zM221 519q85 0 132.5 -46t48.5 -128h-37q0 67 -38 104t-106 37q-58 0 -94.5 -27.5t-36.5 -74.5t29.5 -66t108.5 -37q50 -11 78.5 -20t57 -25.5t41 -42t12.5 -62.5q0 -63 -49.5 -102.5t-128.5 -39.5q-93 0 -144 48.5t-52 135.5
h36q0 -72 42 -111.5t118 -39.5q62 0 102 29.5t40 77.5q0 53 -34 75t-129 43q-34 8 -54 13.5t-43.5 16t-36.5 23.5t-21.5 34t-8.5 48q0 62 47 99.5t120 37.5z" />
    <glyph glyph-name="Tcedilla" unicode="&#x162;" horiz-adv-x="579" 
d="M571 677h-263v-677h-37v677h-264v35h564v-35zM310 -146l-39 -98h-20l31 98h-13v72h41v-72z" />
    <glyph glyph-name="tcedilla" unicode="&#x163;" horiz-adv-x="284" 
d="M218 31q19 0 35 4v-33q-20 -4 -39 -4q-56 0 -81 29t-25 96v353h-95v32h95v117h36v-117h104v-32h-104v-353q0 -50 17 -71t57 -21zM139 -74h41v-72l-39 -98h-20l31 98h-13v72z" />
    <glyph glyph-name="Tcaron" unicode="&#x164;" horiz-adv-x="579" 
d="M309 760h-40l-117 130h43l94 -104l95 104h43zM571 677h-263v-677h-37v677h-264v35h564v-35z" />
    <glyph glyph-name="tcaron" unicode="&#x165;" horiz-adv-x="284" 
d="M219 537h-26l36 175h39zM144 476v-353q0 -50 17 -71t57 -21q19 0 35 4v-33q-20 -4 -39 -4q-56 0 -81 29t-25 96v353h-95v32h95v117h36v-117h104v-32h-104z" />
    <glyph glyph-name="Tbar" unicode="&#x166;" horiz-adv-x="579" 
d="M308 677v-261h152v-33h-152v-383h-37v383h-152v33h152v261h-264v35h564v-35h-263z" />
    <glyph glyph-name="tbar" unicode="&#x167;" horiz-adv-x="282" 
d="M218 31q19 0 35 4v-33q-20 -4 -39 -4q-56 0 -81 29t-25 96v140h-92v30h92v183h-95v32h95v117h36v-117h104v-32h-104v-183h102v-30h-102v-140q0 -50 17 -71t57 -21z" />
    <glyph glyph-name="Utilde" unicode="&#x168;" horiz-adv-x="684" 
d="M465 880h31q-3 -44 -24.5 -68t-55.5 -24q-31 0 -77 30t-70 30q-44 0 -49 -60h-31q3 44 24.5 68t55.5 24q31 0 77 -30t69 -30q45 0 50 60zM586 712v-450q0 -134 -62.5 -203.5t-181.5 -69.5t-181.5 69.5t-62.5 203.5v450h37v-450q0 -118 53.5 -177.5t153.5 -59.5
t153.5 59.5t53.5 177.5v450h37z" />
    <glyph glyph-name="utilde" unicode="&#x169;" horiz-adv-x="549" 
d="M398 702h31q-3 -44 -24.5 -68t-55.5 -24q-31 0 -77 30t-70 30q-44 0 -49 -60h-31q3 44 24.5 68t55.5 24q31 0 77 -30t69 -30q45 0 50 60zM258 -10q-85 0 -130.5 52.5t-45.5 156.5v309h36v-308q0 -178 144 -178q68 0 116 48t48 127v311h36v-508h-36v91h-2q-23 -47 -67 -74
t-99 -27z" />
    <glyph glyph-name="Umacron" unicode="&#x16a;" horiz-adv-x="684" 
d="M463 798h-242v32h242v-32zM586 712v-450q0 -134 -62.5 -203.5t-181.5 -69.5t-181.5 69.5t-62.5 203.5v450h37v-450q0 -118 53.5 -177.5t153.5 -59.5t153.5 59.5t53.5 177.5v450h37z" />
    <glyph glyph-name="umacron" unicode="&#x16b;" horiz-adv-x="549" 
d="M396 637h-242v32h242v-32zM258 -10q-85 0 -130.5 52.5t-45.5 156.5v309h36v-308q0 -178 144 -178q68 0 116 48t48 127v311h36v-508h-36v91h-2q-23 -47 -67 -74t-99 -27z" />
    <glyph glyph-name="Ubreve" unicode="&#x16c;" horiz-adv-x="684" 
d="M454 890h32q-6 -63 -43 -97.5t-101 -34.5t-101 34.5t-43 97.5h32q12 -101 112 -101t112 101zM586 712v-450q0 -134 -62.5 -203.5t-181.5 -69.5t-181.5 69.5t-62.5 203.5v450h37v-450q0 -118 53.5 -177.5t153.5 -59.5t153.5 59.5t53.5 177.5v450h37z" />
    <glyph glyph-name="ubreve" unicode="&#x16d;" horiz-adv-x="549" 
d="M387 712h32q-6 -63 -43.5 -97.5t-100.5 -34.5t-100.5 34.5t-43.5 97.5h32q12 -101 112 -101t112 101zM258 -10q-85 0 -130.5 52.5t-45.5 156.5v309h36v-308q0 -178 144 -178q68 0 116 48t48 127v311h36v-508h-36v91h-2q-23 -47 -67 -74t-99 -27z" />
    <glyph glyph-name="Uring" unicode="&#x16e;" horiz-adv-x="684" 
d="M342 940q37 0 63.5 -26.5t26.5 -63.5t-26.5 -63.5t-63.5 -26.5q-38 0 -64 26t-26 64q0 37 26.5 63.5t63.5 26.5zM342 914q-27 0 -45.5 -18.5t-18.5 -45.5t18.5 -45.5t45.5 -18.5t45.5 18.5t18.5 45.5t-18.5 45.5t-45.5 18.5zM586 712v-450q0 -134 -62.5 -203.5
t-181.5 -69.5t-181.5 69.5t-62.5 203.5v450h37v-450q0 -118 53.5 -177.5t153.5 -59.5t153.5 59.5t53.5 177.5v450h37z" />
    <glyph glyph-name="uring" unicode="&#x16f;" horiz-adv-x="549" 
d="M275 762q37 0 63.5 -26.5t26.5 -63.5t-26.5 -63.5t-63.5 -26.5t-63.5 26t-26.5 64t26.5 64t63.5 26zM275 736q-27 0 -45.5 -18.5t-18.5 -45.5t18.5 -45.5t45.5 -18.5t45.5 18.5t18.5 45.5t-18.5 45.5t-45.5 18.5zM258 -10q-85 0 -130.5 52.5t-45.5 156.5v309h36v-308
q0 -178 144 -178q68 0 116 48t48 127v311h36v-508h-36v91h-2q-23 -47 -67 -74t-99 -27z" />
    <glyph glyph-name="Uhungarumlaut" unicode="&#x170;" horiz-adv-x="684" 
d="M277 757h-36l117 133h49zM397 757h-36l117 133h48zM586 712v-450q0 -134 -62.5 -203.5t-181.5 -69.5t-181.5 69.5t-62.5 203.5v450h37v-450q0 -118 53.5 -177.5t153.5 -59.5t153.5 59.5t53.5 177.5v450h37z" />
    <glyph glyph-name="uhungarumlaut" unicode="&#x171;" horiz-adv-x="549" 
d="M210 573h-36l117 139h49zM330 573h-36l117 139h48zM258 -10q-85 0 -130.5 52.5t-45.5 156.5v309h36v-308q0 -178 144 -178q68 0 116 48t48 127v311h36v-508h-36v91h-2q-23 -47 -67 -74t-99 -27z" />
    <glyph glyph-name="Uogonek" unicode="&#x172;" horiz-adv-x="684" 
d="M586 712v-450q0 -91 -27.5 -149.5t-85.5 -105.5q-47 -38 -65 -64t-18 -54q0 -50 50 -50q20 0 36 6v-29q-15 -6 -40 -6q-80 0 -80 76q0 32 17 58t57 59v2q-40 -16 -88 -16q-119 0 -181.5 69.5t-62.5 203.5v450h37v-450q0 -118 53.5 -177.5t153.5 -59.5t153.5 59.5
t53.5 177.5v450h37z" />
    <glyph glyph-name="uogonek" unicode="&#x173;" horiz-adv-x="549" 
d="M429 -161q21 0 36 6v-29q-15 -6 -39 -6q-81 0 -81 70q0 32 18.5 60t62.5 63v88h-2q-23 -47 -67 -74t-99 -27q-85 0 -130.5 52.5t-45.5 156.5v309h36v-308q0 -178 144 -178q68 0 116 48t48 127v311h36v-508q-46 -37 -64 -63t-18 -54q0 -44 49 -44z" />
    <glyph glyph-name="Wcircumflex" unicode="&#x174;" horiz-adv-x="876" 
d="M419 890h40l118 -130h-43l-95 104l-94 -104h-43zM675 0h-58l-88 334l-90 342h-2l-90 -342l-88 -334h-58l-189 712h37l88 -326l93 -350h1l92 352l86 324h58l86 -324l92 -352h1l93 350l88 326h38z" />
    <glyph glyph-name="wcircumflex" unicode="&#x175;" horiz-adv-x="744" 
d="M466 573l-94 113l-95 -113h-42l117 139h40l117 -139h-43zM575 0h-52l-79 248l-71 226h-2l-71 -226l-79 -248h-52l-160 508h37l74 -235l74 -238h2l75 237l73 236h56l73 -236l75 -237h2l74 238l74 235h37z" />
    <glyph glyph-name="Ycircumflex" unicode="&#x176;" horiz-adv-x="585" 
d="M272 890h40l118 -130h-43l-95 104l-94 -104h-43zM311 312v-312h-37v312l-268 400h45l108 -163l132 -199h2l134 201l107 161h45z" />
    <glyph glyph-name="ycircumflex" unicode="&#x177;" horiz-adv-x="442" 
d="M316 573l-94 113l-95 -113h-42l117 139h40l117 -139h-43zM443 508l-211 -523q-42 -104 -80 -139t-103 -35q-21 0 -38 6v33q17 -6 38 -6q53 0 83 30t68 125l-201 509h39l180 -461h1l185 461h39z" />
    <glyph glyph-name="Ydieresis" unicode="&#x178;" horiz-adv-x="585" 
d="M219 779h-36v81h36v-81zM402 779h-36v81h36v-81zM311 312v-312h-37v312l-268 400h45l108 -163l132 -199h2l134 201l107 161h45z" />
    <glyph glyph-name="Zacute" unicode="&#x179;" horiz-adv-x="551" 
d="M249 760h-37l99 130h50zM513 670l-455 -633v-2h476v-35h-517v42l455 633v2h-449v35h490v-42z" />
    <glyph glyph-name="zacute" unicode="&#x17a;" horiz-adv-x="450" 
d="M205 573h-36l93 139h48zM418 469l-353 -434v-2h363v-33h-406v39l353 434v2h-343v33h386v-39z" />
    <glyph glyph-name="Zdotaccent" unicode="&#x17b;" horiz-adv-x="551" 
d="M286 769h-36v81h36v-81zM513 670l-455 -633v-2h476v-35h-517v42l455 633v2h-449v35h490v-42z" />
    <glyph glyph-name="zdotaccent" unicode="&#x17c;" horiz-adv-x="450" 
d="M238 631h-36v81h36v-81zM418 469l-353 -434v-2h363v-33h-406v39l353 434v2h-343v33h386v-39z" />
    <glyph glyph-name="Zcaron" unicode="&#x17d;" horiz-adv-x="551" 
d="M288 760h-40l-117 130h43l94 -104l95 104h43zM513 670l-455 -633v-2h476v-35h-517v42l455 633v2h-449v35h490v-42z" />
    <glyph glyph-name="zcaron" unicode="&#x17e;" horiz-adv-x="450" 
d="M241 573h-40l-117 139h42l95 -113l94 113h43zM418 469l-353 -434v-2h363v-33h-406v39l353 434v2h-343v33h386v-39z" />
    <glyph glyph-name="longs" unicode="&#x17f;" horiz-adv-x="267" 
d="M219 715q19 0 33 -3v-33q-14 4 -29 4q-78 0 -78 -98v-585h-36v476h-94v32h94v80q0 127 110 127z" />
    <glyph glyph-name="Schwa" unicode="&#x18f;" 
d="M344 723q148 0 234.5 -99.5t86.5 -267.5q0 -167 -85 -267t-229 -100q-141 0 -222.5 98t-81.5 269v13h579q-1 148 -78 233t-204 85q-97 0 -161 -50.5t-79 -135.5h-41q17 100 91.5 161t189.5 61zM351 25q124 0 197.5 84t77.5 225h-541q4 -146 76.5 -227.5t189.5 -81.5z" />
    <glyph glyph-name="florin" unicode="&#x192;" horiz-adv-x="520" 
d="M465 715q14 0 30 -4v-34q-10 3 -29 3q-48 0 -72.5 -26.5t-41.5 -93.5l-23 -92h104v-31h-112l-115 -457q-25 -95 -58.5 -131t-95.5 -36q-9 0 -27 2v35q14 -3 26 -3q45 0 71.5 29t48.5 112l113 449h-101v31h109l25 98q21 84 53 116.5t95 32.5z" />
    <glyph glyph-name="Aringacute" unicode="&#x1fa;" horiz-adv-x="648" 
d="M305 931h-37l99 130h49zM324 733q-38 0 -64 26.5t-26 63.5t26.5 63.5t63.5 26.5t63.5 -26.5t26.5 -63.5t-26.5 -63.5t-63.5 -26.5zM324 887q-27 0 -45.5 -19t-18.5 -45q0 -27 18.5 -45.5t45.5 -18.5t45.5 18.5t18.5 45.5q0 26 -18.5 45t-45.5 19zM499 250h-351l-102 -250
h-40l292 712h51l292 -712h-40zM485 285l-36 88l-125 306h-1l-125 -306l-36 -88h323z" />
    <glyph glyph-name="aringacute" unicode="&#x1fb;" horiz-adv-x="508" 
d="M226 771h-36l92 139h49zM242 741q37 0 63.5 -26.5t26.5 -63.5t-26.5 -63.5t-63.5 -26.5q-38 0 -64 26.5t-26 63.5t26.5 63.5t63.5 26.5zM242 715q-27 0 -45.5 -19t-18.5 -45q0 -27 18.5 -45.5t45.5 -18.5t45.5 18.5t18.5 45.5q0 26 -18.5 45t-45.5 19zM249 519
q82 0 130 -47t48 -142v-211q0 -72 10 -119h-34q-8 42 -8 96h-1q-54 -106 -186 -106q-76 0 -122 39.5t-46 103.5q0 62 42 99t141 52q96 14 169 20v29q0 78 -38.5 116t-104.5 38q-70 0 -108.5 -36t-42.5 -96h-37q5 75 54 119.5t134 44.5zM392 219v53q-81 -7 -165 -20
q-82 -12 -116 -40.5t-34 -77.5q0 -51 37 -81.5t100 -30.5q82 0 129 52q28 30 38.5 60t10.5 85z" />
    <glyph glyph-name="AEacute" unicode="&#x1fc;" horiz-adv-x="913" 
d="M489 760h-37l99 130h50zM855 35v-35h-341l-42 268h-296l-140 -268h-42l371 712h477v-35h-396l46 -294h332v-35h-327l49 -313h309zM467 303l-58 374h-19l-196 -374h273z" />
    <glyph glyph-name="aeacute" unicode="&#x1fd;" horiz-adv-x="833" 
d="M398 573h-36l93 139h48zM592 21q61 0 101.5 35t49.5 94h38q-10 -71 -60 -116t-129 -45q-67 0 -114.5 38.5t-70.5 108.5q-18 -69 -72.5 -108t-128.5 -39t-120 39.5t-46 104.5q0 150 217 150h130v50q0 78 -37 116t-103 38t-105.5 -36.5t-43.5 -95.5h-37q5 74 55 119t131 45
q136 0 165 -124q23 59 67.5 91.5t106.5 32.5q76 0 128.5 -49.5t66.5 -133.5q6 -37 6 -85h-367q1 -108 48 -169t124 -61zM586 487q-74 0 -118.5 -55.5t-47.5 -148.5h331q-2 96 -47.5 150t-117.5 54zM387 251h-127q-97 0 -140 -29t-43 -88q0 -52 36.5 -82.5t98.5 -30.5
q82 0 130 54q26 29 35.5 59t9.5 85v32z" />
    <glyph glyph-name="Oslashacute" unicode="&#x1fe;" 
d="M337 760h-37l99 130h50zM647 710l-66 -86q84 -100 84 -268t-83.5 -267.5t-225.5 -99.5q-122 0 -201 74l-62 -81l-27 21l65 85q-84 100 -84 268t83.5 267.5t225.5 99.5q122 0 201 -74l62 81zM85 356q0 -147 70 -236l379 498q-72 69 -178 69q-124 0 -197.5 -90t-73.5 -241z
M356 25q124 0 197 89.5t73 241.5q0 147 -69 236l-379 -498q71 -69 178 -69z" />
    <glyph glyph-name="oslashacute" unicode="&#x1ff;" horiz-adv-x="539" 
d="M254 573h-36l93 139h48zM490 518l-55 -72q58 -70 58 -192q0 -124 -60 -194.5t-164 -70.5q-87 0 -144 51l-51 -68l-25 19l54 72q-56 72 -56 191q0 124 59 194.5t163 70.5q86 0 144 -50l52 68zM269 486q-86 0 -135.5 -61.5t-49.5 -170.5q0 -99 42 -161l266 347
q-48 46 -123 46zM269 22q88 0 137.5 61.5t49.5 170.5q0 100 -44 163l-265 -349q48 -46 122 -46z" />
    <glyph glyph-name="Scommaaccent" unicode="&#x218;" horiz-adv-x="586" 
d="M276 723q237 0 237 -235h-38q0 200 -199 200q-82 0 -129 -39.5t-47 -108.5q0 -68 43.5 -99.5t148.5 -56.5q62 -15 98 -28t70.5 -35t49.5 -56t15 -84q0 -89 -62 -140.5t-169 -51.5q-119 0 -182 62.5t-63 186.5h38q0 -214 207 -214q92 0 142.5 41.5t50.5 115.5
q0 39 -11.5 65.5t-41.5 44.5t-61 29t-89 25q-118 29 -170 69t-52 126q0 82 58 132.5t156 50.5zM311 -146l-39 -98h-20l31 98h-13v72h41v-72z" />
    <glyph glyph-name="scommaaccent" unicode="&#x219;" horiz-adv-x="461" 
d="M221 519q85 0 132.5 -46t48.5 -128h-37q0 67 -38 104t-106 37q-58 0 -94.5 -27.5t-36.5 -74.5t29.5 -66t108.5 -37q50 -11 78.5 -20t57 -25.5t41 -42t12.5 -62.5q0 -63 -49.5 -102.5t-128.5 -39.5q-93 0 -144 48.5t-52 135.5h36q0 -72 42 -111.5t118 -39.5q62 0 102 29.5
t40 77.5q0 53 -34 75t-129 43q-34 8 -54 13.5t-43.5 16t-36.5 23.5t-21.5 34t-8.5 48q0 62 47 99.5t120 37.5zM254 -146l-39 -98h-20l31 98h-13v72h41v-72z" />
    <glyph glyph-name="Tcommaaccent" unicode="&#x21a;" horiz-adv-x="579" 
d="M571 677h-263v-677h-37v677h-264v35h564v-35zM310 -146l-39 -98h-20l31 98h-13v72h41v-72z" />
    <glyph glyph-name="tcommaaccent" unicode="&#x21b;" horiz-adv-x="284" 
d="M218 31q19 0 35 4v-33q-20 -4 -39 -4q-56 0 -81 29t-25 96v353h-95v32h95v117h36v-117h104v-32h-104v-353q0 -50 17 -71t57 -21zM139 -74h41v-72l-39 -98h-20l31 98h-13v72z" />
    <glyph glyph-name="dotlessj" unicode="&#x237;" horiz-adv-x="220" 
d="M133 508v-552q0 -77 -31 -110.5t-89 -33.5q-15 0 -25 3v33q14 -2 23 -2q43 0 64.5 24.5t21.5 85.5v552h36z" />
    <glyph glyph-name="schwa" unicode="&#x259;" horiz-adv-x="526" 
d="M254 519q104 0 164.5 -72t60.5 -193q0 -120 -59.5 -192.5t-160.5 -72.5q-98 0 -155 71t-57 194v12h396q-1 104 -53 162.5t-136 58.5q-64 0 -106 -35t-53 -94h-37q12 72 63.5 116.5t132.5 44.5zM259 21q82 0 131 57.5t53 155.5h-361q3 -100 51.5 -156.5t125.5 -56.5z" />
    <glyph glyph-name="apostrophemod" unicode="&#x2bc;" horiz-adv-x="191" 
d="M124 633l-37 -127h-27l30 127h-13v79h47v-79z" />
    <glyph glyph-name="circumflex" unicode="&#x2c6;" horiz-adv-x="374" 
d="M281 573l-94 113l-95 -113h-42l117 139h40l117 -139h-43z" />
    <glyph glyph-name="caron" unicode="&#x2c7;" horiz-adv-x="374" 
d="M207 573h-40l-117 139h42l95 -113l94 113h43z" />
    <glyph glyph-name="firsttonechinese" unicode="&#x2c9;" horiz-adv-x="342" 
d="M292 637h-242v32h242v-32z" />
    <glyph glyph-name="breve" unicode="&#x2d8;" horiz-adv-x="388" 
d="M306 712h32q-6 -63 -43.5 -97.5t-100.5 -34.5t-100.5 34.5t-43.5 97.5h32q12 -101 112 -101t112 101z" />
    <glyph glyph-name="dotaccent" unicode="&#x2d9;" horiz-adv-x="136" 
d="M86 631h-36v81h36v-81z" />
    <glyph glyph-name="ring" unicode="&#x2da;" horiz-adv-x="280" 
d="M140 762q37 0 63.5 -26.5t26.5 -63.5t-26.5 -63.5t-63.5 -26.5q-38 0 -64 26t-26 64t26 64t64 26zM140 736q-27 0 -45.5 -18.5t-18.5 -45.5t18.5 -45.5t45.5 -18.5t45.5 18.5t18.5 45.5t-18.5 45.5t-45.5 18.5z" />
    <glyph glyph-name="ogonek" unicode="&#x2db;" horiz-adv-x="220" 
d="M133 5l34 -5q-46 -37 -64 -63t-18 -54q0 -44 49 -44q21 0 36 6v-29q-15 -6 -39 -6q-81 0 -81 70q0 33 19 61t64 64z" />
    <glyph glyph-name="tilde" unicode="&#x2dc;" horiz-adv-x="407" 
d="M326 702h31q-3 -44 -24.5 -68t-55.5 -24q-31 0 -77 30t-70 30q-44 0 -49 -60h-31q3 44 24.5 68t55.5 24q31 0 77 -30t69 -30q45 0 50 60z" />
    <glyph glyph-name="hungarumlaut" unicode="&#x2dd;" horiz-adv-x="385" 
d="M86 573h-36l117 139h49zM206 573h-36l117 139h48z" />
    <glyph glyph-name="commaturnedabovecomb" unicode="&#x312;" horiz-adv-x="0" 
d="M78 659h13v-72h-41v72l39 98h20z" />
    <glyph glyph-name="commaaccent" unicode="&#x326;" horiz-adv-x="0" 
d="M109 -146l-39 -98h-20l31 98h-13v72h41v-72z" />
    <glyph glyph-name="dbllowlinecomb" unicode="&#x333;" horiz-adv-x="0" 
d="M0 -76h-500v26h500v-26zM0 -196h-500v26h500v-26z" />
    <glyph glyph-name="numeralgreek" unicode="&#x374;" horiz-adv-x="142" 
d="M56 508h-26l43 204h39z" />
    <glyph glyph-name="lowernumeralgreek" unicode="&#x375;" horiz-adv-x="142" 
d="M56 -92h-26l43 204h39z" />
    <glyph glyph-name="questiongreek" unicode="&#x37e;" horiz-adv-x="172" 
d="M115 429h-48v79h48v-79zM114 0l-37 -127h-27l30 127h-13v79h47v-79z" />
    <glyph glyph-name="tonos" unicode="&#x384;" horiz-adv-x="183" 
d="M80 577h-31l47 155h38z" />
    <glyph glyph-name="dieresistonos" unicode="&#x385;" horiz-adv-x="363" 
d="M177 577h-30l41 137h35zM86 593h-36v83h36v-83zM313 593h-36v83h36v-83z" />
    <glyph glyph-name="Alphatonos" unicode="&#x386;" horiz-adv-x="648" 
d="M499 250h-351l-102 -250h-40l292 712h51l292 -712h-40zM107 517h-31l47 195h38zM485 285l-36 88l-125 306h-1l-125 -306l-36 -88h323z" />
    <glyph glyph-name="anoteleia" unicode="&#x387;" horiz-adv-x="171" 
d="M110 429h-49v79h49v-79z" />
    <glyph glyph-name="Epsilontonos" unicode="&#x388;" horiz-adv-x="597" 
d="M-26 517h-31l47 195h38zM527 677h-386v-294h368v-35h-368v-313h399v-35h-436v712h423v-35z" />
    <glyph glyph-name="Etatonos" unicode="&#x389;" horiz-adv-x="717" 
d="M-26 517h-31l47 195h38zM614 0h-38v352h-435v-352h-37v712h37v-325h435v325h38v-712z" />
    <glyph glyph-name="Iotatonos" unicode="&#x38a;" horiz-adv-x="245" 
d="M-26 517h-31l47 195h38zM141 0h-37v712h37v-712z" />
    <glyph glyph-name="Omicrontonos" unicode="&#x38c;" 
d="M356 723q142 0 225.5 -99.5t83.5 -267.5t-83.5 -267.5t-225.5 -99.5t-225.5 99.5t-83.5 267.5t83.5 267.5t225.5 99.5zM-3 517h-31l47 195h38zM356 687q-124 0 -197.5 -90t-73.5 -241t73.5 -241t197.5 -90t197 89.5t73 241.5t-73 241.5t-197 89.5z" />
    <glyph glyph-name="Upsilontonos" unicode="&#x38e;" horiz-adv-x="585" 
d="M-85 517h-31l47 195h38zM311 312v-312h-37v312l-268 400h45l108 -163l132 -199h2l134 201l107 161h45z" />
    <glyph glyph-name="Omegatonos" unicode="&#x38f;" horiz-adv-x="720" 
d="M360 723q139 0 221.5 -80.5t82.5 -235.5q0 -105 -47.5 -192.5t-134.5 -177.5v-2h193v-35h-238v36q92 95 140 180t48 190q0 138 -72 209.5t-193 71.5t-193.5 -71.5t-72.5 -209.5q0 -105 48.5 -190t140.5 -180v-36h-238v35h193v2q-87 90 -134.5 177.5t-47.5 192.5
q0 155 82.5 235.5t221.5 80.5zM-2 517h-31l47 195h38z" />
    <glyph glyph-name="iotadieresistonos" unicode="&#x390;" horiz-adv-x="239" 
d="M95 577h-30l41 137h35zM4 593h-36v83h36v-83zM231 593h-36v83h36v-83zM118 508v-373q0 -58 19 -81.5t59 -23.5q19 0 32 5v-33q-15 -5 -36 -5q-56 0 -83 32t-27 106v373h36z" />
    <glyph glyph-name="Alpha" unicode="&#x391;" horiz-adv-x="648" 
d="M499 250h-351l-102 -250h-40l292 712h51l292 -712h-40zM485 285l-36 88l-125 306h-1l-125 -306l-36 -88h323z" />
    <glyph glyph-name="Beta" unicode="&#x392;" horiz-adv-x="600" 
d="M104 712h207q109 0 165 -47.5t56 -129.5q0 -65 -35 -109t-98 -60v-1q67 -11 108 -57.5t41 -115.5q0 -89 -57.5 -140.5t-160.5 -51.5h-226v712zM141 678v-297h166q96 0 141.5 41.5t45.5 108.5q0 147 -186 147h-167zM141 347v-313h185q88 0 135.5 41.5t47.5 116.5
q0 71 -49.5 113t-152.5 42h-166z" />
    <glyph glyph-name="Gamma" unicode="&#x393;" horiz-adv-x="466" 
d="M104 0v712h355v-35h-318v-677h-37z" />
    <glyph glyph-name="Delta" unicode="&#x394;" horiz-adv-x="647" 
d="M641 0h-635l292 712h51zM586 35l-137 338l-125 306h-1l-125 -306l-138 -338h526z" />
    <glyph glyph-name="Epsilon" unicode="&#x395;" horiz-adv-x="597" 
d="M527 677h-386v-294h368v-35h-368v-313h399v-35h-436v712h423v-35z" />
    <glyph glyph-name="Zeta" unicode="&#x396;" horiz-adv-x="551" 
d="M513 670l-455 -633v-2h476v-35h-517v42l455 633v2h-449v35h490v-42z" />
    <glyph glyph-name="Eta" unicode="&#x397;" horiz-adv-x="717" 
d="M614 0h-38v352h-435v-352h-37v712h37v-325h435v325h38v-712z" />
    <glyph glyph-name="Theta" unicode="&#x398;" 
d="M356 723q142 0 225.5 -99.5t83.5 -267.5t-83.5 -267.5t-225.5 -99.5t-225.5 99.5t-83.5 267.5t83.5 267.5t225.5 99.5zM356 687q-124 0 -197.5 -90t-73.5 -241t73.5 -241t197.5 -90t197 89.5t73 241.5t-73 241.5t-197 89.5zM512 338h-313v37h313v-37z" />
    <glyph glyph-name="Iota" unicode="&#x399;" horiz-adv-x="245" 
d="M141 0h-37v712h37v-712z" />
    <glyph glyph-name="Kappa" unicode="&#x39a;" horiz-adv-x="567" 
d="M184 373l378 -373h-54l-366 363h-1v-363h-37v712h37v-329h1l335 329h53z" />
    <glyph glyph-name="Lambda" unicode="&#x39b;" horiz-adv-x="630" 
d="M624 0h-42l-146 372l-120 306h-2l-120 -306l-147 -372h-41l283 712h52z" />
    <glyph glyph-name="Mu" unicode="&#x39c;" horiz-adv-x="876" 
d="M772 0h-37v377v293h-2l-121 -299l-152 -371h-45l-151 371l-122 299h-1v-293v-377h-37v712h61l158 -389l114 -282h2l114 282l158 389h61v-712z" />
    <glyph glyph-name="Nu" unicode="&#x39d;" horiz-adv-x="730" 
d="M627 0h-59l-205 326l-221 349h-1v-373v-302h-37v712h58l205 -326l221 -349h1v373v302h38v-712z" />
    <glyph glyph-name="Xi" unicode="&#x39e;" horiz-adv-x="645" 
d="M569 675h-492v37h492v-37zM552 342h-458v38h458v-38zM583 0h-520v37h520v-37z" />
    <glyph glyph-name="Omicron" unicode="&#x39f;" 
d="M356 723q142 0 225.5 -99.5t83.5 -267.5t-83.5 -267.5t-225.5 -99.5t-225.5 99.5t-83.5 267.5t83.5 267.5t225.5 99.5zM356 687q-124 0 -197.5 -90t-73.5 -241t73.5 -241t197.5 -90t197 89.5t73 241.5t-73 241.5t-197 89.5z" />
    <glyph glyph-name="Pi" unicode="&#x3a0;" horiz-adv-x="707" 
d="M604 0h-38v677h-425v-677h-37v712h500v-712z" />
    <glyph glyph-name="Rho" unicode="&#x3a1;" horiz-adv-x="589" 
d="M104 712h228q110 0 168.5 -53.5t58.5 -143.5t-58.5 -143.5t-168.5 -53.5h-191v-318h-37v712zM141 677v-324h191q92 0 140 43.5t48 118.5t-48 118.5t-140 43.5h-191z" />
    <glyph glyph-name="Sigma" unicode="&#x3a3;" horiz-adv-x="541" 
d="M510 677h-432v-2l224 -313l-234 -325v-2h456v-35h-504v35l235 327l-224 315v35h479v-35z" />
    <glyph glyph-name="Tau" unicode="&#x3a4;" horiz-adv-x="579" 
d="M571 677h-263v-677h-37v677h-264v35h564v-35z" />
    <glyph glyph-name="Upsilon" unicode="&#x3a5;" horiz-adv-x="585" 
d="M311 312v-312h-37v312l-268 400h45l108 -163l132 -199h2l134 201l107 161h45z" />
    <glyph glyph-name="Phi" unicode="&#x3a6;" horiz-adv-x="751" 
d="M394 734v-73q146 -5 228 -83t82 -219t-82 -219t-228 -83v-79h-37v79q-146 5 -228 83t-82 219t82 219t228 83v73h37zM357 93v532q-128 -3 -200 -72t-72 -194t72 -194t200 -72zM394 625v-532q128 3 199.5 72t71.5 194t-71.5 194t-199.5 72z" />
    <glyph glyph-name="Chi" unicode="&#x3a7;" horiz-adv-x="604" 
d="M326 366l267 -366h-46l-244 335h-2l-244 -335h-46l268 366l-253 346h46l229 -314h2l229 314h46z" />
    <glyph glyph-name="Psi" unicode="&#x3a8;" horiz-adv-x="723" 
d="M673 712v-215q0 -161 -68 -229t-225 -72v-196h-37v196q-156 4 -224.5 72t-68.5 229v215h37v-215q0 -144 58.5 -202t197.5 -61v478h37v-478q139 3 197.5 61t58.5 202v215h37z" />
    <glyph glyph-name="Omega" unicode="&#x3a9;" horiz-adv-x="720" 
d="M360 723q139 0 221.5 -80.5t82.5 -235.5q0 -105 -47.5 -192.5t-134.5 -177.5v-2h193v-35h-238v36q92 95 140 180t48 190q0 138 -72 209.5t-193 71.5t-193.5 -71.5t-72.5 -209.5q0 -105 48.5 -190t140.5 -180v-36h-238v35h193v2q-87 90 -134.5 177.5t-47.5 192.5
q0 155 82.5 235.5t221.5 80.5z" />
    <glyph glyph-name="Iotadieresis" unicode="&#x3aa;" horiz-adv-x="245" 
d="M49 835h-36v81h36v-81zM232 835h-36v81h36v-81zM141 0h-37v712h37v-712z" />
    <glyph glyph-name="Upsilondieresis" unicode="&#x3ab;" horiz-adv-x="585" 
d="M219 779h-36v81h36v-81zM402 779h-36v81h36v-81zM311 312v-312h-37v312l-268 400h45l108 -163l132 -199h2l134 201l107 161h45z" />
    <glyph glyph-name="alphatonos" unicode="&#x3ac;" horiz-adv-x="562" 
d="M280 577h-31l47 155h38zM260 519q61 0 106 -33t65 -92h1q2 64 9 114h36q-11 -68 -11 -180v-219q0 -47 11.5 -64t37.5 -17q13 0 24 4v-31q-18 -5 -34 -5q-39 0 -56.5 25.5t-17.5 90.5h-1q-20 -58 -64.5 -90t-105.5 -32q-98 0 -155.5 71t-57.5 193q0 123 57.5 194t155.5 71
zM263 487q-83 0 -131 -62.5t-48 -170.5q0 -107 48 -169.5t131 -62.5q78 0 123.5 62.5t45.5 169.5q0 108 -45.5 170.5t-123.5 62.5z" />
    <glyph glyph-name="epsilontonos" unicode="&#x3ad;" horiz-adv-x="468" 
d="M254 577h-31l47 155h38zM237 519q82 0 130 -40.5t48 -111.5h-37q0 57 -37 87.5t-102 30.5q-62 0 -97 -27.5t-35 -77.5q0 -49 39 -77.5t107 -28.5h56v-32h-56q-77 0 -119.5 -29t-42.5 -83q0 -49 39.5 -78t110.5 -29q70 0 108 31t38 88h38q0 -71 -49 -112t-135 -41
q-87 0 -137.5 38.5t-50.5 102.5q0 102 116 128v2q-100 29 -100 122q0 63 45 100t123 37z" />
    <glyph glyph-name="etatonos" unicode="&#x3ae;" horiz-adv-x="557" 
d="M271 577h-31l47 155h38zM299 518q85 0 131 -52.5t46 -156.5v-494h-36v493q0 178 -145 178q-68 0 -115.5 -48t-47.5 -127v-311h-36v385q0 53 -12 73.5t-37 20.5q-13 0 -24 -4v32q15 5 30 5q70 0 75 -99h2q24 49 68.5 77t100.5 28z" />
    <glyph glyph-name="iotatonos" unicode="&#x3af;" horiz-adv-x="239" 
d="M113 577h-31l47 155h38zM118 508v-373q0 -58 19 -81.5t59 -23.5q19 0 32 5v-33q-15 -5 -36 -5q-56 0 -83 32t-27 106v373h36z" />
    <glyph glyph-name="upsilondieresistonos" unicode="&#x3b0;" horiz-adv-x="551" 
d="M259 577h-30l41 137h35zM168 593h-36v83h36v-83zM395 593h-36v83h36v-83zM53 512q42 0 60.5 -25.5t18.5 -91.5v-221q0 -80 37.5 -116t113.5 -36q168 0 168 223q0 145 -40 263h35q41 -117 41 -263q0 -256 -204 -256q-188 0 -188 184v218q0 52 -10.5 70t-38.5 18
q-13 0 -24 -4v32q17 5 31 5z" />
    <glyph glyph-name="alpha" unicode="&#x3b1;" horiz-adv-x="562" 
d="M260 519q61 0 106 -33t65 -92h1q2 64 9 114h36q-11 -68 -11 -180v-219q0 -47 11.5 -64t37.5 -17q13 0 24 4v-31q-18 -5 -34 -5q-39 0 -56.5 25.5t-17.5 90.5h-1q-20 -58 -64.5 -90t-105.5 -32q-98 0 -155.5 71t-57.5 193q0 123 57.5 194t155.5 71zM263 487
q-83 0 -131 -62.5t-48 -170.5q0 -107 48 -169.5t131 -62.5q78 0 123.5 62.5t45.5 169.5q0 108 -45.5 170.5t-123.5 62.5z" />
    <glyph glyph-name="beta" unicode="&#x3b2;" horiz-adv-x="559" 
d="M288 723q87 0 136 -45.5t49 -123.5q0 -66 -35 -108.5t-98 -55.5v-2q78 -8 126.5 -56t48.5 -140q0 -94 -59 -148t-160 -54q-132 0 -171 87h-1v-262h-36v657q0 251 200 251zM288 690q-85 0 -124.5 -52.5t-39.5 -164.5v-291q0 -74 43 -116t129 -42q85 0 133.5 45.5
t48.5 125.5q0 91 -58 133t-179 42h-19v35h19q195 0 195 147q0 64 -38 101t-110 37z" />
    <glyph glyph-name="gamma" unicode="&#x3b3;" horiz-adv-x="489" 
d="M434 508h36q-15 -142 -61.5 -255.5t-139.5 -244.5v-14q0 -89 -11 -179h-36q11 90 11 179q0 82 -30 197.5t-82 211.5q-24 45 -44 60.5t-44 15.5q-13 0 -23 -3v32q18 4 30 4q32 0 57 -18.5t53 -70.5q45 -86 74.5 -186.5t35.5 -182.5h2q78 119 118.5 222.5t53.5 231.5z" />
    <glyph glyph-name="delta" unicode="&#x3b4;" horiz-adv-x="539" 
d="M234 722q110 0 210 -35v-36q-100 38 -207 38q-92 0 -92 -51q0 -28 30 -51.5t108 -66.5q6 -3 9 -5q102 -56 151 -124t49 -167q0 -108 -60.5 -171.5t-161.5 -63.5q-102 0 -162.5 63.5t-60.5 171.5q0 102 53 170.5t150 100.5v2q-80 45 -110.5 72.5t-30.5 68.5q0 84 125 84z
M286 477q-96 -28 -149 -92t-53 -161q0 -93 50.5 -147.5t135.5 -54.5t135.5 54.5t50.5 147.5q0 86 -41.5 145t-128.5 108z" />
    <glyph glyph-name="epsilon" unicode="&#x3b5;" horiz-adv-x="468" 
d="M237 519q82 0 130 -40.5t48 -111.5h-37q0 57 -37 87.5t-102 30.5q-62 0 -97 -27.5t-35 -77.5q0 -49 39 -77.5t107 -28.5h56v-32h-56q-77 0 -119.5 -29t-42.5 -83q0 -49 39.5 -78t110.5 -29q70 0 108 31t38 88h38q0 -71 -49 -112t-135 -41q-87 0 -137.5 38.5t-50.5 102.5
q0 102 116 128v2q-100 29 -100 122q0 63 45 100t123 37z" />
    <glyph glyph-name="zeta" unicode="&#x3b6;" horiz-adv-x="425" 
d="M392 712v-32q-144 -88 -225.5 -202t-81.5 -244q0 -82 41 -123.5t140 -53.5q79 -9 111.5 -37t32.5 -76q0 -45 -23 -89h-36q23 40 23 84q0 36 -23.5 55.5t-88.5 26.5q-113 13 -163.5 64.5t-50.5 146.5q0 133 79 247t211 199v2h-263v32h317z" />
    <glyph glyph-name="eta" unicode="&#x3b7;" horiz-adv-x="557" 
d="M299 518q85 0 131 -52.5t46 -156.5v-494h-36v493q0 178 -145 178q-68 0 -115.5 -48t-47.5 -127v-311h-36v385q0 53 -12 73.5t-37 20.5q-13 0 -24 -4v32q15 5 30 5q70 0 75 -99h2q24 49 68.5 77t100.5 28z" />
    <glyph glyph-name="theta" unicode="&#x3b8;" horiz-adv-x="564" 
d="M281 723q109 0 171 -97.5t62 -269.5t-62 -269.5t-171 -97.5q-108 0 -169.5 97.5t-61.5 269.5t61.5 269.5t169.5 97.5zM281 690q-89 0 -140.5 -84t-54.5 -234h392q-3 150 -55 234t-142 84zM281 22q90 0 142 84t55 234h-392q3 -150 54.5 -234t140.5 -84z" />
    <glyph glyph-name="iota" unicode="&#x3b9;" horiz-adv-x="239" 
d="M118 508v-373q0 -58 19 -81.5t59 -23.5q19 0 32 5v-33q-15 -5 -36 -5q-56 0 -83 32t-27 106v373h36z" />
    <glyph glyph-name="kappa" unicode="&#x3ba;" horiz-adv-x="482" 
d="M430 0l-255 251l-51 -58v-193h-36v508h36v-265h1l125 140q67 76 107.5 102t88.5 26q4 0 25 -3v-33q-12 2 -22 2q-41 0 -79 -26t-105 -100l-66 -74l283 -277h-52z" />
    <glyph glyph-name="lambda" unicode="&#x3bb;" horiz-adv-x="530" 
d="M86 716q63 0 102 -42t84 -160l147 -385q22 -59 41 -79t44 -20q8 0 16 2v-32q-18 -3 -21 -3q-37 0 -62 24t-51 94l-133 347h-1l-122 -264l-92 -198h-39l236 510q-38 100 -70 136.5t-82 36.5q-28 0 -46 -7v32q21 8 49 8z" />
    <glyph glyph-name="mu" unicode="&#x3bc;" horiz-adv-x="556" 
d="M464 508v-388q0 -54 10.5 -72.5t38.5 -18.5q13 0 24 4v-32q-18 -5 -34 -5q-37 0 -54.5 21.5t-19.5 75.5h-1q-20 -47 -64.5 -74.5t-99.5 -27.5q-104 0 -140 83v-259h-36v693h36v-306q0 -178 142 -178q68 0 115 47.5t47 129.5v307h36z" />
    <glyph glyph-name="nu" unicode="&#x3bd;" horiz-adv-x="482" 
d="M34 511q37 0 61.5 -26.5t46.5 -93.5l120 -353h2q96 170 130 261.5t34 168.5q0 20 -3 40h35q4 -17 4 -41q0 -84 -36.5 -177.5t-146.5 -289.5h-44l-129 379q-20 57 -37.5 78t-44.5 21q-10 0 -16 -3v32q12 4 24 4z" />
    <glyph glyph-name="xi" unicode="&#x3be;" horiz-adv-x="437" 
d="M414 680h-61q-110 0 -170.5 -41t-60.5 -115q0 -61 48.5 -93t124.5 -32h80v-32h-65q-115 0 -169.5 -44t-54.5 -120q0 -68 43.5 -102t148.5 -44q79 -8 111 -36t32 -77q0 -48 -23 -89h-35q22 41 22 84q0 36 -23.5 56t-87.5 26q-119 11 -172.5 55.5t-53.5 126.5q0 70 40 117
t119 62v2q-57 13 -89 49t-32 89q0 116 120 156v2h-140v32h348v-32z" />
    <glyph glyph-name="omicron" unicode="&#x3bf;" horiz-adv-x="539" 
d="M269 519q104 0 163.5 -70.5t59.5 -194.5t-59.5 -194.5t-163.5 -70.5t-163 70.5t-59 194.5t59 194.5t163 70.5zM269 486q-87 0 -136 -61.5t-49 -170.5t49 -170.5t136 -61.5q88 0 137 61.5t49 170.5t-49 170.5t-137 61.5z" />
    <glyph glyph-name="pi" unicode="&#x3c0;" horiz-adv-x="632" 
d="M613 476h-134v-338q0 -61 20 -85t60 -24q18 0 31 5v-32q-20 -6 -40 -6q-52 0 -79.5 32t-27.5 108v340h-279v-476h-36v476h-114v32h599v-32z" />
    <glyph glyph-name="rho" unicode="&#x3c1;" horiz-adv-x="550" 
d="M284 519q102 0 161 -70.5t59 -194.5q0 -123 -59 -193.5t-160 -70.5q-123 0 -166 115h-1v-290h-36v439q0 122 54.5 193.5t147.5 71.5zM284 486q-77 0 -121.5 -62t-44.5 -170t44.5 -169.5t121.5 -61.5q86 0 134.5 61t48.5 170t-48.5 170.5t-134.5 61.5z" />
    <glyph glyph-name="sigmafinal" unicode="&#x3c2;" horiz-adv-x="479" 
d="M260 519q88 0 140 -48t59 -131h-37q-6 67 -48 106.5t-114 39.5q-84 0 -131 -55.5t-47 -154.5q0 -94 45 -143.5t142 -60.5q75 -9 106 -41t31 -87q0 -48 -23 -89h-35q22 41 22 84t-22.5 66.5t-83.5 30.5q-219 25 -219 238q0 115 57.5 180t157.5 65z" />
    <glyph glyph-name="sigma" unicode="&#x3c3;" horiz-adv-x="566" 
d="M552 476h-172v-2q112 -55 112 -226q0 -121 -59.5 -190t-163.5 -69q-103 0 -162.5 69.5t-59.5 190.5t59.5 190t162.5 69h283v-32zM269 476q-86 0 -135.5 -60.5t-49.5 -166.5q0 -107 49 -167t136 -60q88 0 137.5 60t49.5 167t-49.5 167t-137.5 60z" />
    <glyph glyph-name="tau" unicode="&#x3c4;" horiz-adv-x="466" 
d="M452 476h-209v-338q0 -61 20 -85t60 -24q18 0 31 5v-32q-20 -6 -39 -6q-53 0 -80.5 32t-27.5 108v340h-193v32h438v-32z" />
    <glyph glyph-name="upsilon" unicode="&#x3c5;" horiz-adv-x="551" 
d="M53 512q42 0 60.5 -25.5t18.5 -91.5v-221q0 -80 37.5 -116t113.5 -36q168 0 168 223q0 145 -40 263h35q41 -117 41 -263q0 -256 -204 -256q-188 0 -188 184v218q0 52 -10.5 70t-38.5 18q-13 0 -24 -4v32q17 5 31 5z" />
    <glyph glyph-name="phi" unicode="&#x3c6;" horiz-adv-x="711" 
d="M664 254q0 -122 -77.5 -193t-213.5 -72v-174h-36v174q-134 2 -212 73t-78 192t78 192t212 73v143h36v-143q136 -1 213.5 -72t77.5 -193zM84 254q0 -108 67 -169t186 -63v464q-119 -2 -186 -63t-67 -169zM373 486v-464q120 2 187.5 63t67.5 169t-67.5 169t-187.5 63z" />
    <glyph glyph-name="chi" unicode="&#x3c7;" horiz-adv-x="540" 
d="M55 516q49 0 78 -24t56 -88l85 -206h1l202 310h42l-226 -347l91 -219q25 -60 46.5 -79t56.5 -19q20 0 43 5v-33q-25 -5 -47 -5q-46 0 -74.5 23t-56.5 92l-83 203h-2l-204 -314h-42l230 349l-93 223q-24 58 -45.5 77t-60.5 19q-25 0 -42 -7v32q21 8 45 8z" />
    <glyph glyph-name="psi" unicode="&#x3c8;" 
d="M646 245q0 -249 -267 -255v-175h-36v175q-130 2 -195.5 54t-65.5 161v303h36v-298q0 -95 56 -140t169 -47v639h36v-639q231 6 231 223q0 145 -41 262h36q41 -117 41 -263z" />
    <glyph glyph-name="omega" unicode="&#x3c9;" horiz-adv-x="733" 
d="M564 508h37q65 -127 65 -284q0 -235 -163 -235q-107 0 -136 95h-1q-29 -95 -136 -95q-163 0 -163 235q0 157 65 284h37q-66 -127 -66 -282q0 -204 131 -204q115 0 115 142v213h36v-213q0 -142 114 -142q131 0 131 204q0 155 -66 282z" />
    <glyph glyph-name="iotadieresis" unicode="&#x3ca;" horiz-adv-x="239" 
d="M26 631h-36v81h36v-81zM209 631h-36v81h36v-81zM118 508v-373q0 -58 19 -81.5t59 -23.5q19 0 32 5v-33q-15 -5 -36 -5q-56 0 -83 32t-27 106v373h36z" />
    <glyph glyph-name="upsilondieresis" unicode="&#x3cb;" horiz-adv-x="551" 
d="M190 631h-36v81h36v-81zM373 631h-36v81h36v-81zM53 512q42 0 60.5 -25.5t18.5 -91.5v-221q0 -80 37.5 -116t113.5 -36q168 0 168 223q0 145 -40 263h35q41 -117 41 -263q0 -256 -204 -256q-188 0 -188 184v218q0 52 -10.5 70t-38.5 18q-13 0 -24 -4v32q17 5 31 5z" />
    <glyph glyph-name="omicrontonos" unicode="&#x3cc;" horiz-adv-x="539" 
d="M283 577h-31l47 155h38zM269 519q104 0 163.5 -70.5t59.5 -194.5t-59.5 -194.5t-163.5 -70.5t-163 70.5t-59 194.5t59 194.5t163 70.5zM269 486q-87 0 -136 -61.5t-49 -170.5t49 -170.5t136 -61.5q88 0 137 61.5t49 170.5t-49 170.5t-137 61.5z" />
    <glyph glyph-name="upsilontonos" unicode="&#x3cd;" horiz-adv-x="551" 
d="M277 577h-31l47 155h38zM53 512q42 0 60.5 -25.5t18.5 -91.5v-221q0 -80 37.5 -116t113.5 -36q168 0 168 223q0 145 -40 263h35q41 -117 41 -263q0 -256 -204 -256q-188 0 -188 184v218q0 52 -10.5 70t-38.5 18q-13 0 -24 -4v32q17 5 31 5z" />
    <glyph glyph-name="omegatonos" unicode="&#x3ce;" horiz-adv-x="733" 
d="M380 577h-31l47 155h38zM564 508h37q65 -127 65 -284q0 -235 -163 -235q-107 0 -136 95h-1q-29 -95 -136 -95q-163 0 -163 235q0 157 65 284h37q-66 -127 -66 -282q0 -204 131 -204q115 0 115 142v213h36v-213q0 -142 114 -142q131 0 131 204q0 155 -66 282z" />
    <glyph glyph-name="Iegravecy" unicode="&#x400;" horiz-adv-x="597" 
d="M272 890l100 -130h-38l-111 130h49zM527 677h-386v-294h368v-35h-368v-313h399v-35h-436v712h423v-35z" />
    <glyph glyph-name="Iocy" unicode="&#x401;" horiz-adv-x="597" 
d="M242 779h-36v81h36v-81zM425 779h-36v81h36v-81zM527 677h-386v-294h368v-35h-368v-313h399v-35h-436v712h423v-35z" />
    <glyph glyph-name="Djecy" unicode="&#x402;" horiz-adv-x="746" 
d="M571 677h-263v-278q79 44 175 44q113 0 173 -59t60 -167q0 -104 -63 -164.5t-168 -60.5q-47 0 -81 8v36q32 -9 81 -9q89 0 141 51t52 139q0 93 -49.5 142t-145.5 49t-175 -46v-362h-37v677h-264v35h564v-35z" />
    <glyph glyph-name="Gjecy" unicode="&#x403;" horiz-adv-x="466" 
d="M259 760h-37l99 130h50zM104 0v712h355v-35h-318v-677h-37z" />
    <glyph glyph-name="Ecy" unicode="&#x404;" horiz-adv-x="671" 
d="M579 237h39q-11 -112 -84.5 -180t-190.5 -68q-137 0 -216.5 98.5t-79.5 268.5q0 169 81 268t219 99q119 0 190 -69.5t77 -175.5h-39q-7 93 -67.5 151t-160.5 58q-117 0 -187 -84t-75 -229h364v-35h-364q5 -146 73.5 -230t184.5 -84q98 0 161.5 58.5t74.5 153.5z" />
    <glyph glyph-name="Dzecy" unicode="&#x405;" horiz-adv-x="586" 
d="M276 723q237 0 237 -235h-38q0 200 -199 200q-82 0 -129 -39.5t-47 -108.5q0 -68 43.5 -99.5t148.5 -56.5q62 -15 98 -28t70.5 -35t49.5 -56t15 -84q0 -89 -62 -140.5t-169 -51.5q-119 0 -182 62.5t-63 186.5h38q0 -214 207 -214q92 0 142.5 41.5t50.5 115.5
q0 39 -11.5 65.5t-41.5 44.5t-61 29t-89 25q-118 29 -170 69t-52 126q0 82 58 132.5t156 50.5z" />
    <glyph glyph-name="Icy" unicode="&#x406;" horiz-adv-x="245" 
d="M141 0h-37v712h37v-712z" />
    <glyph glyph-name="Yicy" unicode="&#x407;" horiz-adv-x="245" 
d="M49 779h-36v81h36v-81zM232 779h-36v81h36v-81zM141 0h-37v712h37v-712z" />
    <glyph glyph-name="Jecy" unicode="&#x408;" horiz-adv-x="318" 
d="M220 712v-531q0 -91 -43 -138t-122 -47q-23 0 -40 5v36q23 -5 40 -5q127 0 127 149v531h38z" />
    <glyph glyph-name="Ljecy" unicode="&#x409;" horiz-adv-x="1021" 
d="M573 394h191q110 0 168.5 -53.5t58.5 -143.5t-58.5 -143.5t-168.5 -53.5h-228v677h-316q-4 -219 -14.5 -350t-33.5 -206t-53.5 -99.5t-81.5 -24.5q-16 0 -24 3v34q8 -2 19 -2q58 0 86.5 49.5t44 192.5t21.5 438h389v-318zM573 359v-324h191q92 0 140 43.5t48 118.5
t-48 118.5t-140 43.5h-191z" />
    <glyph glyph-name="Njecy" unicode="&#x40a;" horiz-adv-x="1062" 
d="M614 394h191q110 0 168.5 -53.5t58.5 -143.5t-58.5 -143.5t-168.5 -53.5h-229v359h-435v-359h-37v712h37v-318h435v318h38v-318zM614 35h191q92 0 140 44t48 118t-48 118t-140 44h-191v-324z" />
    <glyph glyph-name="Tshecy" unicode="&#x40b;" horiz-adv-x="742" 
d="M495 429q101 0 154.5 -53t53.5 -151v-225h-38v224q0 82 -44 126t-129 44q-99 0 -184 -29v-365h-37v677h-264v35h564v-35h-263v-277q89 29 187 29z" />
    <glyph glyph-name="Kjecy" unicode="&#x40c;" horiz-adv-x="567" 
d="M282 760h-37l99 130h50zM184 373l378 -373h-54l-366 363h-1v-363h-37v712h37v-329h1l335 329h53z" />
    <glyph glyph-name="Iigravecy" unicode="&#x40d;" horiz-adv-x="730" 
d="M322 890l100 -130h-38l-111 130h49zM141 712v-302v-373h1l221 349l205 326h59v-712h-38v302v373h-1l-221 -349l-205 -326h-58v712h37z" />
    <glyph glyph-name="Ushortcy" unicode="&#x40e;" horiz-adv-x="617" 
d="M420 890h32q-6 -63 -43 -97.5t-101 -34.5t-101 34.5t-43 97.5h32q12 -101 112 -101t112 101zM610 712l-289 -580q-38 -74 -79.5 -106t-98.5 -32q-31 0 -52 6v35q19 -6 49 -6q47 0 81 25.5t66 89.5l-280 568h42l125 -257l132 -270h2l132 268l128 259h42z" />
    <glyph glyph-name="Dzhecy" unicode="&#x40f;" horiz-adv-x="709" 
d="M606 0h-233v-160h-36v160h-233v712h37v-677h427v677h38v-712z" />
    <glyph glyph-name="Acy" unicode="&#x410;" horiz-adv-x="648" 
d="M499 250h-351l-102 -250h-40l292 712h51l292 -712h-40zM485 285l-36 88l-125 306h-1l-125 -306l-36 -88h323z" />
    <glyph glyph-name="Becy" unicode="&#x411;" horiz-adv-x="596" 
d="M516 677h-375v-280h192q104 0 163 -53.5t59 -145.5q0 -91 -59 -144.5t-163 -53.5h-229v712h412v-35zM141 362v-327h187q89 0 138.5 43.5t49.5 119.5q0 77 -49.5 120.5t-138.5 43.5h-187z" />
    <glyph glyph-name="Vecy" unicode="&#x412;" horiz-adv-x="600" 
d="M104 712h207q109 0 165 -47.5t56 -129.5q0 -65 -35 -109t-98 -60v-1q67 -11 108 -57.5t41 -115.5q0 -89 -57.5 -140.5t-160.5 -51.5h-226v712zM141 678v-297h166q96 0 141.5 41.5t45.5 108.5q0 147 -186 147h-167zM141 347v-313h185q88 0 135.5 41.5t47.5 116.5
q0 71 -49.5 113t-152.5 42h-166z" />
    <glyph glyph-name="Gecy" unicode="&#x413;" horiz-adv-x="466" 
d="M104 0v712h355v-35h-318v-677h-37z" />
    <glyph glyph-name="Decy" unicode="&#x414;" horiz-adv-x="681" 
d="M649 35v-195h-36v160h-560v-160h-36v195h66q41 63 64.5 213t28.5 464h401v-677h72zM540 677h-327q-9 -498 -86 -642h413v642z" />
    <glyph glyph-name="Iecy" unicode="&#x415;" horiz-adv-x="597" 
d="M527 677h-386v-294h368v-35h-368v-313h399v-35h-436v712h423v-35z" />
    <glyph glyph-name="Zhecy" unicode="&#x416;" horiz-adv-x="822" 
d="M475 373l343 -373h-50l-337 369h-1v-369h-38v369h-1l-337 -369h-50l343 373l-314 339h49l309 -335h1v335h38v-335h1l309 335h49z" />
    <glyph glyph-name="Zecy" unicode="&#x417;" horiz-adv-x="590" 
d="M281 722q111 0 175.5 -50.5t64.5 -135.5q0 -133 -146 -172v-2q162 -34 162 -179q0 -88 -68 -141t-185 -53q-116 0 -182 56t-66 151h41q0 -81 54 -126t153 -45q101 0 157 43t56 115q0 77 -59 119t-166 42h-66v35h64q100 0 155.5 41.5t55.5 112.5t-54 112t-148 41
q-92 0 -145 -44t-53 -125h-40q0 96 65.5 150.5t174.5 54.5z" />
    <glyph glyph-name="Iicy" unicode="&#x418;" horiz-adv-x="730" 
d="M141 712v-302v-373h1l221 349l205 326h59v-712h-38v302v373h-1l-221 -349l-205 -326h-58v712h37z" />
    <glyph glyph-name="Iishortcy" unicode="&#x419;" horiz-adv-x="730" 
d="M477 890h32q-6 -63 -43.5 -97.5t-100.5 -34.5q-64 0 -101 34.5t-43 97.5h32q12 -101 112 -101t112 101zM141 712v-302v-373h1l221 349l205 326h59v-712h-38v302v373h-1l-221 -349l-205 -326h-58v712h37z" />
    <glyph glyph-name="Kacy" unicode="&#x41a;" horiz-adv-x="567" 
d="M184 373l378 -373h-54l-366 363h-1v-363h-37v712h37v-329h1l335 329h53z" />
    <glyph glyph-name="Elcy" unicode="&#x41b;" horiz-adv-x="677" 
d="M573 0h-37v677h-316q-4 -219 -14.5 -350t-33.5 -206t-53.5 -99.5t-81.5 -24.5q-16 0 -24 3v34q8 -2 19 -2q58 0 86.5 49.5t44 192.5t21.5 438h389v-712z" />
    <glyph glyph-name="Emcy" unicode="&#x41c;" horiz-adv-x="876" 
d="M772 0h-37v377v293h-2l-121 -299l-152 -371h-45l-151 371l-122 299h-1v-293v-377h-37v712h61l158 -389l114 -282h2l114 282l158 389h61v-712z" />
    <glyph glyph-name="Ency" unicode="&#x41d;" horiz-adv-x="717" 
d="M614 0h-38v352h-435v-352h-37v712h37v-325h435v325h38v-712z" />
    <glyph glyph-name="Ocy" unicode="&#x41e;" 
d="M356 723q142 0 225.5 -99.5t83.5 -267.5t-83.5 -267.5t-225.5 -99.5t-225.5 99.5t-83.5 267.5t83.5 267.5t225.5 99.5zM356 687q-124 0 -197.5 -90t-73.5 -241t73.5 -241t197.5 -90t197 89.5t73 241.5t-73 241.5t-197 89.5z" />
    <glyph glyph-name="Pecy" unicode="&#x41f;" horiz-adv-x="707" 
d="M604 0h-38v677h-425v-677h-37v712h500v-712z" />
    <glyph glyph-name="Ercy" unicode="&#x420;" horiz-adv-x="589" 
d="M104 712h228q110 0 168.5 -53.5t58.5 -143.5t-58.5 -143.5t-168.5 -53.5h-191v-318h-37v712zM141 677v-324h191q92 0 140 43.5t48 118.5t-48 118.5t-140 43.5h-191z" />
    <glyph glyph-name="Escy" unicode="&#x421;" horiz-adv-x="671" 
d="M347 723q119 0 190 -69.5t77 -175.5h-39q-7 93 -67.5 151t-160.5 58q-121 0 -191.5 -89t-70.5 -242t69.5 -242t188.5 -89q98 0 161.5 58.5t74.5 153.5h39q-11 -112 -84.5 -180t-190.5 -68q-137 0 -216.5 98.5t-79.5 268.5q0 169 81 268t219 99z" />
    <glyph glyph-name="Tecy" unicode="&#x422;" horiz-adv-x="579" 
d="M571 677h-263v-677h-37v677h-264v35h564v-35z" />
    <glyph glyph-name="Ucy" unicode="&#x423;" horiz-adv-x="617" 
d="M610 712l-289 -580q-38 -74 -79.5 -106t-98.5 -32q-31 0 -52 6v35q19 -6 49 -6q47 0 81 25.5t66 89.5l-280 568h42l125 -257l132 -270h2l132 268l128 259h42z" />
    <glyph glyph-name="Efcy" unicode="&#x424;" horiz-adv-x="790" 
d="M744 356q0 -135 -88.5 -214.5t-241.5 -82.5v-80h-38v80q-153 3 -242 82.5t-89 214.5t89 214.5t242 82.5v80h38v-80q153 -3 241.5 -82.5t88.5 -214.5zM84 356q0 -118 79 -188t213 -73v522q-134 -3 -213 -73t-79 -188zM414 617v-522q134 3 212.5 73t78.5 188t-78.5 188
t-212.5 73z" />
    <glyph glyph-name="Hacy" unicode="&#x425;" horiz-adv-x="604" 
d="M326 366l267 -366h-46l-244 335h-2l-244 -335h-46l268 366l-253 346h46l229 -314h2l229 314h46z" />
    <glyph glyph-name="Tsecy" unicode="&#x426;" horiz-adv-x="709" 
d="M606 35h71v-195h-36v160h-537v712h37v-677h427v677h38v-677z" />
    <glyph glyph-name="Checy" unicode="&#x427;" horiz-adv-x="605" 
d="M501 0h-37v325q-96 -28 -198 -28q-110 0 -168.5 52.5t-58.5 150.5v212h37v-210q0 -83 49.5 -126.5t143.5 -43.5q108 0 195 29v351h37v-712z" />
    <glyph glyph-name="Shacy" unicode="&#x428;" horiz-adv-x="1004" 
d="M900 0h-796v712h37v-677h342v677h38v-677h342v677h37v-712z" />
    <glyph glyph-name="Shchacy" unicode="&#x429;" horiz-adv-x="1004" 
d="M900 35h72v-195h-36v160h-832v712h37v-677h342v677h38v-677h342v677h37v-677z" />
    <glyph glyph-name="Hardsigncy" unicode="&#x42a;" horiz-adv-x="726" 
d="M278 393h191q110 0 168.5 -53.5t58.5 -144.5t-59.5 -143t-167.5 -52h-228v677h-234v35h271v-319zM278 358v-323h191q90 0 139 42t49 118t-47.5 119.5t-140.5 43.5h-191z" />
    <glyph glyph-name="Yerucy" unicode="&#x42b;" horiz-adv-x="834" 
d="M104 0v712h37v-318h191q110 0 168.5 -53.5t58.5 -143.5t-58.5 -143.5t-168.5 -53.5h-228zM730 0h-37v712h37v-712zM141 35h191q92 0 140 43.5t48 118.5t-48 118.5t-140 43.5h-191v-324z" />
    <glyph glyph-name="Softsigncy" unicode="&#x42c;" horiz-adv-x="589" 
d="M104 0v712h37v-318h191q110 0 168.5 -53.5t58.5 -143.5t-58.5 -143.5t-168.5 -53.5h-228zM141 35h191q92 0 140 43.5t48 118.5t-48 118.5t-140 43.5h-191v-324z" />
    <glyph glyph-name="Ereversedcy" unicode="&#x42d;" horiz-adv-x="671" 
d="M323 723q139 0 220 -99t81 -268t-79.5 -268t-216.5 -99q-118 0 -191 68t-84 180h38q11 -95 75 -153.5t162 -58.5q116 0 184 84t73 230h-363v35h363q-5 145 -75 229t-187 84q-99 0 -159.5 -58t-68.5 -151h-38q6 106 76.5 175.5t189.5 69.5z" />
    <glyph glyph-name="Iucy" unicode="&#x42e;" horiz-adv-x="925" 
d="M585 723q134 0 214 -99.5t80 -267.5t-80 -267.5t-214 -99.5q-131 0 -210 94.5t-84 255.5h-150v-339h-37v712h37v-338h150q5 161 84 255t210 94zM585 25q117 0 186 89.5t69 241.5t-69 241.5t-186 89.5t-186 -89.5t-69 -241.5t69 -241.5t186 -89.5z" />
    <glyph glyph-name="Iacy" unicode="&#x42f;" horiz-adv-x="595" 
d="M492 712v-712h-38v330h-170q-33 0 -56 4l-174 -334h-43l179 341q-70 19 -106 66.5t-36 114.5q0 90 59.5 140t176.5 50h208zM454 677h-170q-98 0 -147.5 -39.5t-49.5 -115.5q-1 -70 48 -113.5t147 -43.5h172v312z" />
    <glyph glyph-name="acy" unicode="&#x430;" horiz-adv-x="508" 
d="M249 519q82 0 130 -47t48 -142v-211q0 -72 10 -119h-34q-8 42 -8 96h-1q-54 -106 -186 -106q-76 0 -122 39.5t-46 103.5q0 62 42 99t141 52q96 14 169 20v29q0 78 -38.5 116t-104.5 38q-70 0 -108.5 -36t-42.5 -96h-37q5 75 54 119.5t134 44.5zM392 219v53
q-81 -7 -165 -20q-82 -12 -116 -40.5t-34 -77.5q0 -51 37 -81.5t100 -30.5q82 0 129 52q28 30 38.5 60t10.5 85z" />
    <glyph glyph-name="becy" unicode="&#x431;" horiz-adv-x="549" 
d="M485 723v-35q-31 -8 -164 -25q-122 -14 -169 -74.5t-65 -208.5h2q44 128 186 128q104 0 165.5 -69.5t61.5 -189.5q0 -121 -59.5 -190.5t-163.5 -69.5t-163.5 74t-59.5 204q0 161 28 252.5t82 129.5t149 49q120 12 170 25zM275 476q-96 0 -139 -58.5t-43 -156.5
q0 -112 49.5 -175.5t136.5 -63.5q88 0 137 59.5t49 166.5t-51 167.5t-139 60.5z" />
    <glyph glyph-name="vecy" unicode="&#x432;" horiz-adv-x="500" 
d="M88 508h178q83 0 126.5 -35t43.5 -96q0 -46 -25.5 -75.5t-70.5 -40.5v-1q48 -8 77.5 -40.5t29.5 -81.5q0 -65 -43.5 -101.5t-121.5 -36.5h-194v508zM124 476v-201h137q69 0 103 26.5t34 73.5q0 101 -137 101h-137zM124 244v-212h149q66 0 101 27.5t35 78.5q0 50 -35.5 78
t-108.5 28h-141z" />
    <glyph glyph-name="gecy" unicode="&#x433;" horiz-adv-x="389" 
d="M374 476h-250v-476h-36v508h286v-32z" />
    <glyph glyph-name="decy" unicode="&#x434;" horiz-adv-x="536" 
d="M515 32v-192h-36v160h-429v-160h-36v192h57q30 43 49 147t27 329h301v-476h67zM412 476h-230q-15 -347 -69 -444h299v444z" />
    <glyph glyph-name="iecy" unicode="&#x435;" horiz-adv-x="526" 
d="M270 21q67 0 111.5 35t54.5 94h38q-12 -71 -66 -116t-138 -45q-103 0 -163 74.5t-60 200.5q0 115 58.5 185t158.5 70q83 0 138.5 -49t70.5 -134q6 -30 6 -85h-396q1 -108 52 -169t135 -61zM264 487q-81 0 -129 -55.5t-52 -148.5h361q-3 96 -52 150t-128 54z" />
    <glyph glyph-name="zhecy" unicode="&#x436;" horiz-adv-x="627" 
d="M632 0h-51l-248 274h-1v-274h-36v274h-2l-248 -274h-51l257 278l-231 230h51l222 -226h2v226h36v-226h1l222 226h51l-231 -230z" />
    <glyph glyph-name="zecy" unicode="&#x437;" horiz-adv-x="466" 
d="M226 519q79 0 124 -37t45 -100q0 -93 -98 -122v-2q114 -27 114 -128q0 -64 -50.5 -102.5t-137.5 -38.5t-135.5 41t-48.5 112h38q0 -57 38 -88t108 -31q71 0 110.5 29t39.5 78q0 54 -42.5 83t-119.5 29h-57v32h57q68 0 107 28.5t39 77.5q0 50 -35 77.5t-97 27.5
q-65 0 -102 -30.5t-37 -87.5h-37q0 71 48 111.5t129 40.5z" />
    <glyph glyph-name="iicy" unicode="&#x438;" horiz-adv-x="577" 
d="M490 0h-38v210v259h-1l-157 -241l-148 -228h-58v508h37v-210v-259h2l157 241l147 228h59v-508z" />
    <glyph glyph-name="iishortcy" unicode="&#x439;" horiz-adv-x="577" 
d="M401 712h32q-6 -63 -43.5 -97.5t-100.5 -34.5t-100.5 34.5t-43.5 97.5h32q12 -101 112 -101t112 101zM490 0h-38v210v259h-1l-157 -241l-148 -228h-58v508h37v-210v-259h2l157 241l147 228h59v-508z" />
    <glyph glyph-name="kacy" unicode="&#x43a;" horiz-adv-x="472" 
d="M462 0h-52l-285 268h-1v-268h-36v508h36v-220h1l256 220h52l-269 -229z" />
    <glyph glyph-name="elcy" unicode="&#x43b;" horiz-adv-x="528" 
d="M440 0h-36v476h-228q-2 -201 -18.5 -305t-44.5 -138.5t-81 -34.5q-12 0 -24 2v32q10 -2 20 -2q42 0 64 33.5t34.5 136.5t15.5 308h298v-508z" />
    <glyph glyph-name="emcy" unicode="&#x43c;" horiz-adv-x="695" 
d="M607 0h-36v265v206h-1l-90 -210l-110 -261h-45l-111 261l-89 210h-1v-206v-265h-36v508h60l113 -267l86 -202h1l86 202l112 267h61v-508z" />
    <glyph glyph-name="ency" unicode="&#x43d;" horiz-adv-x="562" 
d="M475 0h-36v240h-315v-240h-36v508h36v-236h315v236h36v-508z" />
    <glyph glyph-name="ocy" unicode="&#x43e;" horiz-adv-x="539" 
d="M269 519q104 0 163.5 -70.5t59.5 -194.5t-59.5 -194.5t-163.5 -70.5t-163 70.5t-59 194.5t59 194.5t163 70.5zM269 486q-87 0 -136 -61.5t-49 -170.5t49 -170.5t136 -61.5q88 0 137 61.5t49 170.5t-49 170.5t-137 61.5z" />
    <glyph glyph-name="pecy" unicode="&#x43f;" horiz-adv-x="555" 
d="M468 0h-36v476h-308v-476h-36v508h380v-508z" />
    <glyph glyph-name="ercy" unicode="&#x440;" horiz-adv-x="554" 
d="M294 519q98 0 155.5 -71t57.5 -194q0 -122 -57.5 -193t-155.5 -71q-60 0 -104.5 31.5t-64.5 87.5h-1v-294h-36v693h36v-108h1q20 56 64.5 87.5t104.5 31.5zM290 487q-77 0 -122.5 -62.5t-45.5 -170.5q0 -107 45.5 -169.5t122.5 -62.5q83 0 131.5 62.5t48.5 169.5
q0 108 -48.5 170.5t-131.5 62.5z" />
    <glyph glyph-name="escy" unicode="&#x441;" horiz-adv-x="505" 
d="M266 519q82 0 136 -49.5t61 -129.5h-38q-5 65 -49 105.5t-110 40.5q-85 0 -133.5 -61.5t-48.5 -170.5t48.5 -170.5t133.5 -61.5q66 0 109.5 42.5t49.5 108.5h38q-7 -82 -61 -133t-136 -51q-102 0 -160.5 70.5t-58.5 194.5t58.5 194.5t160.5 70.5z" />
    <glyph glyph-name="tecy" unicode="&#x442;" horiz-adv-x="434" 
d="M427 476h-191v-476h-37v476h-191v32h419v-32z" />
    <glyph glyph-name="ucy" unicode="&#x443;" horiz-adv-x="442" 
d="M443 508l-211 -523q-42 -104 -80 -139t-103 -35q-21 0 -38 6v33q17 -6 38 -6q53 0 83 30t68 125l-201 509h39l180 -461h1l185 461h39z" />
    <glyph glyph-name="efcy" unicode="&#x444;" horiz-adv-x="745" 
d="M390 712v-237q46 44 108 44q92 0 146 -71t54 -194q0 -122 -54 -193t-146 -71q-61 0 -108 42v-217h-36v217q-45 -42 -107 -42q-92 0 -146 71t-54 193q0 123 54 194t146 71q63 0 107 -44v237h36zM251 487q-77 0 -122 -62.5t-45 -170.5q0 -107 45 -169.5t122 -62.5
q61 0 103 47v370q-42 48 -103 48zM494 487q-60 0 -104 -48v-370q44 -47 104 -47q77 0 122 62.5t45 169.5q0 108 -45 170.5t-122 62.5z" />
    <glyph glyph-name="hacy" unicode="&#x445;" horiz-adv-x="452" 
d="M248 265l202 -265h-45l-178 237h-2l-178 -237h-45l203 265l-185 243h44l161 -216h2l160 216h45z" />
    <glyph glyph-name="tsecy" unicode="&#x446;" horiz-adv-x="555" 
d="M468 32h66v-192h-36v160h-410v508h36v-476h308v476h36v-476z" />
    <glyph glyph-name="checy" unicode="&#x447;" horiz-adv-x="481" 
d="M393 0h-36v226q-68 -22 -147 -22q-87 0 -133 39.5t-46 112.5v152h36v-150q0 -59 37.5 -90.5t107.5 -31.5q82 0 145 23v249h36v-508z" />
    <glyph glyph-name="shacy" unicode="&#x448;" horiz-adv-x="819" 
d="M732 0h-644v508h36v-476h268v476h36v-476h268v476h36v-508z" />
    <glyph glyph-name="shchacy" unicode="&#x449;" horiz-adv-x="819" 
d="M732 32h61v-192h-36v160h-669v508h36v-476h268v476h36v-476h268v476h36v-476z" />
    <glyph glyph-name="hardsigncy" unicode="&#x44a;" horiz-adv-x="561" 
d="M210 293h137q88 0 133.5 -38t45.5 -109t-45.5 -108.5t-133.5 -37.5h-173v476h-166v32h202v-215zM210 261v-229h139q140 0 140 114q0 115 -140 115h-139z" />
    <glyph glyph-name="yerucy" unicode="&#x44b;" horiz-adv-x="656" 
d="M124 293h137q88 0 133.5 -38t45.5 -109t-45.5 -108.5t-133.5 -37.5h-173v508h36v-215zM568 0h-36v508h36v-508zM124 261v-229h139q140 0 140 114q0 115 -140 115h-139z" />
    <glyph glyph-name="softsigncy" unicode="&#x44c;" horiz-adv-x="479" 
d="M124 293h137q88 0 133.5 -38t45.5 -109t-45.5 -108.5t-133.5 -37.5h-173v508h36v-215zM124 261v-229h139q140 0 140 114q0 115 -140 115h-139z" />
    <glyph glyph-name="ereversedcy" unicode="&#x44d;" horiz-adv-x="505" 
d="M239 519q102 0 161 -70.5t59 -194.5t-59 -194.5t-161 -70.5q-82 0 -135.5 51t-60.5 133h37q6 -66 50 -108.5t109 -42.5q83 0 131 58t51 161h-266v32h266q-5 101 -52.5 157t-129.5 56q-67 0 -110.5 -41.5t-48.5 -104.5h-37q6 78 59.5 128.5t136.5 50.5z" />
    <glyph glyph-name="iucy" unicode="&#x44e;" horiz-adv-x="730" 
d="M461 519q104 0 163 -70.5t59 -194.5t-59 -194.5t-163 -70.5q-100 0 -159 66t-64 183h-114v-238h-36v508h36v-238h114q5 117 64 183t159 66zM461 22q87 0 136 61.5t49 170.5t-49 170.5t-136 61.5q-88 0 -137 -61.5t-49 -170.5t49 -170.5t137 -61.5z" />
    <glyph glyph-name="iacy" unicode="&#x44f;" horiz-adv-x="491" 
d="M404 508v-508h-38v216h-137q-11 0 -31 2l-130 -218h-45l137 224q-54 14 -81.5 50.5t-27.5 88.5q0 69 46 107t135 38h172zM366 476h-134q-142 0 -142 -113q-1 -51 34 -83t105 -32h137v228z" />
    <glyph glyph-name="iegravecy" unicode="&#x450;" horiz-adv-x="526" 
d="M278 573l-105 139h49l92 -139h-36zM270 21q67 0 111.5 35t54.5 94h38q-12 -71 -66 -116t-138 -45q-103 0 -163 74.5t-60 200.5q0 115 58.5 185t158.5 70q83 0 138.5 -49t70.5 -134q6 -30 6 -85h-396q1 -108 52 -169t135 -61zM264 487q-81 0 -129 -55.5t-52 -148.5h361
q-3 96 -52 150t-128 54z" />
    <glyph glyph-name="iocy" unicode="&#x451;" horiz-adv-x="526" 
d="M189 631h-36v81h36v-81zM372 631h-36v81h36v-81zM270 21q67 0 111.5 35t54.5 94h38q-12 -71 -66 -116t-138 -45q-103 0 -163 74.5t-60 200.5q0 115 58.5 185t158.5 70q83 0 138.5 -49t70.5 -134q6 -30 6 -85h-396q1 -108 52 -169t135 -61zM264 487q-81 0 -129 -55.5
t-52 -148.5h361q-3 96 -52 150t-128 54z" />
    <glyph glyph-name="djecy" unicode="&#x452;" horiz-adv-x="549" 
d="M291 464q85 0 131 -52.5t46 -156.5v-303q0 -75 -31 -107.5t-89 -32.5q-13 0 -25 3v33q14 -2 23 -2q43 0 64.5 23.5t21.5 82.5v302q0 178 -145 178q-68 0 -115.5 -48t-47.5 -127v-257h-36v581h-63v30h63v101h36v-101h238v-30h-238v-218h1q24 48 68.5 74.5t97.5 26.5z" />
    <glyph glyph-name="gjecy" unicode="&#x453;" horiz-adv-x="389" 
d="M215 573h-36l93 139h48zM374 476h-250v-476h-36v508h286v-32z" />
    <glyph glyph-name="ecy" unicode="&#x454;" horiz-adv-x="505" 
d="M266 22q66 0 109.5 42.5t49.5 108.5h38q-7 -82 -61 -133t-136 -51q-102 0 -160.5 70.5t-58.5 194.5t58.5 194.5t160.5 70.5q83 0 136.5 -50.5t60.5 -128.5h-38q-5 62 -48.5 104t-110.5 42q-81 0 -129.5 -56.5t-52.5 -156.5h266v-32h-266q3 -103 51.5 -161t130.5 -58z" />
    <glyph glyph-name="dzecy" unicode="&#x455;" horiz-adv-x="461" 
d="M221 519q85 0 132.5 -46t48.5 -128h-37q0 67 -38 104t-106 37q-58 0 -94.5 -27.5t-36.5 -74.5t29.5 -66t108.5 -37q50 -11 78.5 -20t57 -25.5t41 -42t12.5 -62.5q0 -63 -49.5 -102.5t-128.5 -39.5q-93 0 -144 48.5t-52 135.5h36q0 -72 42 -111.5t118 -39.5q62 0 102 29.5
t40 77.5q0 53 -34 75t-129 43q-34 8 -54 13.5t-43.5 16t-36.5 23.5t-21.5 34t-8.5 48q0 62 47 99.5t120 37.5z" />
    <glyph glyph-name="icy" unicode="&#x456;" horiz-adv-x="211" 
d="M124 631h-36v81h36v-81zM124 0h-36v508h36v-508z" />
    <glyph glyph-name="yicy" unicode="&#x457;" horiz-adv-x="211" 
d="M52 635h-36v77h36v-77zM195 635h-36v77h36v-77zM124 0h-36v508h36v-508z" />
    <glyph glyph-name="jecy" unicode="&#x458;" horiz-adv-x="220" 
d="M133 631h-36v81h36v-81zM133 508v-552q0 -77 -31 -110.5t-89 -33.5q-15 0 -25 3v33q14 -2 23 -2q43 0 64.5 24.5t21.5 85.5v552h36z" />
    <glyph glyph-name="ljecy" unicode="&#x459;" horiz-adv-x="796" 
d="M440 293h137q88 0 134 -38t46 -109t-46 -108.5t-134 -37.5h-173v476h-228q-2 -201 -18.5 -305t-44.5 -138.5t-81 -34.5q-12 0 -24 2v32q10 -2 20 -2q42 0 64 33.5t34.5 136.5t15.5 308h298v-215zM440 261v-229h139q141 0 141 114q0 115 -141 115h-139z" />
    <glyph glyph-name="njecy" unicode="&#x45a;" horiz-adv-x="830" 
d="M475 293h137q88 0 133.5 -38t45.5 -109t-45.5 -108.5t-133.5 -37.5h-173v261h-315v-261h-36v508h36v-215h315v215h36v-215zM475 261v-229h139q140 0 140 114q0 115 -140 115h-139z" />
    <glyph glyph-name="tshecy" unicode="&#x45b;" horiz-adv-x="549" 
d="M291 464q85 0 131 -52.5t46 -156.5v-255h-36v254q0 178 -145 178q-68 0 -115.5 -48t-47.5 -127v-257h-36v581h-63v30h63v101h36v-101h238v-30h-238v-218h1q24 48 68.5 74.5t97.5 26.5z" />
    <glyph glyph-name="kjecy" unicode="&#x45c;" horiz-adv-x="472" 
d="M236 573h-36l93 139h48zM462 0h-52l-285 268h-1v-268h-36v508h36v-220h1l256 220h52l-269 -229z" />
    <glyph glyph-name="iigravecy" unicode="&#x45d;" horiz-adv-x="577" 
d="M249 712l92 -139h-36l-105 139h49zM490 0h-38v210v259h-1l-157 -241l-148 -228h-58v508h37v-210v-259h2l157 241l147 228h59v-508z" />
    <glyph glyph-name="ushortcy" unicode="&#x45e;" horiz-adv-x="442" 
d="M333 712h32q-6 -63 -43.5 -97.5t-100.5 -34.5t-100.5 34.5t-43.5 97.5h32q12 -101 112 -101t112 101zM443 508l-211 -523q-42 -104 -80 -139t-103 -35q-21 0 -38 6v33q17 -6 38 -6q53 0 83 30t68 125l-201 509h39l180 -461h1l185 461h39z" />
    <glyph glyph-name="dzhecy" unicode="&#x45f;" horiz-adv-x="555" 
d="M468 0h-172v-160h-36v160h-172v508h36v-476h308v476h36v-508z" />
    <glyph glyph-name="Gheupturncy" unicode="&#x490;" horiz-adv-x="466" 
d="M459 677h-318v-677h-37v712h319v157h36v-192z" />
    <glyph glyph-name="gheupturncy" unicode="&#x491;" horiz-adv-x="389" 
d="M374 476h-250v-476h-36v508h250v160h36v-192z" />
    <glyph glyph-name="Ghestrokecy" unicode="&#x492;" horiz-adv-x="466" 
d="M141 677v-306h160v-33h-160v-338h-37v338h-63v33h63v341h355v-35h-318z" />
    <glyph glyph-name="ghestrokecy" unicode="&#x493;" horiz-adv-x="389" 
d="M124 476v-210h142v-30h-142v-236h-36v236h-57v30h57v242h286v-32h-250z" />
    <glyph glyph-name="Zhedescendercy" unicode="&#x496;" horiz-adv-x="822" 
d="M830 35v-195h-36v160h-26l-337 369h-1v-369h-38v369h-1l-337 -369h-50l343 373l-314 339h49l309 -335h1v335h38v-335h1l309 335h49l-314 -339l311 -338h44z" />
    <glyph glyph-name="zhedescendercy" unicode="&#x497;" horiz-adv-x="627" 
d="M643 32v-192h-36v160h-26l-248 274h-1v-274h-36v274h-2l-248 -274h-51l257 278l-231 230h51l222 -226h2v226h36v-226h1l222 226h51l-231 -230l227 -246h41z" />
    <glyph glyph-name="Kadescendercy" unicode="&#x49a;" horiz-adv-x="567" 
d="M573 35v-195h-36v160h-29l-366 363h-1v-363h-37v712h37v-329h1l335 329h53l-346 -339l343 -338h46z" />
    <glyph glyph-name="kadescendercy" unicode="&#x49b;" horiz-adv-x="472" 
d="M473 32v-192h-36v160h-27l-285 268h-1v-268h-36v508h36v-220h1l256 220h52l-269 -229l264 -247h45z" />
    <glyph glyph-name="Kaverticalstrokecy" unicode="&#x49c;" horiz-adv-x="630" 
d="M251 354h-2v-175h-38v175h-70v-354h-37v712h37v-323h70v175h38v-175h1l298 323h49l-315 -340l344 -372h-50z" />
    <glyph glyph-name="kaverticalstrokecy" unicode="&#x49d;" horiz-adv-x="509" 
d="M229 262h-3v-149h-36v149h-66v-262h-36v508h36v-214h66v145h36v-145h2l210 214h51l-230 -229l256 -279h-51z" />
    <glyph glyph-name="Endescendercy" unicode="&#x4a2;" horiz-adv-x="717" 
d="M685 -160h-36v160h-73v352h-435v-352h-37v712h37v-325h435v325h38v-677h71v-195z" />
    <glyph glyph-name="endescendercy" unicode="&#x4a3;" horiz-adv-x="562" 
d="M541 -160h-36v160h-66v240h-315v-240h-36v508h36v-236h315v236h36v-476h66v-192z" />
    <glyph glyph-name="Ustraitcy" unicode="&#x4ae;" horiz-adv-x="585" 
d="M311 312v-312h-37v312l-268 400h45l108 -163l132 -199h2l134 201l107 161h45z" />
    <glyph glyph-name="ustraitcy" unicode="&#x4af;" horiz-adv-x="439" 
d="M440 508l-203 -511v-182h-35v182l-203 511h39l88 -224l92 -235h2l93 235l88 224h39z" />
    <glyph glyph-name="Hadescendercy" unicode="&#x4b2;" horiz-adv-x="604" 
d="M609 35v-195h-36v160h-26l-244 335h-2l-244 -335h-46l268 366l-253 346h46l229 -314h2l229 314h46l-252 -346l241 -331h42z" />
    <glyph glyph-name="hadescendercy" unicode="&#x4b3;" horiz-adv-x="452" 
d="M463 32v-192h-36v160h-22l-178 237h-2l-178 -237h-45l203 265l-185 243h44l161 -216h2l160 216h45l-184 -243l178 -233h37z" />
    <glyph glyph-name="Cheverticalstrokecy" unicode="&#x4b8;" horiz-adv-x="605" 
d="M501 712v-712h-37v325q-83 -24 -174 -28v-161h-37v161q-104 3 -159 55.5t-55 147.5v212h37v-210q0 -79 45 -122.5t132 -47.5v230h37v-230q94 3 174 29v351h37z" />
    <glyph glyph-name="cheverticalstrokecy" unicode="&#x4b9;" horiz-adv-x="481" 
d="M393 508v-508h-36v226q-61 -19 -127 -22v-115h-36v115q-79 4 -121 43.5t-42 108.5v152h36v-150q0 -55 32.5 -86t94.5 -35v174h36v-175q72 3 127 23v249h36z" />
    <glyph glyph-name="Shhacy" unicode="&#x4ba;" horiz-adv-x="605" 
d="M104 712h37v-325q96 28 198 28q110 0 168.5 -52.5t58.5 -150.5v-212h-38v210q0 83 -49.5 126.5t-143.5 43.5q-107 0 -194 -29v-351h-37v712z" />
    <glyph glyph-name="shhacy" unicode="&#x4bb;" horiz-adv-x="549" 
d="M124 417h1q24 48 68.5 74.5t97.5 26.5q85 0 131 -52.5t46 -156.5v-309h-36v308q0 178 -145 178q-68 0 -115.5 -48t-47.5 -127v-311h-36v712h36v-295z" />
    <glyph glyph-name="Palochkacy" unicode="&#x4c0;" horiz-adv-x="245" 
d="M141 0h-37v712h37v-712z" />
    <glyph glyph-name="palochkacy" unicode="&#x4cf;" horiz-adv-x="211" 
d="M124 0h-36v712h36v-712z" />
    <glyph glyph-name="Schwacy" unicode="&#x4d8;" 
d="M344 723q148 0 234.5 -99.5t86.5 -267.5q0 -167 -85 -267t-229 -100q-141 0 -222.5 98t-81.5 269v13h579q-1 148 -78 233t-204 85q-97 0 -161 -50.5t-79 -135.5h-41q17 100 91.5 161t189.5 61zM351 25q124 0 197.5 84t77.5 225h-541q4 -146 76.5 -227.5t189.5 -81.5z" />
    <glyph glyph-name="schwacy" unicode="&#x4d9;" horiz-adv-x="526" 
d="M254 519q104 0 164.5 -72t60.5 -193q0 -120 -59.5 -192.5t-160.5 -72.5q-98 0 -155 71t-57 194v12h396q-1 104 -53 162.5t-136 58.5q-64 0 -106 -35t-53 -94h-37q12 72 63.5 116.5t132.5 44.5zM259 21q82 0 131 57.5t53 155.5h-361q3 -100 51.5 -156.5t125.5 -56.5z" />
    <glyph glyph-name="Obarredcy" unicode="&#x4e8;" 
d="M356 723q142 0 225.5 -99.5t83.5 -267.5t-83.5 -267.5t-225.5 -99.5t-225.5 99.5t-83.5 267.5t83.5 267.5t225.5 99.5zM356 687q-120 0 -193.5 -84.5t-77.5 -228.5h540q-5 144 -77 228.5t-192 84.5zM356 25q120 0 192.5 85t76.5 229h-540q5 -144 77.5 -229t193.5 -85z
" />
    <glyph glyph-name="obarredcy" unicode="&#x4e9;" horiz-adv-x="539" 
d="M269 519q104 0 164 -70.5t60 -194.5t-60 -194.5t-164 -70.5t-163 70.5t-59 194.5t59 194.5t163 70.5zM269 486q-83 0 -132 -57.5t-53 -158.5h371q-4 101 -53 158.5t-133 57.5zM269 22q84 0 133 57.5t53 158.5h-371q4 -101 53 -158.5t132 -57.5z" />
    <glyph glyph-name="Wgrave" unicode="&#x1e80;" horiz-adv-x="876" 
d="M395 890l100 -130h-38l-111 130h49zM675 0h-58l-88 334l-90 342h-2l-90 -342l-88 -334h-58l-189 712h37l88 -326l93 -350h1l92 352l86 324h58l86 -324l92 -352h1l93 350l88 326h38z" />
    <glyph glyph-name="wgrave" unicode="&#x1e81;" horiz-adv-x="744" 
d="M332 712l92 -139h-36l-105 139h49zM575 0h-52l-79 248l-71 226h-2l-71 -226l-79 -248h-52l-160 508h37l74 -235l74 -238h2l75 237l73 236h56l73 -236l75 -237h2l74 238l74 235h37z" />
    <glyph glyph-name="Wacute" unicode="&#x1e82;" horiz-adv-x="876" 
d="M420 760h-37l99 130h50zM675 0h-58l-88 334l-90 342h-2l-90 -342l-88 -334h-58l-189 712h37l88 -326l93 -350h1l92 352l86 324h58l86 -324l92 -352h1l93 350l88 326h38z" />
    <glyph glyph-name="wacute" unicode="&#x1e83;" horiz-adv-x="744" 
d="M356 573h-36l93 139h48zM575 0h-52l-79 248l-71 226h-2l-71 -226l-79 -248h-52l-160 508h37l74 -235l74 -238h2l75 237l73 236h56l73 -236l75 -237h2l74 238l74 235h37z" />
    <glyph glyph-name="Wdieresis" unicode="&#x1e84;" horiz-adv-x="876" 
d="M365 779h-36v81h36v-81zM548 779h-36v81h36v-81zM675 0h-58l-88 334l-90 342h-2l-90 -342l-88 -334h-58l-189 712h37l88 -326l93 -350h1l92 352l86 324h58l86 -324l92 -352h1l93 350l88 326h38z" />
    <glyph glyph-name="wdieresis" unicode="&#x1e85;" horiz-adv-x="744" 
d="M298 631h-36v81h36v-81zM481 631h-36v81h36v-81zM575 0h-52l-79 248l-71 226h-2l-71 -226l-79 -248h-52l-160 508h37l74 -235l74 -238h2l75 237l73 236h56l73 -236l75 -237h2l74 238l74 235h37z" />
    <glyph glyph-name="Germandbls" unicode="&#x1e9e;" horiz-adv-x="733" 
d="M624 610l-191 -196q248 -35 248 -226q0 -95 -59 -146.5t-160 -51.5q-98 0 -151 45.5t-53 130.5h39q0 -68 42 -104.5t123 -36.5q84 0 132.5 42t48.5 121q0 92 -64 139t-191 58v32l188 191q-78 80 -205 80q-118 0 -179 -63t-61 -186v-439h-37v439q0 138 71.5 211t205.5 73
q79 0 144.5 -30.5t108.5 -82.5z" />
    <glyph glyph-name="Ygrave" unicode="&#x1ef2;" horiz-adv-x="585" 
d="M249 890l100 -130h-38l-111 130h49zM311 312v-312h-37v312l-268 400h45l108 -163l132 -199h2l134 201l107 161h45z" />
    <glyph glyph-name="ygrave" unicode="&#x1ef3;" horiz-adv-x="442" 
d="M181 712l92 -139h-36l-105 139h49zM443 508l-211 -523q-42 -104 -80 -139t-103 -35q-21 0 -38 6v33q17 -6 38 -6q53 0 83 30t68 125l-201 509h39l180 -461h1l185 461h39z" />
    <glyph glyph-name="hyphentwo" unicode="&#x2010;" horiz-adv-x="281" 
d="M251 274h-221v36h221v-36z" />
    <glyph glyph-name="endash" unicode="&#x2013;" horiz-adv-x="500" 
d="M480 274h-460v36h460v-36z" />
    <glyph glyph-name="emdash" unicode="&#x2014;" horiz-adv-x="1000" 
d="M980 274h-960v36h960v-36z" />
    <glyph glyph-name="horizontalbar" unicode="&#x2015;" horiz-adv-x="1000" 
d="M980 274h-960v36h960v-36z" />
    <glyph glyph-name="underscoredbl" unicode="&#x2017;" horiz-adv-x="500" 
d="M500 -76h-500v26h500v-26zM500 -196h-500v26h500v-26z" />
    <glyph glyph-name="quoteleft" unicode="&#x2018;" horiz-adv-x="191" 
d="M66 585l37 127h28l-31 -127h14v-79h-48v79z" />
    <glyph glyph-name="quoteright" unicode="&#x2019;" horiz-adv-x="191" 
d="M124 633l-37 -127h-27l30 127h-13v79h47v-79z" />
    <glyph glyph-name="quotesinglbase" unicode="&#x201a;" horiz-adv-x="191" 
d="M124 -9l-37 -127h-27l30 127h-13v79h47v-79z" />
    <glyph glyph-name="quotereversed" unicode="&#x201b;" horiz-adv-x="191" 
d="M114 712v-79h-14l31 -127h-28l-37 127v79h48z" />
    <glyph glyph-name="quotedblleft" unicode="&#x201c;" horiz-adv-x="315" 
d="M66 585l37 127h28l-31 -127h14v-79h-48v79zM191 585l37 127h27l-30 -127h13v-79h-47v79z" />
    <glyph glyph-name="quotedblright" unicode="&#x201d;" horiz-adv-x="315" 
d="M124 633l-37 -127h-27l30 127h-13v79h47v-79zM249 633l-37 -127h-28l31 127h-14v79h48v-79z" />
    <glyph glyph-name="quotedblbase" unicode="&#x201e;" horiz-adv-x="315" 
d="M124 -9l-37 -127h-27l30 127h-13v79h47v-79zM248 -9l-37 -127h-27l30 127h-13v79h47v-79z" />
    <glyph glyph-name="dagger" unicode="&#x2020;" horiz-adv-x="510" 
d="M274 505h182v-33h-182v-592h-38v592h-182v33h182v207h38v-207z" />
    <glyph glyph-name="daggerdbl" unicode="&#x2021;" horiz-adv-x="510" 
d="M274 506h182v-34h-182v-277h182v-34h-182v-281h-38v281h-182v34h182v277h-182v34h182v206h38v-206z" />
    <glyph glyph-name="bullet" unicode="&#x2022;" horiz-adv-x="310" 
d="M155 261q-39 0 -67 28t-28 67t28 67t67 28t67 -28t28 -67t-28 -67t-67 -28z" />
    <glyph glyph-name="ellipsis" unicode="&#x2026;" horiz-adv-x="569" 
d="M110 0h-49v79h49v-79zM309 0h-49v79h49v-79zM508 0h-49v79h49v-79z" />
    <glyph glyph-name="perthousand" unicode="&#x2030;" horiz-adv-x="904" 
d="M110 -30h-39l424 734h39zM149 686q57 0 88.5 -41.5t31.5 -117.5q0 -77 -31.5 -118.5t-88.5 -41.5t-88 41.5t-31 118.5q0 76 31 117.5t88 41.5zM149 654q-40 0 -61.5 -33t-21.5 -94q0 -62 21.5 -95t61.5 -33q83 0 83 128q0 127 -83 127zM456 309q56 0 87.5 -42t31.5 -118
t-31.5 -118t-87.5 -42q-57 0 -88.5 42t-31.5 118t31.5 118t88.5 42zM755 309q57 0 88 -41.5t31 -118.5t-31 -118.5t-88 -41.5t-88 41.5t-31 118.5t31 118.5t88 41.5zM456 276q-83 0 -83 -127t83 -127q82 0 82 127t-82 127zM755 276q-40 0 -61.5 -33t-21.5 -94t21.5 -94
t61.5 -33t61.5 33t21.5 94t-21.5 94t-61.5 33z" />
    <glyph glyph-name="minute" unicode="&#x2032;" horiz-adv-x="146" 
d="M56 462h-26l48 212h38z" />
    <glyph glyph-name="second" unicode="&#x2033;" horiz-adv-x="256" 
d="M56 462h-26l48 212h38zM171 462h-26l48 212h38z" />
    <glyph glyph-name="guilsinglleft" unicode="&#x2039;" horiz-adv-x="257" 
d="M91 254l114 -200h-38l-114 200l114 200h38z" />
    <glyph glyph-name="guilsinglright" unicode="&#x203a;" horiz-adv-x="257" 
d="M91 454l114 -200l-114 -200h-38l113 200l-113 200h38z" />
    <glyph glyph-name="exclamdouble" unicode="&#x203c;" horiz-adv-x="423" 
d="M126 149h-29l-9 563h47zM326 149h-29l-9 563h47zM134 0h-45v80h45v-80zM334 0h-45v80h45v-80z" />
    <glyph glyph-name="interrobang" unicode="&#x203d;" horiz-adv-x="483" 
d="M261 712l-1 -74q81 -4 132 -48t51 -111q0 -53 -21.5 -90t-87.5 -91q-50 -40 -64 -66t-14 -87h-30l-7 457q-66 -7 -104 -45t-43 -104h-36q5 82 52.5 129t129.5 55l-1 75h44zM312 321q57 50 74.5 81.5t17.5 76.5q0 54 -40 87.5t-105 36.5l-5 -346h2q11 25 56 64zM218 80h45
v-80h-45v80z" />
    <glyph glyph-name="overline" unicode="&#x203e;" horiz-adv-x="500" 
d="M500 798h-500v32h500v-32z" />
    <glyph glyph-name="fraction" unicode="&#x2044;" horiz-adv-x="124" 
d="M-115 0h-40l394 674h40z" />
    <glyph glyph-name="zerosuperior" unicode="&#x2070;" horiz-adv-x="402" 
d="M201 810q80 0 121 -62t41 -182t-41 -182t-121 -62t-121 62t-41 182t41 182t121 62zM201 778q-127 0 -127 -212q0 -214 127 -214t127 214q0 212 -127 212z" />
    <glyph glyph-name="foursuperior" unicode="&#x2074;" horiz-adv-x="372" 
d="M361 464h-91v-134h-32v134h-227v35l214 303h45v-307h91v-31zM45 495h193v72v198h-2l-127 -180z" />
    <glyph glyph-name="fivesuperior" unicode="&#x2075;" horiz-adv-x="383" 
d="M321 771h-220l-18 -185h1q35 50 107 50q70 0 110.5 -41.5t40.5 -112.5q0 -73 -42.5 -116.5t-115.5 -43.5q-64 0 -103 35t-39 95h34q1 -46 30.5 -72t77.5 -26q57 0 90.5 34.5t33.5 92.5t-32 91t-86 33q-88 0 -112 -81l-34 2l27 276h250v-31z" />
    <glyph glyph-name="sixsuperior" unicode="&#x2076;" horiz-adv-x="388" 
d="M206 810q59 0 95 -32.5t44 -90.5h-35q-17 91 -104 91q-63 0 -98.5 -56.5t-36.5 -169.5h2q14 38 47.5 61t81.5 23q67 0 108.5 -42.5t41.5 -112.5q0 -71 -42.5 -115t-110.5 -44q-160 0 -160 222q0 130 43.5 198t123.5 68zM199 605q-52 0 -85 -34t-33 -87q0 -59 31.5 -94.5
t86.5 -35.5q53 0 86 34.5t33 92.5q0 56 -32.5 90t-86.5 34z" />
    <glyph glyph-name="sevensuperior" unicode="&#x2077;" horiz-adv-x="338" 
d="M327 802v-32q-135 -192 -189 -440h-38q61 253 190 441h-279v31h316z" />
    <glyph glyph-name="eightsuperior" unicode="&#x2078;" horiz-adv-x="390" 
d="M195 810q65 0 106.5 -35.5t41.5 -91.5q0 -77 -87 -109v-1q97 -30 97 -116q0 -60 -44.5 -97.5t-113.5 -37.5t-113.5 37.5t-44.5 97.5q0 86 97 116v1q-87 32 -87 109q0 56 41.5 91.5t106.5 35.5zM195 778q-50 0 -81.5 -26t-31.5 -68q0 -43 30.5 -69t82.5 -26t82.5 26
t30.5 69q0 42 -31.5 68t-81.5 26zM195 558q-53 0 -88 -28.5t-35 -71.5q0 -47 34 -75.5t89 -28.5t89 28.5t34 75.5q0 43 -35 71.5t-88 28.5z" />
    <glyph glyph-name="ninesuperior" unicode="&#x2079;" horiz-adv-x="388" 
d="M181 322q-59 0 -94.5 32.5t-43.5 90.5h35q17 -91 103 -91q63 0 99 56.5t37 169.5h-2q-15 -39 -48.5 -61.5t-80.5 -22.5q-68 0 -109 42.5t-41 112.5q0 71 42.5 115t110.5 44q160 0 160 -222q0 -130 -44 -198t-124 -68zM188 527q52 0 85.5 34t33.5 87q0 59 -31.5 94.5
t-86.5 35.5q-53 0 -86 -34.5t-33 -92.5q0 -56 32.5 -90t85.5 -34z" />
    <glyph glyph-name="plussuperior" unicode="&#x207a;" horiz-adv-x="405" 
d="M217 567h136v-30h-136v-131h-29v131h-135v30h135v131h29v-131z" />
    <glyph glyph-name="minussuperior" unicode="&#x207b;" horiz-adv-x="405" 
d="M353 537h-300v30h300v-30z" />
    <glyph glyph-name="equalsuperior" unicode="&#x207c;" horiz-adv-x="405" 
d="M353 587h-300v30h300v-30zM353 487h-300v30h300v-30z" />
    <glyph glyph-name="parenleftsuperior" unicode="&#x207d;" horiz-adv-x="184" 
d="M132 849h31q-89 -147 -89 -311q0 -166 89 -311h-31q-93 137 -93 311q0 172 93 311z" />
    <glyph glyph-name="parenrightsuperior" unicode="&#x207e;" horiz-adv-x="184" 
d="M52 227h-31q89 144 89 311q0 168 -89 311h31q93 -137 93 -311q0 -172 -93 -311z" />
    <glyph glyph-name="zeroinferior" unicode="&#x2080;" horiz-adv-x="402" 
d="M201 308q80 0 121 -62t41 -182t-41 -182t-121 -62t-121 62t-41 182t41 182t121 62zM201 276q-127 0 -127 -212q0 -214 127 -214t127 214q0 212 -127 212z" />
    <glyph glyph-name="oneinferior" unicode="&#x2081;" horiz-adv-x="229" 
d="M147 -172h-33v402h-2q-23 -37 -103 -37v28q54 0 79 18t31 61h28v-472z" />
    <glyph glyph-name="twoinferior" unicode="&#x2082;" horiz-adv-x="389" 
d="M198 308q64 0 103.5 -36t39.5 -92q0 -55 -32.5 -88.5t-107.5 -74.5q-76 -43 -101.5 -77t-25.5 -81h277v-31h-309q-2 5 -2 13q0 68 28.5 111t115.5 92q70 39 96 64.5t26 71.5q0 43 -30 69.5t-79 26.5q-53 0 -82 -28t-33 -79h-35q4 64 44.5 101.5t106.5 37.5z" />
    <glyph glyph-name="threeinferior" unicode="&#x2083;" horiz-adv-x="385" 
d="M184 308q69 0 110 -34.5t41 -90.5q0 -85 -87 -113v-1q96 -29 96 -119q0 -57 -44.5 -93.5t-113.5 -36.5q-72 0 -112.5 37.5t-40.5 103.5h35q0 -53 30.5 -81.5t87.5 -28.5q54 0 88.5 28t34.5 71q0 50 -34 76.5t-97 26.5h-25v31h25q58 0 90.5 26t32.5 71q0 43 -32.5 69
t-85.5 26t-82.5 -27t-29.5 -80h-35q0 65 40 102t108 37z" />
    <glyph glyph-name="fourinferior" unicode="&#x2084;" horiz-adv-x="372" 
d="M360 -38h-91v-134h-32v134h-227v35l214 303h45v-307h91v-31zM44 -7h193v72v198h-2l-127 -180z" />
    <glyph glyph-name="fiveinferior" unicode="&#x2085;" horiz-adv-x="383" 
d="M321 269h-220l-18 -185h1q35 50 107 50q70 0 110.5 -41.5t40.5 -112.5q0 -73 -42.5 -116.5t-115.5 -43.5q-64 0 -103 35t-39 95h34q1 -46 30.5 -72t77.5 -26q57 0 90.5 34.5t33.5 92.5t-32 91t-86 33q-88 0 -112 -81l-34 2l27 276h250v-31z" />
    <glyph glyph-name="sixinferior" unicode="&#x2086;" horiz-adv-x="388" 
d="M206 308q59 0 95 -32.5t44 -90.5h-35q-17 91 -104 91q-63 0 -98.5 -56.5t-36.5 -169.5h2q14 38 47.5 61t81.5 23q67 0 108.5 -42.5t41.5 -112.5q0 -71 -42.5 -115t-110.5 -44q-160 0 -160 222q0 130 43.5 198t123.5 68zM199 103q-52 0 -85 -34t-33 -87q0 -59 31.5 -94.5
t86.5 -35.5q53 0 86 34.5t33 92.5q0 56 -32.5 90t-86.5 34z" />
    <glyph glyph-name="seveninferior" unicode="&#x2087;" horiz-adv-x="338" 
d="M326 300v-32q-135 -192 -189 -440h-38q61 253 190 441h-279v31h316z" />
    <glyph glyph-name="eightinferior" unicode="&#x2088;" horiz-adv-x="390" 
d="M194 308q65 0 106.5 -35.5t41.5 -91.5q0 -77 -87 -109v-1q97 -30 97 -116q0 -60 -44.5 -97.5t-113.5 -37.5t-113.5 37.5t-44.5 97.5q0 86 97 116v1q-87 32 -87 109q0 56 41.5 91.5t106.5 35.5zM194 276q-50 0 -81.5 -26t-31.5 -68q0 -43 30.5 -69t82.5 -26t82.5 26
t30.5 69q0 42 -31.5 68t-81.5 26zM194 56q-53 0 -88 -28.5t-35 -71.5q0 -47 34 -75.5t89 -28.5t89 28.5t34 75.5q0 43 -35 71.5t-88 28.5z" />
    <glyph glyph-name="nineinferior" unicode="&#x2089;" horiz-adv-x="388" 
d="M181 -180q-59 0 -94.5 32.5t-43.5 90.5h35q17 -91 103 -91q63 0 99 56.5t37 169.5h-2q-15 -39 -48.5 -61.5t-80.5 -22.5q-68 0 -109 42.5t-41 112.5q0 71 42.5 115t110.5 44q160 0 160 -222q0 -130 -44 -198t-124 -68zM188 25q52 0 85.5 34t33.5 87q0 59 -31.5 94.5
t-86.5 35.5q-53 0 -86 -34.5t-33 -92.5q0 -56 32.5 -90t85.5 -34z" />
    <glyph glyph-name="plusinferior" unicode="&#x208a;" horiz-adv-x="405" 
d="M217 65h135v-30h-135v-131h-29v131h-136v30h136v131h29v-131z" />
    <glyph glyph-name="minusinferior" unicode="&#x208b;" horiz-adv-x="405" 
d="M352 35h-300v30h300v-30z" />
    <glyph glyph-name="equalinferior" unicode="&#x208c;" horiz-adv-x="405" 
d="M352 85h-300v30h300v-30zM352 -15h-300v30h300v-30z" />
    <glyph glyph-name="parenleftinferior" unicode="&#x208d;" horiz-adv-x="184" 
d="M132 347h31q-89 -147 -89 -311q0 -166 89 -311h-31q-93 137 -93 311q0 172 93 311z" />
    <glyph glyph-name="parenrightinferior" unicode="&#x208e;" horiz-adv-x="184" 
d="M52 -275h-31q89 144 89 311q0 168 -89 311h31q93 -137 93 -311q0 -172 -93 -311z" />
    <glyph glyph-name="ninferior" unicode="&#x2099;" horiz-adv-x="397" 
d="M212 191q128 0 128 -147v-216h-32v215q0 63 -25.5 91t-75.5 28q-47 0 -80 -32.5t-33 -86.5v-215h-32v356h32v-59h1q17 30 48 48t69 18z" />
    <glyph glyph-name="franc" unicode="&#x20a3;" horiz-adv-x="520" 
d="M146 639v-252h319v-35h-319v-160h180v-34h-180v-158h-38v158h-80v34h80v482h377v-35h-339z" />
    <glyph glyph-name="lira" unicode="&#x20a4;" horiz-adv-x="520" 
d="M108 34h368v-34h-452v34q106 0 106 139v82h-106v34h106v75h-106v34h106v90q0 96 45.5 146.5t128.5 50.5q80 0 126.5 -52.5t46.5 -143.5h-36q0 77 -36.5 119t-100.5 42q-66 0 -102 -42t-36 -120v-90h132v-34h-132v-75h132v-34h-132v-82q0 -102 -58 -138v-1z" />
    <glyph glyph-name="peseta" unicode="&#x20a7;" horiz-adv-x="775" 
d="M709 31q19 0 35 4v-33q-20 -4 -39 -4q-56 0 -81 29.5t-25 95.5v353h-85q0 -89 -58.5 -142.5t-168.5 -53.5h-146v-280h-37v674h183q100 0 157.5 -44.5t67.5 -121.5h87v117h36v-117h104v-32h-104v-353q0 -50 17 -71t57 -21zM141 315h146q92 0 140 43.5t48 118.5t-48 118.5
t-140 43.5h-146v-324z" />
    <glyph glyph-name="euro" unicode="&#x20ac;" horiz-adv-x="520" 
d="M464 197h38q-13 -102 -68.5 -155t-147.5 -53q-103 0 -162.5 69.5t-72.5 205.5h-50l6 33h42q-1 13 -1 40l1 34h-48l6 33h44q11 138 71.5 209.5t165.5 71.5q94 0 147.5 -52t62.5 -153h-38q-18 169 -172 169q-177 0 -198 -245h282l-7 -33h-277l-1 -34q0 -27 1 -40h264
l-6 -33h-256q23 -239 196 -239q154 0 178 172z" />
    <glyph glyph-name="rupeeIndian" unicode="&#x20b9;" horiz-adv-x="520" 
d="M289 640v-1q78 -26 91 -105h112l-10 -33h-100q-1 -67 -49.5 -113t-133.5 -59v-2q70 -29 120 -131l96 -196h-42l-90 185q-34 71 -75.5 101.5t-99.5 30.5h-15v34h36q100 0 156.5 41.5t58.5 108.5h-317l10 33h304q-21 106 -198 106h-116l10 34h455l-10 -34h-193z" />
    <glyph glyph-name="liraTurkish" unicode="&#x20ba;" horiz-adv-x="520" 
d="M450 312h38q0 -155 -85.5 -234.5t-244.5 -79.5q-25 0 -36 1v320l-97 -53v38l97 53v105l-97 -53v38l97 53v174h37v-158l169 92v-38l-169 -92v-105l169 92v-38l-169 -92v-302q140 0 215.5 70.5t75.5 208.5z" />
    <glyph glyph-name="uni20BC" unicode="&#x20bc;" horiz-adv-x="600" 
d="M50 0v315q0 145 54 206t177 65v126h37v-126q124 -4 178 -65t54 -206v-315h-38v315q0 127 -44 178.5t-150 54.5v-548h-37v548q-106 -3 -150 -54.5t-44 -178.5v-315h-37z" />
    <glyph glyph-name="ruble" unicode="&#x20bd;" horiz-adv-x="520" 
d="M95 674h187q101 0 154 -50.5t53 -136.5t-53 -137t-154 -51h-151v-93h211v-34h-211v-172h-36v172h-83v34h83v93h-83v34h83v341zM131 640v-307h151q83 0 126.5 41.5t43.5 112.5t-43.5 112t-126.5 41h-151z" />
    <glyph glyph-name="careof" unicode="&#x2105;" horiz-adv-x="807" 
d="M193 685q62 0 100.5 -36.5t43.5 -90.5h-33q-4 40 -34.5 68.5t-76.5 28.5q-59 0 -92.5 -41.5t-33.5 -114.5t33.5 -114.5t92.5 -41.5q46 0 76.5 29t34.5 73h33q-5 -58 -44 -95t-100 -37q-74 0 -117 49.5t-43 136.5t43 136.5t117 49.5zM221 0h-40l394 674h40zM611 361
q76 0 119.5 -50t43.5 -136q0 -87 -43.5 -136.5t-119.5 -49.5q-75 0 -119 49.5t-44 136.5q0 86 44 136t119 50zM611 332q-60 0 -94.5 -42t-34.5 -115t34.5 -115t94.5 -42q61 0 95.5 41.5t34.5 115.5t-34.5 115.5t-95.5 41.5z" />
    <glyph glyph-name="literSign" unicode="&#x2113;" horiz-adv-x="433" 
d="M162 205v-80q0 -53 19 -76.5t63 -23.5q28 0 51 9v-33q-25 -9 -57 -9q-57 0 -84.5 32t-27.5 101v76h-10q-27 0 -52 5v28q27 -5 52 -5h10v267q0 106 24.5 147.5t77.5 41.5q49 0 79 -45t30 -143q0 -260 -175 -292zM162 500v-266q145 32 145 263q0 157 -78 157
q-36 0 -51.5 -33t-15.5 -121z" />
    <glyph glyph-name="numero" unicode="&#x2116;" horiz-adv-x="1092" 
d="M627 0h-59l-205 326l-221 349h-1v-373v-302h-37v712h58l205 -326l221 -349h1v373v302h38v-712zM897 602q75 0 118.5 -49.5t43.5 -136.5t-43.5 -136.5t-118.5 -49.5q-76 0 -120 49.5t-44 136.5t44 136.5t120 49.5zM897 573q-61 0 -95.5 -42t-34.5 -115t34.5 -115t95.5 -42
t95 42t34 115q0 74 -34 115.5t-95 41.5zM1043 126h-293v32h293v-32z" />
    <glyph glyph-name="published" unicode="&#x2117;" horiz-adv-x="819" 
d="M409 722q160 0 258.5 -101t98.5 -265t-98.5 -265t-258.5 -101t-258 101t-98 265t98 265t258 101zM409 694q-148 0 -238 -93t-90 -245t90 -245t238 -93t238.5 93t90.5 245t-90.5 245t-238.5 93zM277 594h163q81 0 124.5 -38t43.5 -103t-43.5 -103t-124.5 -38h-125v-208
h-38v490zM315 558v-210h125q63 0 96 27.5t33 77.5t-33 77.5t-96 27.5h-125z" />
    <glyph glyph-name="trademark" unicode="&#x2122;" horiz-adv-x="754" 
d="M291 682h-127v-326h-32v326h-127v30h286v-30zM702 356h-32v182v136h-1l-55 -137l-71 -181h-37l-71 181l-55 137h-1v-136v-182h-32v356h52l70 -181l55 -139h1l54 139l71 181h52v-356z" />
    <glyph glyph-name="Ohm" unicode="&#x2126;" horiz-adv-x="720" 
d="M360 723q139 0 221.5 -80.5t82.5 -235.5q0 -105 -47.5 -192.5t-134.5 -177.5v-2h193v-35h-238v36q92 95 140 180t48 190q0 138 -72 209.5t-193 71.5t-193.5 -71.5t-72.5 -209.5q0 -105 48.5 -190t140.5 -180v-36h-238v35h193v2q-87 90 -134.5 177.5t-47.5 192.5
q0 155 82.5 235.5t221.5 80.5z" />
    <glyph glyph-name="estimated" unicode="&#x212e;" horiz-adv-x="857" 
d="M429 685q175 0 278 -104t103 -256h-609q-13 0 -13 -12v-166q0 -29 15 -43q93 -91 226 -91q72 0 134.5 29.5t103.5 79.5h68q-40 -55 -117.5 -94.5t-188.5 -39.5q-172 0 -277 97.5t-105 249.5t103.5 251t278.5 99zM429 659q-133 0 -226 -93q-15 -14 -15 -40v-166
q0 -13 13 -13h453q13 0 13 13v166q0 27 -15 40q-94 93 -223 93z" />
    <glyph glyph-name="oneeighth" unicode="&#x215b;" horiz-adv-x="664" 
d="M133 270h-34v332h-1q-27 -24 -89 -24v29q46 0 68 15t27 52h29v-404zM87 0h-40l394 674h40zM495 412q57 0 93 -30.5t36 -79.5q0 -67 -72 -92v-1q80 -25 80 -100q0 -52 -38 -84t-99 -32q-62 0 -99.5 32t-37.5 84q0 75 80 100v1q-72 25 -72 92q0 49 35.5 79.5t93.5 30.5z
M495 379q-43 0 -69 -21t-26 -55q0 -36 26 -57.5t69 -21.5t69 21.5t26 57.5q0 34 -26 55t-69 21zM495 193q-45 0 -74 -23t-29 -60q0 -39 28 -62t75 -23t75 23t28 62q0 37 -29 60t-74 23z" />
    <glyph glyph-name="threeeighths" unicode="&#x215c;" horiz-adv-x="797" 
d="M162 682q59 0 94 -29.5t35 -78.5q0 -70 -72 -97v-1q80 -24 80 -101q0 -50 -38 -81.5t-98 -31.5q-63 0 -98.5 33t-35.5 90h34q0 -90 100 -90q45 0 73.5 22t28.5 58q0 41 -29 63t-83 22h-20v31h20q48 0 76 22t28 59q0 35 -26 56t-70 21q-45 0 -70 -22.5t-25 -65.5h-35
q0 57 35.5 89t95.5 32zM220 0h-40l394 674h40zM628 412q57 0 93 -30.5t36 -79.5q0 -67 -72 -92v-1q80 -25 80 -100q0 -52 -38 -84t-99 -32q-62 0 -99.5 32t-37.5 84q0 75 80 100v1q-72 25 -72 92q0 49 35.5 79.5t93.5 30.5zM628 379q-43 0 -69 -21t-26 -55q0 -36 26 -57.5
t69 -21.5t69 21.5t26 57.5q0 34 -26 55t-69 21zM628 193q-45 0 -74 -23t-29 -60q0 -39 28 -62t75 -23t75 23t28 62q0 37 -29 60t-74 23z" />
    <glyph glyph-name="fiveeighths" unicode="&#x215d;" horiz-adv-x="796" 
d="M280 642h-188l-14 -146h1q30 38 88 38q61 0 96 -36.5t35 -98.5t-37 -99.5t-100 -37.5q-57 0 -91 30.5t-34 82.5h34q1 -38 26 -59t65 -21q48 0 75.5 28.5t27.5 76.5q0 47 -26.5 74t-72.5 27q-74 0 -92 -66l-35 2l23 237h219v-32zM219 0h-40l394 674h40zM627 412
q57 0 93 -30.5t36 -79.5q0 -67 -72 -92v-1q80 -25 80 -100q0 -52 -38 -84t-99 -32q-62 0 -99.5 32t-37.5 84q0 75 80 100v1q-72 25 -72 92q0 49 35.5 79.5t93.5 30.5zM627 379q-43 0 -69 -21t-26 -55q0 -36 26 -57.5t69 -21.5t69 21.5t26 57.5q0 34 -26 55t-69 21zM627 193
q-45 0 -74 -23t-29 -60q0 -39 28 -62t75 -23t75 23t28 62q0 37 -29 60t-74 23z" />
    <glyph glyph-name="seveneighths" unicode="&#x215e;" horiz-adv-x="705" 
d="M283 674v-32q-113 -156 -161 -372h-36q52 216 159 372h-236v32h274zM128 0h-40l394 674h40zM536 412q57 0 93 -30.5t36 -79.5q0 -67 -72 -92v-1q80 -25 80 -100q0 -52 -38 -84t-99 -32q-62 0 -99.5 32t-37.5 84q0 75 80 100v1q-72 25 -72 92q0 49 35.5 79.5t93.5 30.5z
M536 379q-43 0 -69 -21t-26 -55q0 -36 26 -57.5t69 -21.5t69 21.5t26 57.5q0 34 -26 55t-69 21zM536 193q-45 0 -74 -23t-29 -60q0 -39 28 -62t75 -23t75 23t28 62q0 37 -29 60t-74 23z" />
    <glyph glyph-name="Sevenroman" unicode="&#x2166;" horiz-adv-x="1079" 
d="M331 0h-51l-272 712h39l130 -341l127 -334h2l127 334l130 341h40zM731 0h-37v712h37v-712zM976 0h-37v712h37v-712z" />
    <glyph glyph-name="partialdiff" unicode="&#x2202;" horiz-adv-x="576" 
d="M264 723q114 0 175 -92t61 -271q0 -186 -66.5 -278.5t-171.5 -92.5q-100 0 -154 62t-54 168q0 111 59 183t160 72q74 0 123 -41t63 -108h2q1 16 1 51q0 150 -52 230.5t-146 80.5q-130 0 -146 -132h-39q8 78 54 123t131 45zM275 438q-84 0 -133 -61.5t-49 -158.5
q0 -91 43 -142t126 -51q85 0 134.5 64.5t49.5 157.5q0 85 -46.5 138t-124.5 53z" />
    <glyph glyph-name="increment" unicode="&#x2206;" horiz-adv-x="647" 
d="M641 0h-635l292 712h51zM586 35l-137 338l-125 306h-1l-125 -306l-138 -338h526z" />
    <glyph glyph-name="product" unicode="&#x220f;" horiz-adv-x="637" 
d="M534 -120h-38v797h-355v-797h-37v832h430v-832z" />
    <glyph glyph-name="summation" unicode="&#x2211;" horiz-adv-x="456" 
d="M421 678h-345l229 -387l-229 -377h345v-34h-386v34l230 377l-230 387v34h386v-34z" />
    <glyph glyph-name="minus" unicode="&#x2212;" horiz-adv-x="566" 
d="M491 300h-416v34h416v-34z" />
    <glyph glyph-name="divisionslash" unicode="&#x2215;" horiz-adv-x="416" 
d="M68 -89h-38l297 834h38z" />
    <glyph glyph-name="bulletoperator" unicode="&#x2219;" horiz-adv-x="293" 
d="M171 266h-49v79h49v-79z" />
    <glyph glyph-name="radical" unicode="&#x221a;" horiz-adv-x="508" 
d="M250 -120h-42l-103 431h-80v32h106l98 -414h2l223 783h34z" />
    <glyph glyph-name="infinity" unicode="&#x221e;" horiz-adv-x="574" 
d="M440 438q53 0 86 -36t33 -94t-33 -94t-86 -36q-50 0 -84.5 26.5t-68.5 75.5q-34 -49 -68 -75.5t-84 -26.5q-53 0 -86.5 36t-33.5 94t33.5 94t86.5 36q50 0 84 -26.5t68 -75.5q34 49 68.5 75.5t84.5 26.5zM137 212q41 0 69.5 24t61.5 72q-22 31 -37 48.5t-40 32.5t-54 15
q-40 0 -63.5 -26t-23.5 -70t23.5 -70t63.5 -26zM437 212q41 0 64.5 26t23.5 70t-23.5 70t-64.5 26t-69.5 -24t-61.5 -72q22 -31 37 -48.5t40 -32.5t54 -15z" />
    <glyph glyph-name="integral" unicode="&#x222b;" horiz-adv-x="277" 
d="M231 715q19 0 33 -3v-33q-14 4 -29 4q-78 0 -78 -98v-646q0 -127 -111 -127q-18 0 -32 3v33q12 -4 28 -4q40 0 59.5 23.5t19.5 74.5v646q0 127 110 127z" />
    <glyph glyph-name="approxequal" unicode="&#x2248;" horiz-adv-x="566" 
d="M180 472q32 0 61.5 -16.5t48 -36t44.5 -36t52 -16.5q34 0 54.5 25t20.5 67h33q0 -56 -29.5 -91t-78.5 -35q-32 0 -61 16.5t-48 36t-45 36t-52 16.5q-34 0 -54.5 -25t-20.5 -67h-33q0 56 29.5 91t78.5 35zM180 301q32 0 61.5 -16.5t48 -36t44.5 -36t52 -16.5q34 0 54.5 25
t20.5 67h33q0 -56 -29.5 -91t-78.5 -35q-32 0 -61 16.5t-48 36t-45 36t-52 16.5q-34 0 -54.5 -25t-20.5 -67h-33q0 56 29.5 91t78.5 35z" />
    <glyph glyph-name="notequal" unicode="&#x2260;" horiz-adv-x="566" 
d="M339 368l-72 -103h224v-34h-248l-98 -141h-39l98 141h-129v34h153l71 103h-224v34h248l98 141h40l-98 -141h128v-34h-152z" />
    <glyph glyph-name="lessequal" unicode="&#x2264;" horiz-adv-x="566" 
d="M491 486l-381 -168v-2l381 -168v-38l-416 184v46l416 184v-38zM491 34v-34h-416v34h416z" />
    <glyph glyph-name="greaterequal" unicode="&#x2265;" horiz-adv-x="566" 
d="M491 340v-46l-416 -184v38l381 168v2l-381 168v38zM491 0h-416v34h416v-34z" />
    <glyph glyph-name="lozenge" unicode="&#x25ca;" horiz-adv-x="550" 
d="M510 356l-213 -356h-44l-213 356l213 356h44zM78 356l197 -327l197 327l-197 327z" />
    <glyph glyph-name="apple" unicode="&#xf8ff;" horiz-adv-x="596" 
d="M150 777h295q58 0 91 -33t33 -91v-594q0 -58 -33 -91t-91 -33h-295q-57 0 -90 33t-33 91v594q0 58 33 91t90 33zM445 749h-295q-44 0 -70 -26t-26 -70v-594q0 -44 26 -70t70 -26h295q44 0 70 26t26 70v594q0 44 -26 70t-70 26zM294 644q71 0 115.5 -39.5t44.5 -101.5
q0 -43 -17 -72.5t-70 -74.5q-48 -41 -61 -71t-13 -101h-33v21q0 64 15.5 97.5t65.5 76.5q46 40 60 64.5t14 59.5q0 48 -33.5 77t-87.5 29q-58 0 -91.5 -31.5t-37.5 -90.5h-37q5 76 48 116.5t118 40.5zM298 65h-45v68h45v-68z" />
    <glyph glyph-name="ff" unicode="&#xfb00;" horiz-adv-x="501" 
d="M457 683q-78 0 -78 -98v-77h105v-32h-105v-476h-36v476h-198v-476h-36v476h-94v32h94v80q0 127 110 127q19 0 33 -3v-33q-14 4 -29 4q-78 0 -78 -98v-77h198v80q0 127 110 127q19 0 33 -3v-33q-14 4 -29 4z" />
    <glyph glyph-name="fi" unicode="&#xfb01;" horiz-adv-x="478" 
d="M109 508v80q0 127 110 127q19 0 33 -3v-33q-14 4 -29 4q-78 0 -78 -98v-77h106v-32h-106v-476h-36v476h-94v32h94zM391 712v-81h-36v81h36zM355 508h36v-508h-36v508z" />
    <glyph glyph-name="fl" unicode="&#xfb02;" horiz-adv-x="478" 
d="M109 508v80q0 127 110 127q19 0 33 -3v-33q-14 4 -29 4q-78 0 -78 -98v-77h106v-32h-106v-476h-36v476h-94v32h94zM391 712v-712h-36v712h36z" />
    <glyph glyph-name="ffi" unicode="&#xfb03;" 
d="M343 508v80q0 127 110 127q19 0 33 -3v-33q-14 4 -29 4q-78 0 -78 -98v-77h105v-32h-105v-476h-36v476h-198v-476h-36v476h-94v32h94v80q0 127 110 127q19 0 33 -3v-33q-14 4 -29 4q-78 0 -78 -98v-77h198zM625 712v-81h-36v81h36zM589 508h36v-508h-36v508z" />
    <glyph glyph-name="ffl" unicode="&#xfb04;" 
d="M343 508v80q0 127 110 127q19 0 33 -3v-33q-14 4 -29 4q-78 0 -78 -98v-77h105v-32h-105v-476h-36v476h-198v-476h-36v476h-94v32h94v80q0 127 110 127q19 0 33 -3v-33q-14 4 -29 4q-78 0 -78 -98v-77h198zM625 712v-712h-36v712h36z" />
    <glyph glyph-name="uniFEFF" unicode="&#xfeff;" horiz-adv-x="0" 
 />
    <glyph glyph-name="NULL" horiz-adv-x="293" 
 />
    <glyph glyph-name="J.acute.loclNLD" horiz-adv-x="318" 
d="M185 777h-36l93 139h48zM220 712v-531q0 -91 -43 -138t-122 -47q-23 0 -40 5v36q23 -5 40 -5q127 0 127 149v531h38z" />
    <glyph glyph-name="Ccedilla.ss01" horiz-adv-x="671" 
d="M347 723q119 0 190 -69.5t77 -175.5h-39q-7 93 -67.5 151t-160.5 58q-121 0 -191.5 -89t-70.5 -242t69.5 -242t188.5 -89q98 0 161.5 58.5t74.5 153.5h39q-11 -112 -84.5 -180t-190.5 -68q-137 0 -216.5 98.5t-79.5 268.5q0 169 81 268t219 99zM267 -207h-49l125 158h36z
" />
    <glyph glyph-name="Scedilla.ss01" horiz-adv-x="586" 
d="M276 723q237 0 237 -235h-38q0 200 -199 200q-82 0 -129 -39.5t-47 -108.5q0 -68 43.5 -99.5t148.5 -56.5q62 -15 98 -28t70.5 -35t49.5 -56t15 -84q0 -89 -62 -140.5t-169 -51.5q-119 0 -182 62.5t-63 186.5h38q0 -214 207 -214q92 0 142.5 41.5t50.5 115.5
q0 39 -11.5 65.5t-41.5 44.5t-61 29t-89 25q-118 29 -170 69t-52 126q0 82 58 132.5t156 50.5zM216 -207h-49l125 158h36z" />
    <glyph glyph-name="Tcedilla.ss01" horiz-adv-x="579" 
d="M571 677h-263v-677h-37v677h-264v35h564v-35zM214 -207h-49l125 158h36z" />
    <glyph glyph-name="idotaccent" horiz-adv-x="211" 
d="M124 631h-36v81h36v-81zM124 0h-36v508h36v-508z" />
    <glyph glyph-name="j.acute.loclNLD" horiz-adv-x="220" 
d="M99 573h-36l93 139h48zM133 508v-552q0 -77 -31 -110.5t-89 -33.5q-15 0 -25 3v33q14 -2 23 -2q43 0 64.5 24.5t21.5 85.5v552h36z" />
    <glyph glyph-name="ccedilla.ss01" horiz-adv-x="505" 
d="M266 519q82 0 136 -49.5t61 -129.5h-38q-5 65 -49 105.5t-110 40.5q-85 0 -133.5 -61.5t-48.5 -170.5t48.5 -170.5t133.5 -61.5q66 0 109.5 42.5t49.5 108.5h38q-7 -82 -61 -133t-136 -51q-102 0 -160.5 70.5t-58.5 194.5t58.5 194.5t160.5 70.5zM191 -207h-49l125 158
h36z" />
    <glyph glyph-name="scedilla.ss01" horiz-adv-x="461" 
d="M221 519q85 0 132.5 -46t48.5 -128h-37q0 67 -38 104t-106 37q-58 0 -94.5 -27.5t-36.5 -74.5t29.5 -66t108.5 -37q50 -11 78.5 -20t57 -25.5t41 -42t12.5 -62.5q0 -63 -49.5 -102.5t-128.5 -39.5q-93 0 -144 48.5t-52 135.5h36q0 -72 42 -111.5t118 -39.5q62 0 102 29.5
t40 77.5q0 53 -34 75t-129 43q-34 8 -54 13.5t-43.5 16t-36.5 23.5t-21.5 34t-8.5 48q0 62 47 99.5t120 37.5zM159 -207h-49l125 158h36z" />
    <glyph glyph-name="tcedilla.ss01" horiz-adv-x="284" 
d="M218 31q19 0 35 4v-33q-20 -4 -39 -4q-56 0 -81 29t-25 96v353h-95v32h95v117h36v-117h104v-32h-104v-353q0 -50 17 -71t57 -21zM161 -49h36l-112 -158h-49z" />
    <glyph glyph-name="a.sups" horiz-adv-x="369" 
d="M181 694q61 0 96 -33.5t35 -100.5v-146q0 -52 8 -84h-30q-6 36 -6 64h-1q-39 -71 -133 -71q-55 0 -88.5 28t-33.5 73q0 44 31 70t104 37q65 10 118 14v18q0 52 -27 77.5t-73 25.5q-48 0 -74.5 -24t-29.5 -63h-33q3 52 39 83.5t98 31.5zM281 483v34q-56 -5 -114 -14
q-57 -9 -80.5 -27t-23.5 -51q0 -34 25 -54t68 -20q58 0 90 34q20 21 27.5 41t7.5 57z" />
    <glyph glyph-name="b.sups" horiz-adv-x="400" 
d="M94 616h1q14 36 46 57t73 21q71 0 112.5 -50t41.5 -136t-41.5 -135.5t-112.5 -49.5q-41 0 -73 21t-46 57h-1v-71h-32v498h32v-212zM210 666q-54 0 -86 -42.5t-32 -115.5q0 -72 32 -114.5t86 -42.5q58 0 91.5 42.5t33.5 114.5q0 73 -33.5 115.5t-91.5 42.5z" />
    <glyph glyph-name="c.sups" horiz-adv-x="367" 
d="M193 694q62 0 100.5 -36.5t43.5 -91.5h-33q-4 41 -34.5 69.5t-76.5 28.5q-59 0 -92.5 -41.5t-33.5 -114.5t33.5 -114.5t92.5 -41.5q46 0 76.5 28.5t34.5 72.5h33q-5 -58 -44 -94.5t-100 -36.5q-74 0 -117 49.5t-43 136.5q0 86 43 136t117 50z" />
    <glyph glyph-name="d.sups" horiz-adv-x="401" 
d="M339 828v-498h-32v71h-1q-14 -36 -46 -57t-74 -21q-71 0 -112 50t-41 135q0 86 41.5 136t111.5 50q42 0 74 -21t46 -57h1v212h32zM190 666q-57 0 -90.5 -42.5t-33.5 -115.5q0 -72 33.5 -114.5t90.5 -42.5q55 0 87 42.5t32 114.5q0 73 -32 115.5t-87 42.5z" />
    <glyph glyph-name="e.sups" horiz-adv-x="381" 
d="M196 351q47 0 77.5 23t38.5 61h33q-8 -49 -47 -81t-102 -32q-76 0 -119.5 52t-43.5 141q0 80 43 129.5t116 49.5q60 0 100.5 -34t51.5 -94q5 -23 5 -63h-283q1 -73 36.5 -112.5t93.5 -39.5zM192 665q-56 0 -90 -36.5t-36 -98.5h252q-3 64 -37.5 99.5t-88.5 35.5z" />
    <glyph glyph-name="egrave.sups" horiz-adv-x="381" 
d="M198 732l-85 96h47l72 -96h-34zM196 351q47 0 77.5 23t38.5 61h33q-8 -49 -47 -81t-102 -32q-76 0 -119.5 52t-43.5 141q0 80 43 129.5t116 49.5q60 0 100.5 -34t51.5 -94q5 -23 5 -63h-283q1 -73 36.5 -112.5t93.5 -39.5zM192 665q-56 0 -90 -36.5t-36 -98.5h252
q-3 64 -37.5 99.5t-88.5 35.5z" />
    <glyph glyph-name="f.sups" horiz-adv-x="197" 
d="M164 802q-54 0 -54 -66v-50h76v-29h-76v-327h-32v327h-67v29h67v53q0 92 83 92q15 0 26 -3v-29q-10 3 -23 3z" />
    <glyph glyph-name="g.sups" horiz-adv-x="401" 
d="M188 694q82 0 118 -76h2v68h32v-334q0 -156 -152 -156q-65 0 -102.5 30t-37.5 82h32q1 -40 30 -62t78 -22q120 0 120 129v58h-2q-36 -75 -118 -75q-71 0 -113 48.5t-42 130.5t42 130.5t113 48.5zM188 666q-56 0 -89 -41t-33 -110t33 -109.5t89 -40.5q57 0 89 39.5
t32 110.5t-32 111t-89 40z" />
    <glyph glyph-name="h.sups" horiz-adv-x="397" 
d="M94 627h1q36 66 117 66q128 0 128 -147v-216h-32v215q0 63 -25.5 91t-75.5 28q-47 0 -80 -32.5t-33 -86.5v-215h-32v498h32v-201z" />
    <glyph glyph-name="i.sups" horiz-adv-x="155" 
d="M94 770h-32v58h32v-58zM94 330h-32v356h32v-356z" />
    <glyph glyph-name="j.sups" horiz-adv-x="163" 
d="M101 770h-32v58h32v-58zM101 686v-390q0 -98 -89 -98q-11 0 -20 3v29q12 -2 18 -2q30 0 44.5 15.5t14.5 52.5v390h32z" />
    <glyph glyph-name="k.sups" horiz-adv-x="334" 
d="M338 330h-46l-197 186h-1v-186h-32v498h32v-295h1l176 153h46l-187 -161z" />
    <glyph glyph-name="l.sups" horiz-adv-x="155" 
d="M94 330h-32v498h32v-498z" />
    <glyph glyph-name="m.sups" horiz-adv-x="598" 
d="M423 693q118 0 118 -141v-222h-32v220q0 114 -90 114q-46 0 -74 -32t-28 -84v-218h-32v232q0 48 -23.5 75t-65.5 27q-46 0 -74 -33.5t-28 -90.5v-210h-32v356h32v-57h1q36 64 104 64q39 0 68.5 -20t40.5 -56q34 76 115 76z" />
    <glyph glyph-name="n.sups" horiz-adv-x="397" 
d="M212 693q128 0 128 -147v-216h-32v215q0 63 -25.5 91t-75.5 28q-47 0 -80 -32.5t-33 -86.5v-215h-32v356h32v-59h1q17 30 48 48t69 18z" />
    <glyph glyph-name="o.sups" horiz-adv-x="392" 
d="M196 694q76 0 119.5 -50t43.5 -136q0 -87 -43.5 -136.5t-119.5 -49.5q-75 0 -119 49.5t-44 136.5q0 86 44 136t119 50zM196 665q-60 0 -94.5 -42t-34.5 -115t34.5 -115t94.5 -42q61 0 95.5 41.5t34.5 115.5t-34.5 115.5t-95.5 41.5z" />
    <glyph glyph-name="p.sups" horiz-adv-x="400" 
d="M214 694q71 0 112.5 -50t41.5 -136t-41.5 -135.5t-112.5 -49.5q-41 0 -73 21t-46 57h-1v-200h-32v485h32v-70h1q14 36 46 57t73 21zM210 666q-54 0 -86 -42.5t-32 -115.5q0 -72 32 -114.5t86 -42.5q58 0 91.5 42.5t33.5 114.5q0 73 -33.5 115.5t-91.5 42.5z" />
    <glyph glyph-name="q.sups" horiz-adv-x="401" 
d="M186 694q42 0 74 -21t46 -57h1v70h32v-485h-32v200h-1q-14 -36 -46 -57t-74 -21q-71 0 -112 50t-41 135q0 86 41.5 136t111.5 50zM190 666q-57 0 -90.5 -42.5t-33.5 -115.5q0 -72 33.5 -114.5t90.5 -42.5q55 0 87 42.5t32 114.5q0 73 -32 115.5t-87 42.5z" />
    <glyph glyph-name="r.sups" horiz-adv-x="242" 
d="M210 688q9 0 23 -2v-32q-12 2 -22 2q-55 0 -86 -34t-31 -99v-193h-32v356h32v-67h1q35 69 115 69z" />
    <glyph glyph-name="s.sups" horiz-adv-x="336" 
d="M161 694q62 0 97 -32t36 -90h-33q0 44 -26 68.5t-74 24.5q-40 0 -65 -18t-25 -48q0 -32 20 -44t77 -25q35 -7 54.5 -13t41.5 -18t31.5 -30.5t9.5 -45.5q0 -46 -36 -73.5t-95 -27.5q-68 0 -105.5 33.5t-38.5 94.5h33q0 -47 29 -73t82 -26q43 0 71 19.5t28 50.5
q0 35 -24 49.5t-91 29.5q-31 7 -47 12t-35.5 15.5t-28 27.5t-8.5 42q0 43 34 70t88 27z" />
    <glyph glyph-name="t.sups" horiz-adv-x="208" 
d="M162 357q7 0 25 3v-29q-12 -3 -29 -3q-43 0 -62.5 21.5t-19.5 69.5v238h-67v29h67v82h32v-82h75v-29h-75v-238q0 -33 12.5 -47.5t41.5 -14.5z" />
    <glyph glyph-name="u.sups" horiz-adv-x="397" 
d="M185 323q-128 0 -128 147v216h32v-215q0 -63 25.5 -91t75.5 -28q48 0 81 32.5t33 86.5v215h32v-356h-32v59h-2q-16 -30 -47 -48t-70 -18z" />
    <glyph glyph-name="v.sups" horiz-adv-x="320" 
d="M182 330h-43l-140 356h35l61 -158l64 -165h2l64 165l62 158h34z" />
    <glyph glyph-name="w.sups" horiz-adv-x="536" 
d="M418 330h-46l-53 167l-50 158h-2l-50 -158l-52 -167h-47l-111 356h33l50 -160l51 -165h2l50 162l51 163h49l50 -163l51 -162h1l52 165l50 160h33z" />
    <glyph glyph-name="x.sups" horiz-adv-x="330" 
d="M185 516l144 -186h-40l-123 161h-2l-122 -161h-40l144 186l-131 170h39l110 -147h2l110 147h40z" />
    <glyph glyph-name="y.sups" horiz-adv-x="323" 
d="M324 686l-152 -369q-30 -71 -57.5 -95t-77.5 -24q-14 0 -26 3v30q11 -4 26 -4q39 0 60 19.5t47 82.5l-145 357h35l126 -315h2l128 315h34z" />
    <glyph glyph-name="z.sups" horiz-adv-x="325" 
d="M302 654l-247 -293v-2h254v-29h-293v32l247 293v2h-240v29h279v-32z" />
    <glyph glyph-name="a.smcp" horiz-adv-x="537" 
d="M411 186h-285l-80 -186h-40l237 548h51l237 -548h-40zM396 221l-27 63l-100 232h-1l-100 -232l-27 -63h255z" />
    <glyph glyph-name="aacute.smcp" horiz-adv-x="537" 
d="M253 613h-36l93 139h48zM411 186h-285l-80 -186h-40l237 548h51l237 -548h-40zM396 221l-27 63l-100 232h-1l-100 -232l-27 -63h255z" />
    <glyph glyph-name="abreve.smcp" horiz-adv-x="537" 
d="M269 620q-63 0 -100.5 34.5t-43.5 97.5h32q12 -101 112 -101t112 101h32q-6 -63 -43.5 -97.5t-100.5 -34.5zM411 186h-285l-80 -186h-40l237 548h51l237 -548h-40zM396 221l-27 63l-100 232h-1l-100 -232l-27 -63h255z" />
    <glyph glyph-name="acircumflex.smcp" horiz-adv-x="537" 
d="M174 613h-42l117 139h40l117 -139h-43l-94 113zM411 186h-285l-80 -186h-40l237 548h51l237 -548h-40zM396 221l-27 63l-100 232h-1l-100 -232l-27 -63h255z" />
    <glyph glyph-name="adieresis.smcp" horiz-adv-x="537" 
d="M195 671h-36v81h36v-81zM378 671h-36v81h36v-81zM411 186h-285l-80 -186h-40l237 548h51l237 -548h-40zM396 221l-27 63l-100 232h-1l-100 -232l-27 -63h255z" />
    <glyph glyph-name="agrave.smcp" horiz-adv-x="537" 
d="M285 613l-105 139h49l92 -139h-36zM411 186h-285l-80 -186h-40l237 548h51l237 -548h-40zM396 221l-27 63l-100 232h-1l-100 -232l-27 -63h255z" />
    <glyph glyph-name="amacron.smcp" horiz-adv-x="537" 
d="M390 677h-242v32h242v-32zM411 186h-285l-80 -186h-40l237 548h51l237 -548h-40zM396 221l-27 63l-100 232h-1l-100 -232l-27 -63h255z" />
    <glyph glyph-name="aogonek.smcp" horiz-adv-x="537" 
d="M498 -161q21 0 36 6v-29q-15 -6 -39 -6q-81 0 -81 70q0 32 18 59t59 61l-80 186h-285l-80 -186h-40l237 548h51l237 -548q-46 -37 -64 -63t-18 -54q0 -44 49 -44zM396 221l-27 63l-100 232h-1l-100 -232l-27 -63h255z" />
    <glyph glyph-name="aring.smcp" horiz-adv-x="537" 
d="M269 622q-37 0 -63.5 26t-26.5 64t26.5 64t63.5 26t63.5 -26.5t26.5 -63.5t-26.5 -63.5t-63.5 -26.5zM269 776q-27 0 -45.5 -18.5t-18.5 -45.5t18.5 -45.5t45.5 -18.5t45.5 18.5t18.5 45.5t-18.5 45.5t-45.5 18.5zM411 186h-285l-80 -186h-40l237 548h51l237 -548h-40z
M396 221l-27 63l-100 232h-1l-100 -232l-27 -63h255z" />
    <glyph glyph-name="atilde.smcp" horiz-adv-x="537" 
d="M196 710q-44 0 -49 -60h-31q3 44 24.5 68t55.5 24q31 0 77 -30t69 -30q45 0 50 60h31q-3 -44 -24.5 -68t-55.5 -24q-31 0 -77 30t-70 30zM411 186h-285l-80 -186h-40l237 548h51l237 -548h-40zM396 221l-27 63l-100 232h-1l-100 -232l-27 -63h255z" />
    <glyph glyph-name="ae.smcp" horiz-adv-x="761" 
d="M704 35v-35h-284l-33 199h-240l-110 -199h-42l301 548h398v-35h-321l36 -214h270v-35h-265l39 -229h251zM381 234l-46 279h-15l-154 -279h215z" />
    <glyph glyph-name="b.smcp" horiz-adv-x="520" 
d="M93 548h173q91 0 137.5 -37t46.5 -101q0 -49 -28.5 -82.5t-78.5 -45.5v-1q54 -10 86.5 -45t32.5 -87q0 -69 -48 -109t-134 -40h-187v548zM130 514v-217h131q78 0 114.5 29.5t36.5 79.5q0 108 -149 108h-133zM130 263v-229h146q72 0 109.5 30t37.5 85q0 114 -162 114h-131
z" />
    <glyph glyph-name="c.smcp" horiz-adv-x="564" 
d="M289 559q99 0 158 -53.5t64 -136.5h-39q-6 69 -55 111.5t-128 42.5q-97 0 -153 -67t-56 -182t55.5 -182t150.5 -67q78 0 129 43t60 114h39q-9 -88 -69.5 -140.5t-158.5 -52.5q-113 0 -178.5 76.5t-65.5 208.5t66.5 208.5t180.5 76.5z" />
    <glyph glyph-name="cacute.smcp" horiz-adv-x="564" 
d="M274 613h-36l93 139h48zM289 559q99 0 158 -53.5t64 -136.5h-39q-6 69 -55 111.5t-128 42.5q-97 0 -153 -67t-56 -182t55.5 -182t150.5 -67q78 0 129 43t60 114h39q-9 -88 -69.5 -140.5t-158.5 -52.5q-113 0 -178.5 76.5t-65.5 208.5t66.5 208.5t180.5 76.5z" />
    <glyph glyph-name="ccaron.smcp" horiz-adv-x="564" 
d="M310 613h-40l-117 139h42l95 -113l94 113h43zM289 559q99 0 158 -53.5t64 -136.5h-39q-6 69 -55 111.5t-128 42.5q-97 0 -153 -67t-56 -182t55.5 -182t150.5 -67q78 0 129 43t60 114h39q-9 -88 -69.5 -140.5t-158.5 -52.5q-113 0 -178.5 76.5t-65.5 208.5t66.5 208.5
t180.5 76.5z" />
    <glyph glyph-name="ccedilla.smcp" horiz-adv-x="564" 
d="M475 182h39q-8 -80 -60 -131.5t-137 -60.5l-38 -56q10 2 21 2q36 0 58 -18.5t22 -50.5q0 -34 -25.5 -56t-71.5 -22q-49 0 -92 25l11 22q36 -20 78 -20q32 0 49.5 13.5t17.5 36.5q0 48 -61 48q-17 0 -32 -5l-13 14l45 66q-113 0 -178.5 76.5t-65.5 208.5t66.5 208.5
t180.5 76.5q99 0 158 -53.5t64 -136.5h-39q-6 69 -55 111.5t-128 42.5q-97 0 -153 -67t-56 -182t55.5 -182t150.5 -67q78 0 129 43t60 114z" />
    <glyph glyph-name="ccircumflex.smcp" horiz-adv-x="564" 
d="M384 613l-94 113l-95 -113h-42l117 139h40l117 -139h-43zM289 559q99 0 158 -53.5t64 -136.5h-39q-6 69 -55 111.5t-128 42.5q-97 0 -153 -67t-56 -182t55.5 -182t150.5 -67q78 0 129 43t60 114h39q-9 -88 -69.5 -140.5t-158.5 -52.5q-113 0 -178.5 76.5t-65.5 208.5
t66.5 208.5t180.5 76.5z" />
    <glyph glyph-name="cdotaccent.smcp" horiz-adv-x="564" 
d="M307 671h-36v81h36v-81zM289 559q99 0 158 -53.5t64 -136.5h-39q-6 69 -55 111.5t-128 42.5q-97 0 -153 -67t-56 -182t55.5 -182t150.5 -67q78 0 129 43t60 114h39q-9 -88 -69.5 -140.5t-158.5 -52.5q-113 0 -178.5 76.5t-65.5 208.5t66.5 208.5t180.5 76.5z" />
    <glyph glyph-name="d.smcp" horiz-adv-x="598" 
d="M93 548h165q143 0 220.5 -71.5t77.5 -202.5t-77.5 -202.5t-220.5 -71.5h-165v548zM130 513v-478h128q125 0 192 61.5t67 177.5t-67 177.5t-192 61.5h-128z" />
    <glyph glyph-name="eth.smcp" horiz-adv-x="599" 
d="M94 548h165q143 0 220.5 -71.5t77.5 -202.5t-77.5 -202.5t-220.5 -71.5h-165v261h-61v33h61v254zM131 35h128q125 0 192 61.5t67 177.5t-67 177.5t-192 61.5h-128v-219h184v-33h-184v-226z" />
    <glyph glyph-name="dcaron.smcp" horiz-adv-x="598" 
d="M294 613h-40l-117 139h42l95 -113l94 113h43zM93 548h165q143 0 220.5 -71.5t77.5 -202.5t-77.5 -202.5t-220.5 -71.5h-165v548zM130 513v-478h128q125 0 192 61.5t67 177.5t-67 177.5t-192 61.5h-128z" />
    <glyph glyph-name="dcroat.smcp" horiz-adv-x="599" 
d="M94 548h165q143 0 220.5 -71.5t77.5 -202.5t-77.5 -202.5t-220.5 -71.5h-165v261h-61v33h61v254zM131 35h128q125 0 192 61.5t67 177.5t-67 177.5t-192 61.5h-128v-219h184v-33h-184v-226z" />
    <glyph glyph-name="e.smcp" horiz-adv-x="507" 
d="M446 513h-315v-214h300v-35h-300v-229h325v-35h-362v548h352v-35z" />
    <glyph glyph-name="eacute.smcp" horiz-adv-x="507" 
d="M254 613h-36l93 139h48zM446 513h-315v-214h300v-35h-300v-229h325v-35h-362v548h352v-35z" />
    <glyph glyph-name="ebreve.smcp" horiz-adv-x="507" 
d="M382 752h32q-6 -63 -43.5 -97.5t-100.5 -34.5t-100.5 34.5t-43.5 97.5h32q12 -101 112 -101t112 101zM446 513h-315v-214h300v-35h-300v-229h325v-35h-362v548h352v-35z" />
    <glyph glyph-name="ecaron.smcp" horiz-adv-x="507" 
d="M290 613h-40l-117 139h42l95 -113l94 113h43zM446 513h-315v-214h300v-35h-300v-229h325v-35h-362v548h352v-35z" />
    <glyph glyph-name="ecircumflex.smcp" horiz-adv-x="507" 
d="M364 613l-94 113l-95 -113h-42l117 139h40l117 -139h-43zM446 513h-315v-214h300v-35h-300v-229h325v-35h-362v548h352v-35z" />
    <glyph glyph-name="edieresis.smcp" horiz-adv-x="507" 
d="M196 671h-36v81h36v-81zM379 671h-36v81h36v-81zM446 513h-315v-214h300v-35h-300v-229h325v-35h-362v548h352v-35z" />
    <glyph glyph-name="edotaccent.smcp" horiz-adv-x="507" 
d="M288 671h-36v81h36v-81zM446 513h-315v-214h300v-35h-300v-229h325v-35h-362v548h352v-35z" />
    <glyph glyph-name="egrave.smcp" horiz-adv-x="507" 
d="M230 752l92 -139h-36l-105 139h49zM446 513h-315v-214h300v-35h-300v-229h325v-35h-362v548h352v-35z" />
    <glyph glyph-name="emacron.smcp" horiz-adv-x="507" 
d="M391 677h-242v32h242v-32zM446 513h-315v-214h300v-35h-300v-229h325v-35h-362v548h352v-35z" />
    <glyph glyph-name="eogonek.smcp" horiz-adv-x="507" 
d="M423 -161q21 0 36 6v-29q-15 -6 -39 -6q-81 0 -81 70q0 32 18 59t59 61h-322v548h352v-35h-315v-214h300v-35h-300v-229h325v-35q-46 -37 -64 -63t-18 -54q0 -44 49 -44z" />
    <glyph glyph-name="f.smcp" horiz-adv-x="469" 
d="M437 513h-307v-219h290v-35h-290v-259h-37v548h344v-35z" />
    <glyph glyph-name="fi.smcp" horiz-adv-x="693" 
d="M437 513h-307v-219h290v-35h-290v-259h-37v548h344v-35zM600 0h-37v548h37v-548z" />
    <glyph glyph-name="fl.smcp" horiz-adv-x="924" 
d="M437 513h-307v-219h290v-35h-290v-259h-37v548h344v-35zM600 35h317v-35h-354v548h37v-513z" />
    <glyph glyph-name="g.smcp" horiz-adv-x="596" 
d="M296 559q95 0 154 -46t67 -123h-39q-10 63 -57.5 98t-124.5 35q-100 0 -158 -67t-58 -184q0 -114 55.5 -179.5t151.5 -65.5q86 0 140.5 52.5t54.5 167.5h-181v35h217v-282h-36v111h-1q-20 -55 -73 -87.5t-124 -32.5q-112 0 -177 75.5t-65 205.5q0 133 68 210t186 77z" />
    <glyph glyph-name="gbreve.smcp" horiz-adv-x="596" 
d="M402 752h32q-6 -63 -43.5 -97.5t-100.5 -34.5t-100.5 34.5t-43.5 97.5h32q12 -101 112 -101t112 101zM296 559q95 0 154 -46t67 -123h-39q-10 63 -57.5 98t-124.5 35q-100 0 -158 -67t-58 -184q0 -114 55.5 -179.5t151.5 -65.5q86 0 140.5 52.5t54.5 167.5h-181v35h217
v-282h-36v111h-1q-20 -55 -73 -87.5t-124 -32.5q-112 0 -177 75.5t-65 205.5q0 133 68 210t186 77z" />
    <glyph glyph-name="gcircumflex.smcp" horiz-adv-x="596" 
d="M384 613l-94 113l-95 -113h-42l117 139h40l117 -139h-43zM296 559q95 0 154 -46t67 -123h-39q-10 63 -57.5 98t-124.5 35q-100 0 -158 -67t-58 -184q0 -114 55.5 -179.5t151.5 -65.5q86 0 140.5 52.5t54.5 167.5h-181v35h217v-282h-36v111h-1q-20 -55 -73 -87.5
t-124 -32.5q-112 0 -177 75.5t-65 205.5q0 133 68 210t186 77z" />
    <glyph glyph-name="gcommaaccent.smcp" horiz-adv-x="596" 
d="M296 559q95 0 154 -46t67 -123h-39q-10 63 -57.5 98t-124.5 35q-100 0 -158 -67t-58 -184q0 -114 55.5 -179.5t151.5 -65.5q86 0 140.5 52.5t54.5 167.5h-181v35h217v-282h-36v111h-1q-20 -55 -73 -87.5t-124 -32.5q-112 0 -177 75.5t-65 205.5q0 133 68 210t186 77z
M312 -146l-39 -98h-20l31 98h-13v72h41v-72z" />
    <glyph glyph-name="gdotaccent.smcp" horiz-adv-x="596" 
d="M308 671h-36v81h36v-81zM296 559q95 0 154 -46t67 -123h-39q-10 63 -57.5 98t-124.5 35q-100 0 -158 -67t-58 -184q0 -114 55.5 -179.5t151.5 -65.5q86 0 140.5 52.5t54.5 167.5h-181v35h217v-282h-36v111h-1q-20 -55 -73 -87.5t-124 -32.5q-112 0 -177 75.5t-65 205.5
q0 133 68 210t186 77z" />
    <glyph glyph-name="h.smcp" horiz-adv-x="610" 
d="M517 0h-38v267h-348v-267h-37v548h37v-246h348v246h38v-548z" />
    <glyph glyph-name="hbar.smcp" horiz-adv-x="610" 
d="M565 448h-48v-448h-38v267h-348v-267h-37v448h-50v33h50v67h37v-67h348v67h38v-67h48v-33zM479 448h-348v-146h348v146z" />
    <glyph glyph-name="hcircumflex.smcp" horiz-adv-x="610" 
d="M400 613l-94 113l-95 -113h-42l117 139h40l117 -139h-43zM517 0h-38v267h-348v-267h-37v548h37v-246h348v246h38v-548z" />
    <glyph glyph-name="i.smcp" horiz-adv-x="224" 
d="M131 0h-37v548h37v-548z" />
    <glyph glyph-name="iacute.smcp" horiz-adv-x="224" 
d="M96 613h-36l93 139h48zM131 0h-37v548h37v-548z" />
    <glyph glyph-name="ibreve.smcp" horiz-adv-x="224" 
d="M203 752h32q-4 -63 -35.5 -97.5t-87.5 -34.5q-55 0 -86.5 34.5t-35.5 97.5h32q8 -101 90 -101q83 0 91 101zM131 0h-37v548h37v-548z" />
    <glyph glyph-name="icircumflex.smcp" horiz-adv-x="224" 
d="M230 614h-41l-77 112l-77 -112h-42l97 138h43zM131 0h-37v548h37v-548z" />
    <glyph glyph-name="idieresis.smcp" horiz-adv-x="224" 
d="M59 675h-36v77h36v-77zM202 675h-36v77h36v-77zM131 0h-37v548h37v-548z" />
    <glyph glyph-name="idotaccent.smcp" horiz-adv-x="224" 
d="M130 671h-36v81h36v-81zM131 0h-37v548h37v-548z" />
    <glyph glyph-name="igrave.smcp" horiz-adv-x="224" 
d="M72 752l92 -139h-36l-105 139h49zM131 0h-37v548h37v-548z" />
    <glyph glyph-name="ij.smcp" horiz-adv-x="500" 
d="M131 0h-37v548h37v-548zM411 548v-405q0 -72 -36.5 -109t-103.5 -37q-22 0 -33 4v35q15 -3 32 -3q104 0 104 110v405h37z" />
    <glyph glyph-name="imacron.smcp" horiz-adv-x="224" 
d="M218 677h-212v32h212v-32zM131 0h-37v548h37v-548z" />
    <glyph glyph-name="iogonek.smcp" horiz-adv-x="224" 
d="M98 -161q21 0 36 6v-29q-15 -6 -39 -6q-81 0 -81 70q0 32 18.5 60t61.5 63v545h37v-548q-46 -37 -64 -63t-18 -54q0 -44 49 -44z" />
    <glyph glyph-name="itilde.smcp" horiz-adv-x="224" 
d="M216 742h29q-2 -44 -22 -68t-52 -24q-27 0 -64 30t-56 30q-39 0 -44 -60h-29q2 44 21.5 68t51.5 24q27 0 64 -30t56 -30q41 0 45 60zM131 0h-37v548h37v-548z" />
    <glyph glyph-name="j.smcp" horiz-adv-x="276" 
d="M187 548v-405q0 -72 -36.5 -109t-103.5 -37q-22 0 -33 4v35q15 -3 32 -3q104 0 104 110v405h37z" />
    <glyph glyph-name="jcircumflex.smcp" horiz-adv-x="276" 
d="M286 614h-41l-77 112l-77 -112h-42l97 138h43zM187 548v-405q0 -72 -36.5 -109t-103.5 -37q-22 0 -33 4v35q15 -3 32 -3q104 0 104 110v405h37z" />
    <glyph glyph-name="k.smcp" horiz-adv-x="486" 
d="M175 287l306 -287h-54l-295 277h-1v-277h-37v548h37v-252h1l270 252h53z" />
    <glyph glyph-name="kcommaaccent.smcp" horiz-adv-x="486" 
d="M175 287l306 -287h-54l-295 277h-1v-277h-37v548h37v-252h1l270 252h53zM292 -146l-39 -98h-20l31 98h-13v72h41v-72z" />
    <glyph glyph-name="l.smcp" horiz-adv-x="455" 
d="M131 35h317v-35h-354v548h37v-513z" />
    <glyph glyph-name="lacute.smcp" horiz-adv-x="455" 
d="M135 613h-36l93 139h48zM131 35h317v-35h-354v548h37v-513z" />
    <glyph glyph-name="lcaron.smcp" horiz-adv-x="455" 
d="M131 35h317v-35h-354v548h37v-513zM220 373h-26l36 175h39z" />
    <glyph glyph-name="lcommaaccent.smcp" horiz-adv-x="455" 
d="M131 35h317v-35h-354v548h37v-513zM291 -146l-39 -98h-20l31 98h-13v72h41v-72z" />
    <glyph glyph-name="ldot.smcp" horiz-adv-x="515" 
d="M131 35h317v-35h-354v548h37v-513zM394 279h-49v80h49v-80z" />
    <glyph glyph-name="j.acute.loclNLD.smcp" horiz-adv-x="276" 
d="M152 613h-36l93 139h48zM187 548v-405q0 -72 -36.5 -109t-103.5 -37q-22 0 -33 4v35q15 -3 32 -3q104 0 104 110v405h37z" />
    <glyph glyph-name="lslash.smcp" horiz-adv-x="448" 
d="M441 35v-35h-354v246l-68 -38v37l68 38v265h37v-248l130 73v-37l-130 -73v-228h317z" />
    <glyph glyph-name="m.smcp" horiz-adv-x="745" 
d="M652 0h-37v286v219h-2l-96 -224l-122 -281h-45l-121 281l-97 224h-1v-219v-286h-37v548h61l125 -291l92 -215h2l92 215l125 291h61v-548z" />
    <glyph glyph-name="n.smcp" horiz-adv-x="621" 
d="M528 0h-59l-163 248l-174 262h-1v-281v-229h-37v548h58l163 -248l174 -262h1v281v229h38v-548z" />
    <glyph glyph-name="nacute.smcp" horiz-adv-x="621" 
d="M295 613h-36l93 139h48zM528 0h-59l-163 248l-174 262h-1v-281v-229h-37v548h58l163 -248l174 -262h1v281v229h38v-548z" />
    <glyph glyph-name="ncaron.smcp" horiz-adv-x="621" 
d="M331 613h-40l-117 139h42l95 -113l94 113h43zM528 0h-59l-163 248l-174 262h-1v-281v-229h-37v548h58l163 -248l174 -262h1v281v229h38v-548z" />
    <glyph glyph-name="ncommaaccent.smcp" horiz-adv-x="621" 
d="M528 0h-59l-163 248l-174 262h-1v-281v-229h-37v548h58l163 -248l174 -262h1v281v229h38v-548zM331 -146l-39 -98h-20l31 98h-13v72h41v-72z" />
    <glyph glyph-name="eng.smcp" horiz-adv-x="621" 
d="M528 548v-583q0 -115 -103 -115q-12 0 -24 3v32q16 -2 21 -2q34 0 51 18.5t17 63.5v35l-183 261l-175 250h-1v-275v-236h-37v548h58l162 -231l175 -248h1v273v206h38z" />
    <glyph glyph-name="ntilde.smcp" horiz-adv-x="621" 
d="M434 742h31q-3 -44 -24.5 -68t-55.5 -24q-31 0 -77 30t-70 30q-44 0 -49 -60h-31q3 44 24.5 68t55.5 24q31 0 77 -30t69 -30q45 0 50 60zM528 0h-59l-163 248l-174 262h-1v-281v-229h-37v548h58l163 -248l174 -262h1v281v229h38v-548z" />
    <glyph glyph-name="o.smcp" horiz-adv-x="595" 
d="M297 559q117 0 186.5 -77.5t69.5 -207.5t-69.5 -207.5t-186.5 -77.5q-116 0 -185.5 77.5t-69.5 207.5t69.5 207.5t185.5 77.5zM297 523q-99 0 -157.5 -67.5t-58.5 -181.5t58.5 -181.5t157.5 -67.5q100 0 158.5 67.5t58.5 181.5t-58.5 181.5t-158.5 67.5z" />
    <glyph glyph-name="oacute.smcp" horiz-adv-x="595" 
d="M281 613h-36l93 139h48zM297 559q117 0 186.5 -77.5t69.5 -207.5t-69.5 -207.5t-186.5 -77.5q-116 0 -185.5 77.5t-69.5 207.5t69.5 207.5t185.5 77.5zM297 523q-99 0 -157.5 -67.5t-58.5 -181.5t58.5 -181.5t157.5 -67.5q100 0 158.5 67.5t58.5 181.5t-58.5 181.5
t-158.5 67.5z" />
    <glyph glyph-name="obreve.smcp" horiz-adv-x="595" 
d="M409 752h32q-6 -63 -43.5 -97.5t-100.5 -34.5t-100.5 34.5t-43.5 97.5h32q12 -101 112 -101t112 101zM297 559q117 0 186.5 -77.5t69.5 -207.5t-69.5 -207.5t-186.5 -77.5q-116 0 -185.5 77.5t-69.5 207.5t69.5 207.5t185.5 77.5zM297 523q-99 0 -157.5 -67.5
t-58.5 -181.5t58.5 -181.5t157.5 -67.5q100 0 158.5 67.5t58.5 181.5t-58.5 181.5t-158.5 67.5z" />
    <glyph glyph-name="ocircumflex.smcp" horiz-adv-x="595" 
d="M392 613l-94 113l-95 -113h-42l117 139h40l117 -139h-43zM297 559q117 0 186.5 -77.5t69.5 -207.5t-69.5 -207.5t-186.5 -77.5q-116 0 -185.5 77.5t-69.5 207.5t69.5 207.5t185.5 77.5zM297 523q-99 0 -157.5 -67.5t-58.5 -181.5t58.5 -181.5t157.5 -67.5
q100 0 158.5 67.5t58.5 181.5t-58.5 181.5t-158.5 67.5z" />
    <glyph glyph-name="odieresis.smcp" horiz-adv-x="595" 
d="M224 671h-36v81h36v-81zM407 671h-36v81h36v-81zM297 559q117 0 186.5 -77.5t69.5 -207.5t-69.5 -207.5t-186.5 -77.5q-116 0 -185.5 77.5t-69.5 207.5t69.5 207.5t185.5 77.5zM297 523q-99 0 -157.5 -67.5t-58.5 -181.5t58.5 -181.5t157.5 -67.5q100 0 158.5 67.5
t58.5 181.5t-58.5 181.5t-158.5 67.5z" />
    <glyph glyph-name="ograve.smcp" horiz-adv-x="595" 
d="M257 752l92 -139h-36l-105 139h49zM297 559q117 0 186.5 -77.5t69.5 -207.5t-69.5 -207.5t-186.5 -77.5q-116 0 -185.5 77.5t-69.5 207.5t69.5 207.5t185.5 77.5zM297 523q-99 0 -157.5 -67.5t-58.5 -181.5t58.5 -181.5t157.5 -67.5q100 0 158.5 67.5t58.5 181.5
t-58.5 181.5t-158.5 67.5z" />
    <glyph glyph-name="ohungarumlaut.smcp" horiz-adv-x="595" 
d="M232 613h-36l117 139h49zM352 613h-36l117 139h48zM297 559q117 0 186.5 -77.5t69.5 -207.5t-69.5 -207.5t-186.5 -77.5q-116 0 -185.5 77.5t-69.5 207.5t69.5 207.5t185.5 77.5zM297 523q-99 0 -157.5 -67.5t-58.5 -181.5t58.5 -181.5t157.5 -67.5q100 0 158.5 67.5
t58.5 181.5t-58.5 181.5t-158.5 67.5z" />
    <glyph glyph-name="omacron.smcp" horiz-adv-x="595" 
d="M418 677h-242v32h242v-32zM297 559q117 0 186.5 -77.5t69.5 -207.5t-69.5 -207.5t-186.5 -77.5q-116 0 -185.5 77.5t-69.5 207.5t69.5 207.5t185.5 77.5zM297 523q-99 0 -157.5 -67.5t-58.5 -181.5t58.5 -181.5t157.5 -67.5q100 0 158.5 67.5t58.5 181.5t-58.5 181.5
t-158.5 67.5z" />
    <glyph glyph-name="oslash.smcp" horiz-adv-x="595" 
d="M540 545l-53 -66q66 -79 66 -205q0 -131 -69 -208t-186 -77q-97 0 -163 55l-50 -61l-27 21l52 65q-67 76 -67 205q0 131 69 208t186 77q96 0 164 -55l49 61zM298 523q-100 0 -158.5 -67.5t-58.5 -181.5q0 -108 53 -175l303 375q-54 49 -139 49zM298 25q100 0 158 67.5
t58 181.5q0 106 -52 174l-304 -374q55 -49 140 -49z" />
    <glyph glyph-name="otilde.smcp" horiz-adv-x="595" 
d="M420 742h31q-3 -44 -24.5 -68t-55.5 -24q-31 0 -77 30t-70 30q-44 0 -49 -60h-31q3 44 24.5 68t55.5 24q31 0 77 -30t69 -30q45 0 50 60zM297 559q117 0 186.5 -77.5t69.5 -207.5t-69.5 -207.5t-186.5 -77.5q-116 0 -185.5 77.5t-69.5 207.5t69.5 207.5t185.5 77.5z
M297 523q-99 0 -157.5 -67.5t-58.5 -181.5t58.5 -181.5t157.5 -67.5q100 0 158.5 67.5t58.5 181.5t-58.5 181.5t-158.5 67.5z" />
    <glyph glyph-name="oe.smcp" horiz-adv-x="817" 
d="M751 513h-315v-214h300v-35h-300v-229h325v-35h-429q-139 0 -214 71.5t-75 202.5t75 202.5t214 71.5h419v-35zM399 513h-67q-120 0 -185.5 -62t-65.5 -177t65.5 -177t185.5 -62h67v478z" />
    <glyph glyph-name="p.smcp" horiz-adv-x="501" 
d="M94 548h187q92 0 141.5 -42t49.5 -113t-49.5 -113t-141.5 -42h-150v-238h-37v548zM131 513v-240h150q75 0 113.5 32t38.5 88t-38.5 88t-113.5 32h-150z" />
    <glyph glyph-name="thorn.smcp" horiz-adv-x="501" 
d="M131 437h150q92 0 141.5 -42t49.5 -113t-49.5 -113t-141.5 -42h-150v-127h-37v548h37v-111zM131 402v-240h150q75 0 113.5 32t38.5 88t-38.5 88t-113.5 32h-150z" />
    <glyph glyph-name="q.smcp" horiz-adv-x="595" 
d="M553 274q0 -134 -74 -213l64 -66l-27 -26l-65 67q-64 -47 -153 -47q-117 0 -186 77t-69 208t69 208t186 77q116 0 185.5 -77.5t69.5 -207.5zM81 274q0 -114 59 -181.5t158 -67.5q74 0 126 38l-75 77l27 27l76 -78q62 67 62 185q0 114 -58.5 181.5t-157.5 67.5t-158 -67.5
t-59 -181.5z" />
    <glyph glyph-name="r.smcp" horiz-adv-x="515" 
d="M94 548h163q196 0 196 -143q0 -55 -32.5 -92.5t-86.5 -46.5v-2q33 -8 51.5 -29t38.5 -73l63 -162h-41l-59 156q-20 53 -46 73t-77 20h-133v-249h-37v548zM131 513v-229h133q75 0 113 33.5t38 87.5q0 108 -158 108h-126z" />
    <glyph glyph-name="racute.smcp" horiz-adv-x="515" 
d="M243 613h-36l93 139h48zM94 548h163q196 0 196 -143q0 -55 -32.5 -92.5t-86.5 -46.5v-2q33 -8 51.5 -29t38.5 -73l63 -162h-41l-59 156q-20 53 -46 73t-77 20h-133v-249h-37v548zM131 513v-229h133q75 0 113 33.5t38 87.5q0 108 -158 108h-126z" />
    <glyph glyph-name="rcaron.smcp" horiz-adv-x="515" 
d="M279 613h-40l-117 139h42l95 -113l94 113h43zM94 548h163q196 0 196 -143q0 -55 -32.5 -92.5t-86.5 -46.5v-2q33 -8 51.5 -29t38.5 -73l63 -162h-41l-59 156q-20 53 -46 73t-77 20h-133v-249h-37v548zM131 513v-229h133q75 0 113 33.5t38 87.5q0 108 -158 108h-126z" />
    <glyph glyph-name="rcommaaccent.smcp" horiz-adv-x="515" 
d="M94 548h163q196 0 196 -143q0 -55 -32.5 -92.5t-86.5 -46.5v-2q33 -8 51.5 -29t38.5 -73l63 -162h-41l-59 156q-20 53 -46 73t-77 20h-133v-249h-37v548zM131 513v-229h133q75 0 113 33.5t38 87.5q0 108 -158 108h-126zM301 -146l-39 -98h-20l31 98h-13v72h41v-72z" />
    <glyph glyph-name="s.smcp" horiz-adv-x="499" 
d="M233 559q197 0 197 -182h-38q0 147 -159 147q-66 0 -102.5 -29t-36.5 -80q0 -50 34 -72.5t119 -42.5q40 -9 65 -16t52 -19.5t42 -28t24.5 -39t9.5 -54.5q0 -71 -52 -112.5t-141 -41.5q-97 0 -149.5 49t-52.5 145h38q0 -159 164 -159q74 0 114.5 31t40.5 87q0 53 -36.5 76
t-126.5 44q-49 12 -78 22t-55.5 27t-38 42t-11.5 61q0 65 48 105t129 40z" />
    <glyph glyph-name="sacute.smcp" horiz-adv-x="499" 
d="M217 613h-36l93 139h48zM233 559q197 0 197 -182h-38q0 147 -159 147q-66 0 -102.5 -29t-36.5 -80q0 -50 34 -72.5t119 -42.5q40 -9 65 -16t52 -19.5t42 -28t24.5 -39t9.5 -54.5q0 -71 -52 -112.5t-141 -41.5q-97 0 -149.5 49t-52.5 145h38q0 -159 164 -159
q74 0 114.5 31t40.5 87q0 53 -36.5 76t-126.5 44q-49 12 -78 22t-55.5 27t-38 42t-11.5 61q0 65 48 105t129 40z" />
    <glyph glyph-name="scaron.smcp" horiz-adv-x="499" 
d="M253 613h-40l-117 139h42l95 -113l94 113h43zM233 559q197 0 197 -182h-38q0 147 -159 147q-66 0 -102.5 -29t-36.5 -80q0 -50 34 -72.5t119 -42.5q40 -9 65 -16t52 -19.5t42 -28t24.5 -39t9.5 -54.5q0 -71 -52 -112.5t-141 -41.5q-97 0 -149.5 49t-52.5 145h38
q0 -159 164 -159q74 0 114.5 31t40.5 87q0 53 -36.5 76t-126.5 44q-49 12 -78 22t-55.5 27t-38 42t-11.5 61q0 65 48 105t129 40z" />
    <glyph glyph-name="scedilla.smcp" horiz-adv-x="499" 
d="M440 143q0 -65 -43 -105t-119 -48l-38 -56q10 2 21 2q36 0 58 -18.5t22 -50.5q0 -34 -25.5 -56t-71.5 -22q-49 0 -92 25l11 22q36 -20 78 -20q32 0 49.5 13.5t17.5 36.5q0 48 -61 48q-17 0 -32 -5l-13 14l45 66q-97 0 -149.5 49t-52.5 145h38q0 -159 164 -159
q74 0 114.5 31t40.5 87q0 53 -36.5 76t-126.5 44q-49 12 -78 22t-55.5 27t-38 42t-11.5 61q0 65 48 105t129 40q197 0 197 -182h-38q0 147 -159 147q-66 0 -102.5 -29t-36.5 -80q0 -50 34 -72.5t119 -42.5q40 -9 65 -16t52 -19.5t42 -28t24.5 -39t9.5 -54.5z" />
    <glyph glyph-name="scircumflex.smcp" horiz-adv-x="499" 
d="M327 613l-94 113l-95 -113h-42l117 139h40l117 -139h-43zM233 559q197 0 197 -182h-38q0 147 -159 147q-66 0 -102.5 -29t-36.5 -80q0 -50 34 -72.5t119 -42.5q40 -9 65 -16t52 -19.5t42 -28t24.5 -39t9.5 -54.5q0 -71 -52 -112.5t-141 -41.5q-97 0 -149.5 49t-52.5 145
h38q0 -159 164 -159q74 0 114.5 31t40.5 87q0 53 -36.5 76t-126.5 44q-49 12 -78 22t-55.5 27t-38 42t-11.5 61q0 65 48 105t129 40z" />
    <glyph glyph-name="scommaaccent.smcp" horiz-adv-x="499" 
d="M233 559q197 0 197 -182h-38q0 147 -159 147q-66 0 -102.5 -29t-36.5 -80q0 -50 34 -72.5t119 -42.5q40 -9 65 -16t52 -19.5t42 -28t24.5 -39t9.5 -54.5q0 -71 -52 -112.5t-141 -41.5q-97 0 -149.5 49t-52.5 145h38q0 -159 164 -159q74 0 114.5 31t40.5 87q0 53 -36.5 76
t-126.5 44q-49 12 -78 22t-55.5 27t-38 42t-11.5 61q0 65 48 105t129 40zM267 -146l-39 -98h-20l31 98h-13v72h41v-72z" />
    <glyph glyph-name="germandbls.smcp" horiz-adv-x="634" 
d="M529 467l-150 -146q197 -29 197 -174q0 -75 -49 -116.5t-132 -41.5q-81 0 -124.5 37t-43.5 105h39q0 -51 33 -79t96 -28q66 0 104.5 32t38.5 91q0 68 -51.5 102t-154.5 43v32l146 141q-61 59 -159 59q-95 0 -144 -48t-49 -141v-335h-37v335q0 108 59.5 166t170.5 58
q132 0 210 -92z" />
    <glyph glyph-name="t.smcp" horiz-adv-x="478" 
d="M471 513h-213v-513h-37v513h-214v35h464v-35z" />
    <glyph glyph-name="tbar.smcp" horiz-adv-x="479" 
d="M258 513v-196h122v-33h-122v-284h-37v284h-123v33h123v196h-214v35h464v-35h-213z" />
    <glyph glyph-name="tcaron.smcp" horiz-adv-x="478" 
d="M260 613h-40l-117 139h42l95 -113l94 113h43zM471 513h-213v-513h-37v513h-214v35h464v-35z" />
    <glyph glyph-name="tcedilla.smcp" horiz-adv-x="478" 
d="M471 513h-213v-513h-37v513h-214v35h464v-35zM260 -146l-39 -98h-20l31 98h-13v72h41v-72z" />
    <glyph glyph-name="tcommaaccent.smcp" horiz-adv-x="478" 
d="M471 513h-213v-513h-37v513h-214v35h464v-35zM260 -146l-39 -98h-20l31 98h-13v72h41v-72z" />
    <glyph glyph-name="u.smcp" horiz-adv-x="583" 
d="M495 548v-347q0 -104 -52 -158t-151 -54t-151 54t-52 158v347h37v-347q0 -88 43 -132t123 -44t123 44t43 132v347h37z" />
    <glyph glyph-name="uacute.smcp" horiz-adv-x="583" 
d="M276 613h-36l93 139h48zM495 548v-347q0 -104 -52 -158t-151 -54t-151 54t-52 158v347h37v-347q0 -88 43 -132t123 -44t123 44t43 132v347h37z" />
    <glyph glyph-name="ubreve.smcp" horiz-adv-x="583" 
d="M404 752h32q-6 -63 -43.5 -97.5t-100.5 -34.5t-100.5 34.5t-43.5 97.5h32q12 -101 112 -101t112 101zM495 548v-347q0 -104 -52 -158t-151 -54t-151 54t-52 158v347h37v-347q0 -88 43 -132t123 -44t123 44t43 132v347h37z" />
    <glyph glyph-name="ucircumflex.smcp" horiz-adv-x="583" 
d="M386 613l-94 113l-95 -113h-42l117 139h40l117 -139h-43zM495 548v-347q0 -104 -52 -158t-151 -54t-151 54t-52 158v347h37v-347q0 -88 43 -132t123 -44t123 44t43 132v347h37z" />
    <glyph glyph-name="udieresis.smcp" horiz-adv-x="583" 
d="M218 671h-36v81h36v-81zM401 671h-36v81h36v-81zM495 548v-347q0 -104 -52 -158t-151 -54t-151 54t-52 158v347h37v-347q0 -88 43 -132t123 -44t123 44t43 132v347h37z" />
    <glyph glyph-name="ugrave.smcp" horiz-adv-x="583" 
d="M252 752l92 -139h-36l-105 139h49zM495 548v-347q0 -104 -52 -158t-151 -54t-151 54t-52 158v347h37v-347q0 -88 43 -132t123 -44t123 44t43 132v347h37z" />
    <glyph glyph-name="uhungarumlaut.smcp" horiz-adv-x="583" 
d="M227 613h-36l117 139h49zM347 613h-36l117 139h48zM495 548v-347q0 -104 -52 -158t-151 -54t-151 54t-52 158v347h37v-347q0 -88 43 -132t123 -44t123 44t43 132v347h37z" />
    <glyph glyph-name="umacron.smcp" horiz-adv-x="583" 
d="M413 677h-242v32h242v-32zM495 548v-347q0 -104 -52 -158t-151 -54t-151 54t-52 158v347h37v-347q0 -88 43 -132t123 -44t123 44t43 132v347h37z" />
    <glyph glyph-name="uogonek.smcp" horiz-adv-x="582" 
d="M495 548v-345q0 -69 -23 -115t-72 -86q-46 -37 -64 -64t-18 -55q0 -44 49 -44q21 0 36 6v-29q-15 -6 -39 -6q-81 0 -81 70q0 32 18.5 59.5t60.5 61.5v2q-27 -12 -71 -12q-99 0 -151 54t-52 158v345h37v-345q0 -88 43 -132t123 -44t123 44t43 132v345h38z" />
    <glyph glyph-name="uring.smcp" horiz-adv-x="583" 
d="M292 802q37 0 63.5 -26.5t26.5 -63.5t-26.5 -63.5t-63.5 -26.5q-38 0 -64 26t-26 64t26 64t64 26zM292 776q-27 0 -45.5 -18.5t-18.5 -45.5t18.5 -45.5t45.5 -18.5t45.5 18.5t18.5 45.5t-18.5 45.5t-45.5 18.5zM495 548v-347q0 -104 -52 -158t-151 -54t-151 54t-52 158
v347h37v-347q0 -88 43 -132t123 -44t123 44t43 132v347h37z" />
    <glyph glyph-name="utilde.smcp" horiz-adv-x="583" 
d="M415 742h31q-3 -44 -24.5 -68t-55.5 -24q-31 0 -77 30t-70 30q-44 0 -49 -60h-31q3 44 24.5 68t55.5 24q31 0 77 -30t69 -30q45 0 50 60zM495 548v-347q0 -104 -52 -158t-151 -54t-151 54t-52 158v347h37v-347q0 -88 43 -132t123 -44t123 44t43 132v347h37z" />
    <glyph glyph-name="v.smcp" horiz-adv-x="504" 
d="M278 0h-52l-219 548h39l105 -263l100 -248h1l100 248l105 263h40z" />
    <glyph glyph-name="w.smcp" horiz-adv-x="727" 
d="M565 0h-59l-70 255l-72 257h-1l-71 -257l-71 -255h-59l-151 548h38l68 -244l74 -268h2l74 270l67 242h59l67 -242l74 -270h2l74 268l68 244h39z" />
    <glyph glyph-name="wacute.smcp" horiz-adv-x="727" 
d="M348 613h-36l93 139h48zM565 0h-59l-70 255l-72 257h-1l-71 -257l-71 -255h-59l-151 548h38l68 -244l74 -268h2l74 270l67 242h59l67 -242l74 -270h2l74 268l68 244h39z" />
    <glyph glyph-name="wcircumflex.smcp" horiz-adv-x="727" 
d="M458 613l-94 113l-95 -113h-42l117 139h40l117 -139h-43zM565 0h-59l-70 255l-72 257h-1l-71 -257l-71 -255h-59l-151 548h38l68 -244l74 -268h2l74 270l67 242h59l67 -242l74 -270h2l74 268l68 244h39z" />
    <glyph glyph-name="wdieresis.smcp" horiz-adv-x="727" 
d="M290 671h-36v81h36v-81zM473 671h-36v81h36v-81zM565 0h-59l-70 255l-72 257h-1l-71 -257l-71 -255h-59l-151 548h38l68 -244l74 -268h2l74 270l67 242h59l67 -242l74 -270h2l74 268l68 244h39z" />
    <glyph glyph-name="wgrave.smcp" horiz-adv-x="727" 
d="M324 752l92 -139h-36l-105 139h49zM565 0h-59l-70 255l-72 257h-1l-71 -257l-71 -255h-59l-151 548h38l68 -244l74 -268h2l74 270l67 242h59l67 -242l74 -270h2l74 268l68 244h39z" />
    <glyph glyph-name="x.smcp" horiz-adv-x="502" 
d="M275 282l217 -282h-47l-193 251h-2l-194 -251h-46l218 282l-206 266h46l182 -234h2l182 234h46z" />
    <glyph glyph-name="y.smcp" horiz-adv-x="486" 
d="M262 238v-238h-38v238l-219 310h45l86 -122l106 -150h2l106 150l85 122h45z" />
    </font>
</defs>
</svg>
