<svg xmlns="http://www.w3.org/2000/svg" viewBox="0 0 84.66 29.78"><defs><style>.cls-1{fill:#042625;}.cls-2{fill:#80ced4;}.cls-3{fill:#3f3e3e;}</style></defs><title>Asset 3</title><g id="Layer_2" data-name="Layer 2"><g id="Layer_7" data-name="Layer 7"><path class="cls-1" d="M0,22a1.69,1.69,0,0,1,.55-1.29,4.78,4.78,0,0,0,1.2.27,1.21,1.21,0,0,0,.91-.43,2.24,2.24,0,0,0,.52-.81V11.91H1.49a2.63,2.63,0,0,1-.06-.58A1.83,1.83,0,0,1,2,10h8.21a3.45,3.45,0,0,1,2.17.64,4.75,4.75,0,0,1,1.88,4.06v8h-2.5V14.43A3.68,3.68,0,0,0,11,12.87a2.9,2.9,0,0,0-1.39-1H5.67V20.2q-.41,1.89-1.61,2.26a6.2,6.2,0,0,1-2,.42A4.91,4.91,0,0,1,1,22.74,3.82,3.82,0,0,1,0,22.41,2.93,2.93,0,0,1,0,22Z"/><path class="cls-1" d="M15.7,24.93a3.31,3.31,0,0,1,1.09-2.55l3.12-1.12-2.48-9.34H16.1a.7.7,0,0,1,0-.22,4.09,4.09,0,0,1,.13-1,1.31,1.31,0,0,1,.4-.75h2.91l2.72,10.27c.17-.07.36-.16.56-.26a7.81,7.81,0,0,0,.82-.52,6.19,6.19,0,0,0,.91-.77,4,4,0,0,0,.69-1,2.81,2.81,0,0,0,.3-1.25V11.91H24.33v-.16a3.8,3.8,0,0,1,.17-1A1.1,1.1,0,0,1,25,10h3v5.58A8.27,8.27,0,0,1,27.31,19a5.25,5.25,0,0,1-2.08,2.4l-9.46,4.14A2.81,2.81,0,0,1,15.7,24.93Z"/><path class="cls-1" d="M29.8,11.42A2.61,2.61,0,0,1,30.28,10h10.1a3.53,3.53,0,0,1-.48,1.95H38.75V22.69h-2.5V11.91H29.89A2.17,2.17,0,0,1,29.8,11.42Z"/><path class="cls-1" d="M42.61,11.47A2.67,2.67,0,0,1,43.1,10h5.57a7.68,7.68,0,0,1,3.16.52,3.75,3.75,0,0,1,1.73,1.67,3.37,3.37,0,0,1,.49,1.34A18.77,18.77,0,0,1,54.18,16v6.68h-2.5V15.08a3.28,3.28,0,0,0-.79-2.29,2.68,2.68,0,0,0-2.09-.87H42.65A2.62,2.62,0,0,1,42.61,11.47Zm.47,11.22v-7.8a4.68,4.68,0,0,1,2.18.81v7Z"/><path class="cls-1" d="M61.57,11.13A1.58,1.58,0,0,1,62.06,10H64.3l1.89,2.78a11.43,11.43,0,0,1,1.4,2.89,4.06,4.06,0,0,0,.77-.45,2.19,2.19,0,0,0,.53-.56,4.38,4.38,0,0,0,.33-.61,2.64,2.64,0,0,0,.18-.72q.05-.42.07-.74t0-.82H68.12a1.31,1.31,0,0,1-.12-.57,1.21,1.21,0,0,1,.74-1.2h3a22.1,22.1,0,0,1-.17,3,5.52,5.52,0,0,1-.53,1.83A4,4,0,0,1,70,16.05a2.93,2.93,0,0,1-.47.42,3.41,3.41,0,0,1-.48.29l-.55.27-.52.26v9.15H65.68V21.8q0-.42,0-1.14t0-1a13.75,13.75,0,0,0-2.72-7.89H61.67A2,2,0,0,1,61.57,11.13Z"/><path class="cls-1" d="M73.41,23.62a3,3,0,0,1,1-2.33l2.84-1L75,11.74H73.78a.64.64,0,0,1,0-.2,3.74,3.74,0,0,1,.12-.9,1.19,1.19,0,0,1,.37-.68H76.9l2.48,9.37.51-.24a7.08,7.08,0,0,0,.75-.48,5.67,5.67,0,0,0,.83-.71,3.66,3.66,0,0,0,.63-.93,2.57,2.57,0,0,0,.27-1.14v-4.1h-1.1v-.15a3.48,3.48,0,0,1,.15-1,1,1,0,0,1,.46-.68h2.77v5.09A7.54,7.54,0,0,1,84,18.22a4.79,4.79,0,0,1-1.9,2.19l-8.63,3.77A2.56,2.56,0,0,1,73.41,23.62Z"/><path class="cls-2" d="M56.08,6.44s4.48.45,5.85-1.75A7,7,0,0,0,62.38.2C62.2-.17,59.48.54,58,1.33S55.89,5.4,56.08,6.44Z"/><path class="cls-3" d="M57.06,6.58c-.55,0-.93,0-1,0H56V6.46c-.19-1.05.52-4.39,2-5.22C59.3.53,61.72-.15,62.3,0a.26.26,0,0,1,.16.12A7,7,0,0,1,62,4.74C61,6.34,58.47,6.58,57.06,6.58Zm-.89-.23c.6,0,4.45.25,5.68-1.71A6.84,6.84,0,0,0,62.29.24C62.13,0,59.66.55,58.1,1.42,56.73,2.17,56,5.28,56.17,6.35Z"/><path class="cls-3" d="M59.64,3.25a10.56,10.56,0,0,0-2.15,1.56,6.77,6.77,0,0,0-1.55,2.12,5.94,5.94,0,0,0-.44,2.57A1.82,1.82,0,0,0,56,10.69c.28.32.74.54.88,1-.17-.43-.62-.61-.95-.92a1.94,1.94,0,0,1-.55-1.23,5.88,5.88,0,0,1,.41-2.67A6.65,6.65,0,0,1,57.39,4.7,8.84,8.84,0,0,1,59.64,3.25Z"/><path class="cls-1" d="M84.16,29.27a27.47,27.47,0,0,0-8.66-5.63,25,25,0,0,0-10-2c-3.44.11-6.9.51-10.34,1s-6.88,1-10.31,1.55L24.16,27.47c-6.89,1-13.79,2.13-20.76,2.31,3.47-.24,6.91-.8,10.35-1.34S20.61,27.32,24,26.71q10.28-1.8,20.59-3.5c3.44-.53,6.89-1,10.35-1.47a87.36,87.36,0,0,1,10.46-.83A26.15,26.15,0,0,1,84.16,29.27Z"/></g></g></svg>