<svg xmlns="http://www.w3.org/2000/svg" viewBox="0 0 161.83 213.42"><defs><style>.cls-1{fill:#54c1b1;}</style></defs><title>Asset 2</title><g id="Layer_2" data-name="Layer 2"><g id="Layer_1-2" data-name="Layer 1"><path class="cls-1" d="M68.74,168.67c.31,7,.8,14.09.8,21.14,0,3.33-.1,6.67-.41,10-.25,2.68-.07,6.59-2.11,8.53-1.26,1.2-2,4.37-2.75,5.09,4.7-4.49,6.77-9.48,7.59-15.92,1.42-11.2.41-22.53-.09-33.76,0,.74-3.1,3.31-3,4.93Z"/><path class="cls-1" d="M82.75,176.51c-.93,6.44,0,13.21.69,19.65a46.6,46.6,0,0,0,3,13.39c-.31-.73,3.59-3.81,3-5.2-1.91-4.46-2.56-9.48-3-14.26-.62-6.08-1.45-12.43-.57-18.51-.14.95-2.78,3.22-3,4.93Z"/><path class="cls-1" d="M101.2,205.42c-1.14-4.25-3.18-8.25-4.35-12.53a95.77,95.77,0,0,1-2.4-11.41A190.17,190.17,0,0,1,93,154.67c0,.79-3,3.28-3,4.93A202.45,202.45,0,0,0,91.24,185a96.17,96.17,0,0,0,2.62,13.06c1.17,4.29,3.2,8.29,4.35,12.53-.27-1,3.43-3.59,3-5.2Z"/><path class="cls-1" d="M81,118.34c.91-8.2-2.05-16.5-4.37-24.24-2.13-7.09-6-16.55-3.65-24-.51,1.61.15-.21,1-.85A12.6,12.6,0,0,1,77,67.6a26.43,26.43,0,0,1,5.75-1.32,34.43,34.43,0,0,1,14.54,1c8.94,2.64,16.24,9.1,20.85,17.09a46.17,46.17,0,0,1,5.74,28.13c-.59,5.18-2.43,9.71-4,14.6-1.93,5.9-4.71,13-11.36,14.78-10.29,2.79-22-1.91-26.71-11.6a27.29,27.29,0,0,1-2.24-14.68c.68-6.51,4.11-10.63,10.48-12,8.21-1.8,16.88.74,25,1.9,3.95.56,8.66,1.43,12.45-.14a24.51,24.51,0,0,0,10.27-8.53c4.55-6.76,6.14-15.72-1.79-21-4.86-3.23-12.16-4.62-17.77-5.76A66.89,66.89,0,0,0,97.07,69c-5.81.68-11.41,2.14-16.05,5.84C76.14,78.68,71.93,83.95,68,88.72a156,156,0,0,0-19.45,28.8,27,27,0,0,0,2.48,29c7.71,9.8,21.42,12.43,33.27,12.67,12.19.25,28-2.27,37.92-10,5.83-4.55,11.11-13.36,8.05-20.72-7.79-18.73-26.42-27.93-45.72-28.87-9.88-.48-19.79.59-29.58,1.82-4.73.59-9.45,1.25-14.17,1.85-5.35.68-10.39,1.62-15.57-.49-4.09-1.67-8.51-5-9.65-9.5C14.12,87.67,20.89,82.88,25,80c8.59-6,19-9.08,29.2-10.86a158.56,158.56,0,0,1,29.68-2.07c4.48.07,9.09,0,13.42,1.28,2.17.66,5,1.57,6.64,3.25,1.86,1.92,1.94,5.45,2.31,8,2.09,14.39-.58,29-6,42.39-6.17,15.18-15.63,30.3-30,38.83a36.68,36.68,0,0,1-18.52,5.22c-7.19,0-13.21-3.25-18.81-7.5a46.89,46.89,0,0,1-11.55-13.05c-3.29-5.4-8.18-14.14-5.91-20.69,1.42-4.1,6.88-7.67,10.4-9.86a56,56,0,0,1,14.33-6.13c9.6-2.73,19.67-3.6,29.62-3.81,4.73-.1,9.45,0,14.18.15s10.2,1.3,14.75-.19c6.54-2.13,11-10.1,12.61-16.41,2.63-10.13-2.5-21.77-7.94-30.15C97.11,48.92,87.46,40.15,75.94,38c-11.67-2.15-23.09,8.16-30.44,16.09A91.79,91.79,0,0,0,29.1,79.58C27.17,84,28,87.8,27.41,92.38c-.76,5.7-1.87,10.55,1.55,15.73,8,12.19,19.89,20,32.54,26.84C73,141.19,85.09,146.15,97.2,151s26.78,9.17,39.64,4.12c7.4-2.9,12.8-9.62,16.84-16.2,4.33-7,8-15.14,8.14-23.56C162,105,155.2,97.28,145.78,93.68c-11.92-4.56-23-1.73-34.42,2.88-21.3,8.63-42,22.31-65.42,24a50,50,0,0,1-32-8.51C11.3,110.29-.54,100.68,3.86,97.45c2.12-1.55,7.5-1.38,10.07-1.62A98.34,98.34,0,0,1,27,95.51c14.52.58,28.73,4,42.6,8.17,6.24,1.85,12.47,4.39,18.81,5.84a15.3,15.3,0,0,0,10.68-1.28c6-3.2,9.94-10.43,12.42-16.5a42.68,42.68,0,0,0,2.89-22.08c-1.69-11.4-15.1-17.08-25-19.57-11.89-3-24.39-2.1-36.26.5-5.56,1.22-12,2.34-16.86,5.44-3.52,2.23-7.67,5-9.85,8.56s-5.17,7.59-5.45,12a29,29,0,0,0,1.43,11.55c5.41,15.11,24.13,19.72,37.64,24.4,7.28,2.52,15.39,5,21.56,9.82a22.36,22.36,0,0,1,7.27,9.8c.62,1.71,1.71,5,.75,6.73s-4.79,2.71-6.72,3.26a50.56,50.56,0,0,1-19.63,1.27c-6.12-.7-14.66-2.83-18.44-8.27-7.29-10.5,11.74-21.81,19.91-24.73,8.91-3.18,18.65-3.51,27.92-1.9,10.53,1.83,18.89,6.47,28.14,11.45,4,2.18,11.17,1.23,15.3-.56s6.86-5.18,9.09-9c1.45-2.46,3.16-4.6,1.81-7.39-2.17-4.48-8.22-6.32-7.88-11.94.22-3.58,1.93-6.82,1.85-10.49a25.06,25.06,0,0,0-3.27-12.11c-4.53-7.67-13.18-11.7-21.47-13.89a90.83,90.83,0,0,0-26.89-2.52c-9,.38-18.62-.15-24.9,7.58C53.11,73.71,54.13,93,62.83,108s25.74,28.3,43.6,21.48c11.52-4.4,17.79-17.22,18.65-28.95,1.22-16.69-4.42-33.81-10-49.28-2.57-7.13-5.4-14.17-8.26-21.19-3.25-8-8.2-16.66-16.11-20.73-.47-.24-3.32,5-3,5.2,7.92,4.08,12.86,12.74,16.11,20.73,3,7.37,6,14.75,8.64,22.25,5.46,15.32,11,32.41,9.51,48.9-.74,7.91-3.49,13.74-10.93,17.2a27.86,27.86,0,0,1-23.89-.3c-16.39-7.7-28.57-27-28.18-45.12.11-4.92,1-12,4.69-15.51,4-3.81,10-5,15.31-5.32a131.16,131.16,0,0,1,27.28,1C122.66,61,142,71.09,137.33,91c-.64,2.74-1.84,5.49-.77,8.29,1.7,4.44,11.42,8,5.89,12.95-3.7,3.32-12.08,4.76-16.79,3.4-2-.59-3.87-2.23-5.71-3.31a75.08,75.08,0,0,0-8.19-4.16C95.2,101,74.81,99.48,59,109.44c-7.25,4.58-12.58,11.3-16.71,18.72C36.42,138.79,45.91,145.85,56,148c8.95,1.9,24.87,2.69,31.77-4.79,4.08-4.42,6.23-10.46,4.13-16.25-5.55-15.3-27.12-18.71-40.49-23.71C37.34,98,22.17,89.1,24,71.66c.52-4.85,5.41-8,9.51-10.55,5.6-3.45,13.37-4.76,19.75-6C64.72,53,76.67,52.52,88,55.68c10.49,2.94,22.65,9,23.71,21,.75,8.52-.64,20.25-8.18,25.45a14.71,14.71,0,0,1-10.94,2.37c-6.72-1.12-13.37-4.12-19.9-6.06-13.28-3.95-26.86-7.29-40.74-8.08a96.89,96.89,0,0,0-20.64.95c-4.88.77-6.74,2.08-9.07,6.23-1.46,2.6-2.93,6-1.8,9,2.05,5.51,9.83,10.59,14.62,13.26C35,131,57.27,124.53,76.88,116c11-4.78,21.65-10.37,32.82-14.77,11.43-4.51,22.76-6.85,34.51-1.8,9.68,4.15,15.45,12.64,14.46,23.19-1,11.19-8,23-18.82,27.32-12.83,5.08-27.52.75-39.64-4.12S76,136,64.5,129.76a162.11,162.11,0,0,1-15.63-9.62,63.57,63.57,0,0,1-8-6c-2.53-2.46-4.4-5.66-6.59-8.42-4.3-5.42-5.48-10.13-4.23-17,.52-2.86.13-5.68.48-8.57.54-4.45,3.29-9,5.69-12.69A68,68,0,0,1,49.6,52.69c5-4.13,11.51-9.21,18.11-9.77,11.89-1,23.23,8.28,30,17.11,6.23,8.1,12.54,20.55,11,31.07-1.91,12.94-17.71,9-26.9,8.78-18.24-.35-39.15.36-54.77,11-5.7,3.88-11.62,10.08-14.15,16.65-3.81,9.9,3.81,22.25,9.91,29.54a46.28,46.28,0,0,0,14.31,11.41c6.22,3.19,12.9,3.48,19.67,1.85a38.93,38.93,0,0,0,14.93-7.28c4.3-3.42,9.06-7.33,12.49-11.64,6.72-8.45,12.15-18.72,16.62-28.51,5-11,8.54-22.75,9.06-34.86a72.54,72.54,0,0,0-1.25-17c-.47-2.42-.58-3.78-2.53-5.25a20.93,20.93,0,0,0-8.52-3.3c-8.68-1.61-18.57-.81-27.32-.15-17.78,1.35-38.48,5.47-50.56,19.84-3.84,4.57-9.38,11.64-6.58,17.87,4.67,10.37,16.7,9.4,25.9,8.23,18.6-2.38,38.5-6.33,57-1.37a45.89,45.89,0,0,1,21.92,13,56,56,0,0,1,8.57,12.4c2.29,4.41,2.47,8.26-1.61,11.8-2.67,2.31-6.38,3.86-9.61,5.06-20.25,7.54-58.23,9.42-65.82-16.81C45,116.9,57.31,103.13,66.72,92.06c4.2-4.94,8.56-10.6,14.19-14,6.43-3.87,14.73-4.52,22.1-4.31a76.82,76.82,0,0,1,19,3.14c5.67,1.64,12,3.09,15.11,8.61a11.62,11.62,0,0,1,1.59,6.86c-.4,3.1-3.54,4.87-6,6.44-4.56,2.91-9.54,2.17-14.65,1.44-7.83-1.12-16.08-3.45-24-2.09-7.14,1.23-11.36,6.18-14.51,12.36-3.85,7.55-4.44,17.17-.7,24.92,4.68,9.71,15.25,13.47,25.45,11.82,7.29-1.18,12.33-9.61,15.32-15.72,1.94-4,3-8.32,4.52-12.43a48.13,48.13,0,0,0,3-14.09c1-17.19-7.83-35.93-24.65-42.23-7.36-2.76-18.19-3.54-25.12.88-4.31,2.74-7.4,8.84-7.91,13.82-1.61,15.68,10.21,30,8.45,45.77.1-.92,2.84-3.23,3-4.93Z"/><path class="cls-1" d="M89.13,24.55,99.81,7.47a1.52,1.52,0,0,0-1.09-2.35L75.93,0a1.51,1.51,0,0,0-1.5,2.14L86.54,24.34c.92,1.69,3.64.41,2.71-1.29L77.14.88,75.64,3,98.43,8.11,97.35,5.75,86.67,22.83C85.65,24.47,88.1,26.19,89.13,24.55Z"/><polygon class="cls-1" points="87.9 23.69 98.58 6.61 75.79 1.52 87.9 23.69"/></g></g></svg>